<?xml version="1.0" encoding="UTF-8" standalone="no"?><svg xmlns="http://www.w3.org/2000/svg" xmlns:xlink="http://www.w3.org/1999/xlink" clip-rule="evenodd" stroke-miterlimit="10" viewBox="0 0 1024 768"><desc>SVG generated by Keynote</desc><defs></defs><g transform="matrix(1.00, 0.00, -0.00, -1.00, 0.0, 768.0)"><g><clipPath id="clip0x7fdf028b5520"><path d="M 0.0 768.0 L 1024.0 768.0 L 1024.0 0.0 L 0.0 0.0 Z M 0.0 768.0 "></path></clipPath><g clip-path="url(#clip0x7fdf028b5520)"><image xlink:href="../../8532EDA3-03AF-4F95-ADCC-1003E38AE155/assets/7D0D479F0D8AC86C9E875656D9072873.jpeg" width="2048.00" height="1536.00" transform="matrix(0.50, 0.00, -0.00, -0.50, 0.0, 768.0)"></image></g></g><g><clipPath id="clip0x7fdf02a54ee0"><path d="M 524.0 535.0 L 1006.0 535.0 L 1006.0 117.0 L 524.0 117.0 Z M 523.5 535.0 "></path></clipPath><g clip-path="url(#clip0x7fdf02a54ee0)"><image xlink:href="BE0634E505F33BD7D1AA570579183C15.png" width="712.00" height="636.00" transform="matrix(0.68, 0.00, -0.00, -0.68, 524.0, 542.0)"></image></g></g><image xlink:href="515F116C63FDED46EF89AF4C949CEE1F.png" width="513.00" height="450.00" transform="matrix(1.00, 0.00, -0.00, 1.00, 508.5, 100.0)"></image><image xlink:href="42415F89CD0C2BAB710EB076A905CD5C.png" width="767.00" height="76.00" transform="matrix(1.00, 0.00, -0.00, -1.00, 67.0, 678.0)"></image><text xml:space="preserve" font-family="HelveticaNeue-Light,Helvetica Neue" font-size="72.0" fill="#FEFFFE" transform="matrix(1.00, 0.00, -0.00, -1.00, 66.0, 624.4)">L</text><text xml:space="preserve" font-family="HelveticaNeue-Light,Helvetica Neue" font-size="72.0" fill="#FEFFFE" transform="matrix(1.00, 0.00, -0.00, -1.00, 104.7, 624.4)">a</text><text xml:space="preserve" font-family="HelveticaNeue-Light,Helvetica Neue" font-size="72.0" fill="#FEFFFE" transform="matrix(1.00, 0.00, -0.00, -1.00, 142.0, 624.4)">s</text><text xml:space="preserve" font-family="HelveticaNeue-Light,Helvetica Neue" font-size="72.0" fill="#FEFFFE" transform="matrix(1.00, 0.00, -0.00, -1.00, 176.7, 624.4)">t</text><text xml:space="preserve" font-family="HelveticaNeue-Light,Helvetica Neue" font-size="72.0" fill="#FEFFFE" transform="matrix(1.00, 0.00, -0.00, -1.00, 198.0, 624.4)"> </text><text xml:space="preserve" font-family="HelveticaNeue-Light,Helvetica Neue" font-size="72.0" fill="#FEFFFE" transform="matrix(1.00, 0.00, -0.00, -1.00, 218.0, 624.4)">Q</text><text xml:space="preserve" font-family="HelveticaNeue-Light,Helvetica Neue" font-size="72.0" fill="#FEFFFE" transform="matrix(1.00, 0.00, -0.00, -1.00, 271.3, 624.4)">u</text><text xml:space="preserve" font-family="HelveticaNeue-Light,Helvetica Neue" font-size="72.0" fill="#FEFFFE" transform="matrix(1.00, 0.00, -0.00, -1.00, 310.0, 624.4)">i</text><text xml:space="preserve" font-family="HelveticaNeue-Light,Helvetica Neue" font-size="72.0" fill="#FEFFFE" transform="matrix(1.00, 0.00, -0.00, -1.00, 323.3, 624.4)">z</text><text xml:space="preserve" font-family="HelveticaNeue-Light,Helvetica Neue" font-size="72.0" fill="#FEFFFE" transform="matrix(1.00, 0.00, -0.00, -1.00, 356.7, 624.4)">!</text><text xml:space="preserve" font-family="HelveticaNeue-Light,Helvetica Neue" font-size="72.0" fill="#FEFFFE" transform="matrix(1.00, 0.00, -0.00, -1.00, 374.0, 624.4)"> </text><text xml:space="preserve" font-family="HelveticaNeue-Light,Helvetica Neue" font-size="72.0" fill="#FEFFFE" transform="matrix(1.00, 0.00, -0.00, -1.00, 394.0, 624.4)">F</text><text xml:space="preserve" font-family="HelveticaNeue-Light,Helvetica Neue" font-size="72.0" fill="#FEFFFE" transform="matrix(1.00, 0.00, -0.00, -1.00, 432.7, 624.4)">i</text><text xml:space="preserve" font-family="HelveticaNeue-Light,Helvetica Neue" font-size="72.0" fill="#FEFFFE" transform="matrix(1.00, 0.00, -0.00, -1.00, 446.0, 624.4)">n</text><text xml:space="preserve" font-family="HelveticaNeue-Light,Helvetica Neue" font-size="72.0" fill="#FEFFFE" transform="matrix(1.00, 0.00, -0.00, -1.00, 484.7, 624.4)">d</text><text xml:space="preserve" font-family="HelveticaNeue-Light,Helvetica Neue" font-size="72.0" fill="#FEFFFE" transform="matrix(1.00, 0.00, -0.00, -1.00, 526.0, 624.4)"> </text><text xml:space="preserve" font-family="HelveticaNeue-Light,Helvetica Neue" font-size="72.0" fill="#FEFFFE" transform="matrix(1.00, 0.00, -0.00, -1.00, 546.0, 624.4)">t</text><text xml:space="preserve" font-family="HelveticaNeue-Light,Helvetica Neue" font-size="72.0" fill="#FEFFFE" transform="matrix(1.00, 0.00, -0.00, -1.00, 567.3, 624.4)">h</text><text xml:space="preserve" font-family="HelveticaNeue-Light,Helvetica Neue" font-size="72.0" fill="#FEFFFE" transform="matrix(1.00, 0.00, -0.00, -1.00, 606.0, 624.4)">e</text><text xml:space="preserve" font-family="HelveticaNeue-Light,Helvetica Neue" font-size="72.0" fill="#FEFFFE" transform="matrix(1.00, 0.00, -0.00, -1.00, 643.4, 624.4)"> </text><text xml:space="preserve" font-family="HelveticaNeue-Light,Helvetica Neue" font-size="72.0" fill="#FEFFFE" transform="matrix(1.00, 0.00, -0.00, -1.00, 663.4, 624.4)">b</text><text xml:space="preserve" font-family="HelveticaNeue-Light,Helvetica Neue" font-size="72.0" fill="#FEFFFE" transform="matrix(1.00, 0.00, -0.00, -1.00, 704.7, 624.4)">u</text><text xml:space="preserve" font-family="HelveticaNeue-Light,Helvetica Neue" font-size="72.0" fill="#FEFFFE" transform="matrix(1.00, 0.00, -0.00, -1.00, 743.4, 624.4)">g</text><text xml:space="preserve" font-family="HelveticaNeue-Light,Helvetica Neue" font-size="72.0" fill="#FEFFFE" transform="matrix(1.00, 0.00, -0.00, -1.00, 783.4, 624.4)">s</text><text xml:space="preserve" font-family="HelveticaNeue-Light,Helvetica Neue" font-size="72.0" fill="#FEFFFE" transform="matrix(1.00, 0.00, -0.00, -1.00, 818.0, 624.4)">!</text></g></svg>