<?xml version="1.0" encoding="UTF-8" standalone="no"?><svg xmlns="http://www.w3.org/2000/svg" xmlns:xlink="http://www.w3.org/1999/xlink" clip-rule="evenodd" stroke-miterlimit="10" viewBox="0 0 1024 768"><desc>SVG generated by Keynote</desc><defs></defs><g transform="matrix(1.00, 0.00, -0.00, -1.00, 0.0, 768.0)"><g><clipPath id="clip0x7f9383619fb0"><path d="M 0.0 768.0 L 1024.0 768.0 L 1024.0 0.0 L 0.0 0.0 Z M 0.0 768.0 "></path></clipPath><g clip-path="url(#clip0x7f9383619fb0)"><image xlink:href="../../8532EDA3-03AF-4F95-ADCC-1003E38AE155/assets/7D0D479F0D8AC86C9E875656D9072873.jpeg" width="2048.00" height="1536.00" transform="matrix(0.50, 0.00, -0.00, -0.50, 0.0, 768.0)"></image></g></g><image xlink:href="../../4ED71F6C-27BC-4773-B501-194DB9D5E8F8/assets/6683E915D0C158B078BFA6D1BD2DEA0B.png" width="475.00" height="74.00" transform="matrix(1.00, 0.00, -0.00, -1.00, 61.0, 677.0)"></image><text xml:space="preserve" font-family="HelveticaNeue-Light,Helvetica Neue" font-size="72.0" fill="#FEFFFE" transform="matrix(1.00, 0.00, -0.00, -1.00, 66.0, 624.4)">V</text><text xml:space="preserve" font-family="HelveticaNeue-Light,Helvetica Neue" font-size="72.0" fill="#FEFFFE" transform="matrix(1.00, 0.00, -0.00, -1.00, 109.1, 624.4)">i</text><text xml:space="preserve" font-family="HelveticaNeue-Light,Helvetica Neue" font-size="72.0" fill="#FEFFFE" transform="matrix(1.00, 0.00, -0.00, -1.00, 122.4, 624.4)">s</text><text xml:space="preserve" font-family="HelveticaNeue-Light,Helvetica Neue" font-size="72.0" fill="#FEFFFE" transform="matrix(1.00, 0.00, -0.00, -1.00, 157.1, 624.4)">u</text><text xml:space="preserve" font-family="HelveticaNeue-Light,Helvetica Neue" font-size="72.0" fill="#FEFFFE" transform="matrix(1.00, 0.00, -0.00, -1.00, 195.7, 624.4)">a</text><text xml:space="preserve" font-family="HelveticaNeue-Light,Helvetica Neue" font-size="72.0" fill="#FEFFFE" transform="matrix(1.00, 0.00, -0.00, -1.00, 233.1, 624.4)">l</text><text xml:space="preserve" font-family="HelveticaNeue-Light,Helvetica Neue" font-size="72.0" fill="#FEFFFE" transform="matrix(1.00, 0.00, -0.00, -1.00, 246.4, 624.4)"> </text><text xml:space="preserve" font-family="HelveticaNeue-Light,Helvetica Neue" font-size="72.0" fill="#FEFFFE" transform="matrix(1.00, 0.00, -0.00, -1.00, 266.4, 624.4)">E</text><text xml:space="preserve" font-family="HelveticaNeue-Light,Helvetica Neue" font-size="72.0" fill="#FEFFFE" transform="matrix(1.00, 0.00, -0.00, -1.00, 309.1, 624.4)">x</text><text xml:space="preserve" font-family="HelveticaNeue-Light,Helvetica Neue" font-size="72.0" fill="#FEFFFE" transform="matrix(1.00, 0.00, -0.00, -1.00, 343.8, 624.4)">a</text><text xml:space="preserve" font-family="HelveticaNeue-Light,Helvetica Neue" font-size="72.0" fill="#FEFFFE" transform="matrix(1.00, 0.00, -0.00, -1.00, 381.1, 624.4)">m</text><text xml:space="preserve" font-family="HelveticaNeue-Light,Helvetica Neue" font-size="72.0" fill="#FEFFFE" transform="matrix(1.00, 0.00, -0.00, -1.00, 441.1, 624.4)">p</text><text xml:space="preserve" font-family="HelveticaNeue-Light,Helvetica Neue" font-size="72.0" fill="#FEFFFE" transform="matrix(1.00, 0.00, -0.00, -1.00, 482.4, 624.4)">l</text><text xml:space="preserve" font-family="HelveticaNeue-Light,Helvetica Neue" font-size="72.0" fill="#FEFFFE" transform="matrix(1.00, 0.00, -0.00, -1.00, 495.8, 624.4)">e</text><image xlink:href="../../C3CEBEEC-3563-449C-88F8-7918EA53F468/assets/4CD80D5C4BF0A277F6050B9585BEAB40.png" width="13.00" height="14.00" transform="matrix(1.00, 0.00, -0.00, -1.00, 66.0, 373.0)"></image><g><clipPath id="clip0x7f9383623eb0"><path d="M 66.0 359.7 L 78.5 359.7 L 78.5 372.3 L 66.0 372.3 Z M 66.0 359.7 "></path></clipPath><g clip-path="url(#clip0x7f9383623eb0)"><g><g><clipPath id="clip0x7f93836252c0"><path d="M 66.0 372.3 L 78.5 372.3 L 78.5 359.7 L 66.0 359.7 Z M 66.0 372.3 "></path></clipPath><g clip-path="url(#clip0x7f93836252c0)"><g><clipPath id="clip0x7f9383625a50"><path d="M 62.0 352.0 L 83.0 352.0 L 83.0 380.0 L 62.0 380.0 Z M 62.0 352.0 "></path></clipPath><g clip-path="url(#clip0x7f9383625a50)"><path d="M 78.5 369.8 C 78.5 370.3 78.3 370.9 77.7 371.4 C 77.2 372.0 76.6 372.3 76.0 372.3 C 75.7 372.3 75.3 372.1 74.7 371.8 C 73.7 371.4 72.9 371.1 72.2 371.1 C 71.5 371.1 70.7 371.4 69.8 371.8 C 69.2 372.1 68.7 372.3 68.5 372.3 C 67.9 372.3 67.3 372.0 66.8 371.4 C 66.3 370.9 66.0 370.3 66.0 369.8 C 66.0 369.5 66.1 369.0 66.4 368.4 C 66.9 367.4 67.1 366.6 67.1 366.0 C 67.1 365.3 66.9 364.5 66.4 363.5 C 66.1 362.9 66.0 362.5 66.0 362.2 C 66.0 361.6 66.3 361.0 66.8 360.5 C 67.3 360.0 67.9 359.7 68.5 359.7 C 68.7 359.7 69.2 359.8 69.8 360.1 C 70.7 360.6 71.5 360.8 72.2 360.8 C 72.9 360.8 73.7 360.6 74.7 360.1 C 75.3 359.8 75.7 359.7 76.0 359.7 C 76.6 359.7 77.2 360.0 77.7 360.5 C 78.3 361.0 78.5 361.6 78.5 362.2 C 78.5 362.5 78.4 362.9 78.1 363.5 C 77.6 364.5 77.4 365.3 77.4 366.0 C 77.4 366.6 77.6 367.4 78.1 368.4 C 78.4 369.0 78.5 369.5 78.5 369.8 " fill="#FFFFFF"></path></g></g></g></g></g></g></g><image xlink:href="../../4ED71F6C-27BC-4773-B501-194DB9D5E8F8/assets/65F96A584600CE3ACC73A30534A73E55.png" width="174.00" height="40.00" transform="matrix(1.00, 0.00, -0.00, -1.00, 99.0, 382.0)"></image><text xml:space="preserve" font-family="HelveticaNeue,Helvetica Neue" font-size="36.0" fill="#FEFFFE" transform="matrix(1.00, 0.00, -0.00, -1.00, 101.0, 354.7)">i</text><text xml:space="preserve" font-family="HelveticaNeue,Helvetica Neue" font-size="36.0" fill="#FEFFFE" transform="matrix(1.00, 0.00, -0.00, -1.00, 109.0, 354.7)">n</text><text xml:space="preserve" font-family="HelveticaNeue,Helvetica Neue" font-size="36.0" fill="#FEFFFE" transform="matrix(1.00, 0.00, -0.00, -1.00, 129.0, 354.7)">t</text><text xml:space="preserve" font-family="HelveticaNeue,Helvetica Neue" font-size="36.0" fill="#FEFFFE" transform="matrix(1.00, 0.00, -0.00, -1.00, 140.3, 354.7)"> </text><text xml:space="preserve" font-family="HelveticaNeue,Helvetica Neue" font-size="36.0" fill="#FEFFFE" transform="matrix(1.00, 0.00, -0.00, -1.00, 150.4, 354.7)">v</text><text xml:space="preserve" font-family="HelveticaNeue,Helvetica Neue" font-size="36.0" fill="#FEFFFE" transform="matrix(1.00, 0.00, -0.00, -1.00, 168.4, 354.7)">a</text><text xml:space="preserve" font-family="HelveticaNeue,Helvetica Neue" font-size="36.0" fill="#FEFFFE" transform="matrix(1.00, 0.00, -0.00, -1.00, 187.7, 354.7)">r</text><text xml:space="preserve" font-family="HelveticaNeue,Helvetica Neue" font-size="36.0" fill="#FEFFFE" transform="matrix(1.00, 0.00, -0.00, -1.00, 199.7, 354.7)"> </text><text xml:space="preserve" font-family="HelveticaNeue,Helvetica Neue" font-size="36.0" fill="#FEFFFE" transform="matrix(1.00, 0.00, -0.00, -1.00, 209.7, 354.7)">=</text><text xml:space="preserve" font-family="HelveticaNeue,Helvetica Neue" font-size="36.0" fill="#FEFFFE" transform="matrix(1.00, 0.00, -0.00, -1.00, 231.3, 354.7)"> </text><text xml:space="preserve" font-family="HelveticaNeue,Helvetica Neue" font-size="36.0" fill="#FEFFFE" transform="matrix(1.00, 0.00, -0.00, -1.00, 241.3, 354.7)">5</text><text xml:space="preserve" font-family="HelveticaNeue,Helvetica Neue" font-size="36.0" fill="#FEFFFE" transform="matrix(1.00, 0.00, -0.00, -1.00, 261.3, 354.7)">;</text><text xml:space="preserve" font-family="HelveticaNeue,Helvetica Neue" font-size="36.0" fill="#FEFFFE" transform="matrix(1.00, 0.00, -0.00, -1.00, 271.3, 354.7)"> </text><image xlink:href="../../4ED71F6C-27BC-4773-B501-194DB9D5E8F8/assets/C91D81FEA442A2709800DD315BC6B466.png" width="234.00" height="42.00" transform="matrix(1.00, 0.00, -0.00, -1.00, 99.0, 339.0)"></image><text xml:space="preserve" font-family="HelveticaNeue,Helvetica Neue" font-size="36.0" fill="#FEFFFE" transform="matrix(1.00, 0.00, -0.00, -1.00, 101.0, 311.7)">i</text><text xml:space="preserve" font-family="HelveticaNeue,Helvetica Neue" font-size="36.0" fill="#FEFFFE" transform="matrix(1.00, 0.00, -0.00, -1.00, 109.0, 311.7)">n</text><text xml:space="preserve" font-family="HelveticaNeue,Helvetica Neue" font-size="36.0" fill="#FEFFFE" transform="matrix(1.00, 0.00, -0.00, -1.00, 129.0, 311.7)">t</text><text xml:space="preserve" font-family="HelveticaNeue,Helvetica Neue" font-size="36.0" fill="#FEFFFE" transform="matrix(1.00, 0.00, -0.00, -1.00, 140.3, 311.7)"> </text><text xml:space="preserve" font-family="HelveticaNeue,Helvetica Neue" font-size="36.0" fill="#FEFFFE" transform="matrix(1.00, 0.00, -0.00, -1.00, 150.4, 311.7)">*</text><text xml:space="preserve" font-family="HelveticaNeue,Helvetica Neue" font-size="36.0" fill="#FEFFFE" transform="matrix(1.00, 0.00, -0.00, -1.00, 163.0, 311.7)">p</text><text xml:space="preserve" font-family="HelveticaNeue,Helvetica Neue" font-size="36.0" fill="#FEFFFE" transform="matrix(1.00, 0.00, -0.00, -1.00, 184.4, 311.7)">t</text><text xml:space="preserve" font-family="HelveticaNeue,Helvetica Neue" font-size="36.0" fill="#FEFFFE" transform="matrix(1.00, 0.00, -0.00, -1.00, 195.7, 311.7)">r</text><text xml:space="preserve" font-family="HelveticaNeue,Helvetica Neue" font-size="36.0" fill="#FEFFFE" transform="matrix(1.00, 0.00, -0.00, -1.00, 207.7, 311.7)"> </text><text xml:space="preserve" font-family="HelveticaNeue,Helvetica Neue" font-size="36.0" fill="#FEFFFE" transform="matrix(1.00, 0.00, -0.00, -1.00, 217.7, 311.7)">=</text><text xml:space="preserve" font-family="HelveticaNeue,Helvetica Neue" font-size="36.0" fill="#FEFFFE" transform="matrix(1.00, 0.00, -0.00, -1.00, 239.3, 311.7)"> </text><text xml:space="preserve" font-family="HelveticaNeue,Helvetica Neue" font-size="36.0" fill="#FEFFFE" transform="matrix(1.00, 0.00, -0.00, -1.00, 249.3, 311.7)">&amp;</text><text xml:space="preserve" font-family="HelveticaNeue,Helvetica Neue" font-size="36.0" fill="#FEFFFE" transform="matrix(1.00, 0.00, -0.00, -1.00, 272.0, 311.7)">v</text><text xml:space="preserve" font-family="HelveticaNeue,Helvetica Neue" font-size="36.0" fill="#FEFFFE" transform="matrix(1.00, 0.00, -0.00, -1.00, 290.0, 311.7)">a</text><text xml:space="preserve" font-family="HelveticaNeue,Helvetica Neue" font-size="36.0" fill="#FEFFFE" transform="matrix(1.00, 0.00, -0.00, -1.00, 309.3, 311.7)">r</text><text xml:space="preserve" font-family="HelveticaNeue,Helvetica Neue" font-size="36.0" fill="#FEFFFE" transform="matrix(1.00, 0.00, -0.00, -1.00, 321.3, 311.7)">;</text><text xml:space="preserve" font-family="HelveticaNeue,Helvetica Neue" font-size="36.0" fill="#FEFFFE" transform="matrix(1.00, 0.00, -0.00, -1.00, 331.3, 311.7)"> </text><g><clipPath id="clip0x7f93835d9110"><path d="M 649.0 449.0 L 823.0 449.0 L 823.0 374.0 L 649.0 374.0 Z M 649.4 448.6 "></path></clipPath><g clip-path="url(#clip0x7f93835d9110)"><image xlink:href="../../4ED71F6C-27BC-4773-B501-194DB9D5E8F8/assets/C69E2B6ADEF2E7B5632AAABD22613C20.png" width="635.00" height="635.00" transform="matrix(0.50, 0.00, -0.00, -0.50, 649.0, 449.0)"></image></g></g><image xlink:href="../../4ED71F6C-27BC-4773-B501-194DB9D5E8F8/assets/326818DDC7788406BE41497C2C386C72.png" width="137.00" height="35.00" transform="matrix(1.00, 0.00, -0.00, -1.00, 667.0, 424.0)"></image><g><clipPath id="clip0x7f93830ae030"><path d="M 638.8 372.0 L 834.0 372.0 L 834.0 448.6 L 638.8 448.6 Z M 638.8 372.0 "></path></clipPath><g clip-path="url(#clip0x7f93830ae030)"><text xml:space="preserve" font-family="HelveticaNeue-Light,Helvetica Neue" font-size="36.0" fill="#FEFFFE" transform="matrix(1.00, 0.00, -0.00, -1.00, 671.4, 397.3)">v</text><text xml:space="preserve" font-family="HelveticaNeue-Light,Helvetica Neue" font-size="36.0" fill="#FEFFFE" transform="matrix(1.00, 0.00, -0.00, -1.00, 688.1, 397.3)">a</text><text xml:space="preserve" font-family="HelveticaNeue-Light,Helvetica Neue" font-size="36.0" fill="#FEFFFE" transform="matrix(1.00, 0.00, -0.00, -1.00, 706.8, 397.3)">r</text><text xml:space="preserve" font-family="HelveticaNeue-Light,Helvetica Neue" font-size="36.0" fill="#FEFFFE" transform="matrix(1.00, 0.00, -0.00, -1.00, 718.1, 397.3)"> </text><text xml:space="preserve" font-family="HelveticaNeue-Light,Helvetica Neue" font-size="36.0" fill="#FEFFFE" transform="matrix(1.00, 0.00, -0.00, -1.00, 728.1, 397.3)">=</text><text xml:space="preserve" font-family="HelveticaNeue-Light,Helvetica Neue" font-size="36.0" fill="#FEFFFE" transform="matrix(1.00, 0.00, -0.00, -1.00, 749.7, 397.3)">=</text><text xml:space="preserve" font-family="HelveticaNeue-Light,Helvetica Neue" font-size="36.0" fill="#FEFFFE" transform="matrix(1.00, 0.00, -0.00, -1.00, 771.3, 397.3)"> </text><text xml:space="preserve" font-family="HelveticaNeue-Light,Helvetica Neue" font-size="36.0" fill="#FEFFFE" transform="matrix(1.00, 0.00, -0.00, -1.00, 781.3, 397.3)">5</text></g></g><g><clipPath id="clip0x7f93830c9090"><path d="M 592.0 267.0 L 881.0 267.0 L 881.0 193.0 L 592.0 193.0 Z M 591.7 267.0 "></path></clipPath><g clip-path="url(#clip0x7f93830c9090)"><image xlink:href="../../4ED71F6C-27BC-4773-B501-194DB9D5E8F8/assets/C69E2B6ADEF2E7B5632AAABD22613C20.png" width="635.00" height="635.00" transform="matrix(0.50, 0.00, -0.00, -0.50, 592.0, 267.0)"></image></g></g><image xlink:href="../../4ED71F6C-27BC-4773-B501-194DB9D5E8F8/assets/3E0382EB1EC924EAAC50DEB9559FE217.png" width="49.00" height="40.00" transform="matrix(1.00, 0.00, -0.00, -1.00, 713.0, 241.0)"></image><g><clipPath id="clip0x7f938317aac0"><path d="M 581.1 190.4 L 891.7 190.4 L 891.7 267.0 L 581.1 267.0 Z M 581.1 190.4 "></path></clipPath><g clip-path="url(#clip0x7f938317aac0)"><text xml:space="preserve" font-family="HelveticaNeue-Light,Helvetica Neue" font-size="36.0" fill="#FEFFFE" transform="matrix(1.00, 0.00, -0.00, -1.00, 715.1, 215.7)">p</text><text xml:space="preserve" font-family="HelveticaNeue-Light,Helvetica Neue" font-size="36.0" fill="#FEFFFE" transform="matrix(1.00, 0.00, -0.00, -1.00, 735.7, 215.7)">t</text><text xml:space="preserve" font-family="HelveticaNeue-Light,Helvetica Neue" font-size="36.0" fill="#FEFFFE" transform="matrix(1.00, 0.00, -0.00, -1.00, 746.4, 215.7)">r</text><text xml:space="preserve" font-family="HelveticaNeue-Light,Helvetica Neue" font-size="36.0" fill="#FEFFFE" transform="matrix(1.00, 0.00, -0.00, -1.00, 757.7, 215.7)"> </text></g></g><path d="M -0.0 0.1 L 99.9 0.1 L 100.0 0.1 " fill="none" stroke="#FEFFFE" stroke-width="1.00" transform="matrix(0.00, 1.00, 1.00, 0.00, 736.4, 272.0)"></path><path d="M 739.5 371.5 L 736.5 377.5 L 733.5 371.5 Z M 739.5 371.5 " fill="#FEFFFE"></path></g></svg>