<?xml version="1.0" encoding="UTF-8" standalone="no"?><svg xmlns="http://www.w3.org/2000/svg" xmlns:xlink="http://www.w3.org/1999/xlink" clip-rule="evenodd" stroke-miterlimit="10" viewBox="0 0 529 28"><desc>SVG generated by Keynote</desc><defs></defs><g transform="matrix(1.00, 0.00, -0.00, -1.00, 0.0, 28.0)"><image xlink:href="../../AD4FCAFD-89AD-4320-9234-575E85916EA5/assets/953CFE22C1D0652CB16EAC09FE8E8887.png" width="7.00" height="7.00" transform="matrix(1.00, 0.00, -0.00, -1.00, 4.0, 20.0)"></image><g><clipPath id="clip0x7f8537960fe0"><path d="M 4.0 13.6 L 10.4 13.6 L 10.4 20.0 L 4.0 20.0 Z M 4.0 13.6 "></path></clipPath><g clip-path="url(#clip0x7f8537960fe0)"><g><g><clipPath id="clip0x7f8537962b30"><path d="M 4.0 20.0 L 10.4 20.0 L 10.4 13.6 L 4.0 13.6 Z M 4.0 20.0 "></path></clipPath><g clip-path="url(#clip0x7f8537962b30)"><g><clipPath id="clip0x7f8537963290"><path d="M 0.0 6.0 L 15.0 6.0 L 15.0 27.0 L 0.0 27.0 Z M 0.0 6.0 "></path></clipPath><g clip-path="url(#clip0x7f8537963290)"><path d="M 10.4 18.7 C 10.4 19.0 10.3 19.3 10.0 19.5 C 9.7 19.8 9.4 20.0 9.1 20.0 C 9.0 20.0 8.7 19.9 8.4 19.8 C 7.9 19.5 7.5 19.4 7.2 19.4 C 6.8 19.4 6.4 19.5 5.9 19.8 C 5.6 19.9 5.4 20.0 5.3 20.0 C 5.0 20.0 4.7 19.8 4.4 19.6 C 4.1 19.3 4.0 19.0 4.0 18.7 C 4.0 18.5 4.1 18.3 4.2 18.0 C 4.4 17.5 4.5 17.1 4.5 16.8 C 4.5 16.4 4.4 16.0 4.2 15.5 C 4.1 15.2 4.0 15.0 4.0 14.8 C 4.0 14.5 4.1 14.3 4.4 14.0 C 4.7 13.7 5.0 13.6 5.3 13.6 C 5.4 13.6 5.6 13.6 5.9 13.8 C 6.4 14.0 6.8 14.1 7.2 14.1 C 7.5 14.1 7.9 14.0 8.4 13.8 C 8.7 13.6 9.0 13.6 9.1 13.6 C 9.4 13.6 9.7 13.7 10.0 14.0 C 10.3 14.3 10.4 14.5 10.4 14.8 C 10.4 15.0 10.3 15.2 10.2 15.5 C 9.9 16.0 9.8 16.4 9.8 16.8 C 9.8 17.1 9.9 17.5 10.2 18.0 C 10.3 18.3 10.4 18.5 10.4 18.7 " fill="#FFFFFF"></path></g></g></g></g></g></g></g><image xlink:href="88D52F66794CA4872CF188868534278E.png" width="510.00" height="26.00" transform="matrix(1.00, 0.00, -0.00, -1.00, 18.0, 27.0)"></image><text xml:space="preserve" font-family="HelveticaNeue,Helvetica Neue" font-size="18.4" fill="#FEFFFE" transform="matrix(1.00, 0.00, -0.00, -1.00, 21.9, 12.0)">W</text><text xml:space="preserve" font-family="HelveticaNeue,Helvetica Neue" font-size="18.4" fill="#FEFFFE" transform="matrix(1.00, 0.00, -0.00, -1.00, 38.9, 12.0)">h</text><text xml:space="preserve" font-family="HelveticaNeue,Helvetica Neue" font-size="18.4" fill="#FEFFFE" transform="matrix(1.00, 0.00, -0.00, -1.00, 49.1, 12.0)">e</text><text xml:space="preserve" font-family="HelveticaNeue,Helvetica Neue" font-size="18.4" fill="#FEFFFE" transform="matrix(1.00, 0.00, -0.00, -1.00, 58.9, 12.0)">r</text><text xml:space="preserve" font-family="HelveticaNeue,Helvetica Neue" font-size="18.4" fill="#FEFFFE" transform="matrix(1.00, 0.00, -0.00, -1.00, 64.7, 12.0)">e</text><text xml:space="preserve" font-family="HelveticaNeue,Helvetica Neue" font-size="18.4" fill="#FEFFFE" transform="matrix(1.00, 0.00, -0.00, -1.00, 74.6, 12.0)"> </text><text xml:space="preserve" font-family="HelveticaNeue,Helvetica Neue" font-size="18.4" fill="#FEFFFE" transform="matrix(1.00, 0.00, -0.00, -1.00, 79.7, 12.0)">w</text><text xml:space="preserve" font-family="HelveticaNeue,Helvetica Neue" font-size="18.4" fill="#FEFFFE" transform="matrix(1.00, 0.00, -0.00, -1.00, 93.6, 12.0)">o</text><text xml:space="preserve" font-family="HelveticaNeue,Helvetica Neue" font-size="18.4" fill="#FEFFFE" transform="matrix(1.00, 0.00, -0.00, -1.00, 104.1, 12.0)">u</text><text xml:space="preserve" font-family="HelveticaNeue,Helvetica Neue" font-size="18.4" fill="#FEFFFE" transform="matrix(1.00, 0.00, -0.00, -1.00, 114.3, 12.0)">l</text><text xml:space="preserve" font-family="HelveticaNeue,Helvetica Neue" font-size="18.4" fill="#FEFFFE" transform="matrix(1.00, 0.00, -0.00, -1.00, 118.4, 12.0)">d</text><text xml:space="preserve" font-family="HelveticaNeue,Helvetica Neue" font-size="18.4" fill="#FEFFFE" transform="matrix(1.00, 0.00, -0.00, -1.00, 129.3, 12.0)"> </text><text xml:space="preserve" font-family="HelveticaNeue,Helvetica Neue" font-size="18.4" fill="#FEFFFE" transform="matrix(1.00, 0.00, -0.00, -1.00, 134.4, 12.0)">t</text><text xml:space="preserve" font-family="HelveticaNeue,Helvetica Neue" font-size="18.4" fill="#FEFFFE" transform="matrix(1.00, 0.00, -0.00, -1.00, 140.2, 12.0)">h</text><text xml:space="preserve" font-family="HelveticaNeue,Helvetica Neue" font-size="18.4" fill="#FEFFFE" transform="matrix(1.00, 0.00, -0.00, -1.00, 150.4, 12.0)">e</text><text xml:space="preserve" font-family="HelveticaNeue,Helvetica Neue" font-size="18.4" fill="#FEFFFE" transform="matrix(1.00, 0.00, -0.00, -1.00, 160.2, 12.0)"> </text><text xml:space="preserve" font-family="HelveticaNeue,Helvetica Neue" font-size="18.4" fill="#FEFFFE" transform="matrix(1.00, 0.00, -0.00, -1.00, 165.4, 12.0)">f</text><text xml:space="preserve" font-family="HelveticaNeue,Helvetica Neue" font-size="18.4" fill="#FEFFFE" transform="matrix(1.00, 0.00, -0.00, -1.00, 170.8, 12.0)">o</text><text xml:space="preserve" font-family="HelveticaNeue,Helvetica Neue" font-size="18.4" fill="#FEFFFE" transform="matrix(1.00, 0.00, -0.00, -1.00, 181.3, 12.0)">l</text><text xml:space="preserve" font-family="HelveticaNeue,Helvetica Neue" font-size="18.4" fill="#FEFFFE" transform="matrix(1.00, 0.00, -0.00, -1.00, 185.4, 12.0)">l</text><text xml:space="preserve" font-family="HelveticaNeue,Helvetica Neue" font-size="18.4" fill="#FEFFFE" transform="matrix(1.00, 0.00, -0.00, -1.00, 189.5, 12.0)">o</text><text xml:space="preserve" font-family="HelveticaNeue,Helvetica Neue" font-size="18.4" fill="#FEFFFE" transform="matrix(1.00, 0.00, -0.00, -1.00, 200.0, 12.0)">w</text><text xml:space="preserve" font-family="HelveticaNeue,Helvetica Neue" font-size="18.4" fill="#FEFFFE" transform="matrix(1.00, 0.00, -0.00, -1.00, 213.9, 12.0)">i</text><text xml:space="preserve" font-family="HelveticaNeue,Helvetica Neue" font-size="18.4" fill="#FEFFFE" transform="matrix(1.00, 0.00, -0.00, -1.00, 218.0, 12.0)">n</text><text xml:space="preserve" font-family="HelveticaNeue,Helvetica Neue" font-size="18.4" fill="#FEFFFE" transform="matrix(1.00, 0.00, -0.00, -1.00, 228.2, 12.0)">g</text><text xml:space="preserve" font-family="HelveticaNeue,Helvetica Neue" font-size="18.4" fill="#FEFFFE" transform="matrix(1.00, 0.00, -0.00, -1.00, 238.8, 12.0)"> </text><text xml:space="preserve" font-family="HelveticaNeue,Helvetica Neue" font-size="18.4" fill="#FEFFFE" transform="matrix(1.00, 0.00, -0.00, -1.00, 243.9, 12.0)">a</text><text xml:space="preserve" font-family="HelveticaNeue,Helvetica Neue" font-size="18.4" fill="#FEFFFE" transform="matrix(1.00, 0.00, -0.00, -1.00, 253.7, 12.0)">r</text><text xml:space="preserve" font-family="HelveticaNeue,Helvetica Neue" font-size="18.4" fill="#FEFFFE" transform="matrix(1.00, 0.00, -0.00, -1.00, 259.8, 12.0)">r</text><text xml:space="preserve" font-family="HelveticaNeue,Helvetica Neue" font-size="18.4" fill="#FEFFFE" transform="matrix(1.00, 0.00, -0.00, -1.00, 265.9, 12.0)">a</text><text xml:space="preserve" font-family="HelveticaNeue,Helvetica Neue" font-size="18.4" fill="#FEFFFE" transform="matrix(1.00, 0.00, -0.00, -1.00, 275.8, 12.0)">y</text><text xml:space="preserve" font-family="HelveticaNeue,Helvetica Neue" font-size="18.4" fill="#FEFFFE" transform="matrix(1.00, 0.00, -0.00, -1.00, 285.0, 12.0)">s</text><text xml:space="preserve" font-family="HelveticaNeue,Helvetica Neue" font-size="18.4" fill="#FEFFFE" transform="matrix(1.00, 0.00, -0.00, -1.00, 294.2, 12.0)"> </text><text xml:space="preserve" font-family="HelveticaNeue,Helvetica Neue" font-size="18.4" fill="#FEFFFE" transform="matrix(1.00, 0.00, -0.00, -1.00, 299.3, 12.0)">b</text><text xml:space="preserve" font-family="HelveticaNeue,Helvetica Neue" font-size="18.4" fill="#FEFFFE" transform="matrix(1.00, 0.00, -0.00, -1.00, 310.2, 12.0)">e</text><text xml:space="preserve" font-family="HelveticaNeue,Helvetica Neue" font-size="18.4" fill="#FEFFFE" transform="matrix(1.00, 0.00, -0.00, -1.00, 320.0, 12.0)"> </text><text xml:space="preserve" font-family="HelveticaNeue,Helvetica Neue" font-size="18.4" fill="#FEFFFE" transform="matrix(1.00, 0.00, -0.00, -1.00, 325.1, 12.0)">s</text><text xml:space="preserve" font-family="HelveticaNeue,Helvetica Neue" font-size="18.4" fill="#FEFFFE" transform="matrix(1.00, 0.00, -0.00, -1.00, 334.3, 12.0)">t</text><text xml:space="preserve" font-family="HelveticaNeue,Helvetica Neue" font-size="18.4" fill="#FEFFFE" transform="matrix(1.00, 0.00, -0.00, -1.00, 340.1, 12.0)">o</text><text xml:space="preserve" font-family="HelveticaNeue,Helvetica Neue" font-size="18.4" fill="#FEFFFE" transform="matrix(1.00, 0.00, -0.00, -1.00, 350.6, 12.0)">r</text><text xml:space="preserve" font-family="HelveticaNeue,Helvetica Neue" font-size="18.4" fill="#FEFFFE" transform="matrix(1.00, 0.00, -0.00, -1.00, 356.4, 12.0)">e</text><text xml:space="preserve" font-family="HelveticaNeue,Helvetica Neue" font-size="18.4" fill="#FEFFFE" transform="matrix(1.00, 0.00, -0.00, -1.00, 366.3, 12.0)">d</text><text xml:space="preserve" font-family="HelveticaNeue,Helvetica Neue" font-size="18.4" fill="#FEFFFE" transform="matrix(1.00, 0.00, -0.00, -1.00, 377.2, 12.0)">?</text><text xml:space="preserve" font-family="HelveticaNeue,Helvetica Neue" font-size="18.4" fill="#FEFFFE" transform="matrix(1.00, 0.00, -0.00, -1.00, 387.4, 12.0)"> </text><text xml:space="preserve" font-family="HelveticaNeue,Helvetica Neue" font-size="18.4" fill="#FEFFFE" transform="matrix(1.00, 0.00, -0.00, -1.00, 392.5, 12.0)">(</text><text xml:space="preserve" font-family="HelveticaNeue,Helvetica Neue" font-size="18.4" fill="#FEFFFE" transform="matrix(1.00, 0.00, -0.00, -1.00, 397.2, 12.0)">h</text><text xml:space="preserve" font-family="HelveticaNeue,Helvetica Neue" font-size="18.4" fill="#FEFFFE" transform="matrix(1.00, 0.00, -0.00, -1.00, 407.4, 12.0)">e</text><text xml:space="preserve" font-family="HelveticaNeue,Helvetica Neue" font-size="18.4" fill="#FEFFFE" transform="matrix(1.00, 0.00, -0.00, -1.00, 417.3, 12.0)">a</text><text xml:space="preserve" font-family="HelveticaNeue,Helvetica Neue" font-size="18.4" fill="#FEFFFE" transform="matrix(1.00, 0.00, -0.00, -1.00, 427.1, 12.0)">p</text><text xml:space="preserve" font-family="HelveticaNeue,Helvetica Neue" font-size="18.4" fill="#FEFFFE" transform="matrix(1.00, 0.00, -0.00, -1.00, 438.0, 12.0)"> </text><text xml:space="preserve" font-family="HelveticaNeue,Helvetica Neue" font-size="18.4" fill="#FEFFFE" transform="matrix(1.00, 0.00, -0.00, -1.00, 443.1, 12.0)">o</text><text xml:space="preserve" font-family="HelveticaNeue,Helvetica Neue" font-size="18.4" fill="#FEFFFE" transform="matrix(1.00, 0.00, -0.00, -1.00, 453.7, 12.0)">r</text><text xml:space="preserve" font-family="HelveticaNeue,Helvetica Neue" font-size="18.4" fill="#FEFFFE" transform="matrix(1.00, 0.00, -0.00, -1.00, 459.8, 12.0)"> </text><text xml:space="preserve" font-family="HelveticaNeue,Helvetica Neue" font-size="18.4" fill="#FEFFFE" transform="matrix(1.00, 0.00, -0.00, -1.00, 464.9, 12.0)">s</text><text xml:space="preserve" font-family="HelveticaNeue,Helvetica Neue" font-size="18.4" fill="#FEFFFE" transform="matrix(1.00, 0.00, -0.00, -1.00, 474.1, 12.0)">t</text><text xml:space="preserve" font-family="HelveticaNeue,Helvetica Neue" font-size="18.4" fill="#FEFFFE" transform="matrix(1.00, 0.00, -0.00, -1.00, 479.9, 12.0)">a</text><text xml:space="preserve" font-family="HelveticaNeue,Helvetica Neue" font-size="18.4" fill="#FEFFFE" transform="matrix(1.00, 0.00, -0.00, -1.00, 489.7, 12.0)">c</text><text xml:space="preserve" font-family="HelveticaNeue,Helvetica Neue" font-size="18.4" fill="#FEFFFE" transform="matrix(1.00, 0.00, -0.00, -1.00, 499.6, 12.0)">k</text><text xml:space="preserve" font-family="HelveticaNeue,Helvetica Neue" font-size="18.4" fill="#FEFFFE" transform="matrix(1.00, 0.00, -0.00, -1.00, 509.1, 12.0)">?</text><text xml:space="preserve" font-family="HelveticaNeue,Helvetica Neue" font-size="18.4" fill="#FEFFFE" transform="matrix(1.00, 0.00, -0.00, -1.00, 519.3, 12.0)">)</text></g></svg>