<?xml version="1.0" encoding="UTF-8" standalone="no"?><svg xmlns="http://www.w3.org/2000/svg" xmlns:xlink="http://www.w3.org/1999/xlink" clip-rule="evenodd" stroke-miterlimit="10" viewBox="0 0 74 25"><desc>SVG generated by Keynote</desc><defs></defs><g transform="matrix(1.00, 0.00, -0.00, -1.00, 0.0, 25.0)"><image xlink:href="../../AD4FCAFD-89AD-4320-9234-575E85916EA5/assets/123D6FB84B3CF89C5BABFCFEE93CE8C6.png" width="7.00" height="8.00" transform="matrix(1.00, 0.00, -0.00, -1.00, 4.0, 18.0)"></image><g><clipPath id="clip0x7f85378f2750"><path d="M 4.0 10.8 L 10.4 10.8 L 10.4 17.3 L 4.0 17.3 Z M 4.0 10.8 "></path></clipPath><g clip-path="url(#clip0x7f85378f2750)"><g><g><clipPath id="clip0x7f85378f42a0"><path d="M 4.0 17.3 L 10.4 17.3 L 10.4 10.8 L 4.0 10.8 Z M 4.0 17.3 "></path></clipPath><g clip-path="url(#clip0x7f85378f42a0)"><g><clipPath id="clip0x7f85378f4a00"><path d="M 0.0 3.0 L 15.0 3.0 L 15.0 25.0 L 0.0 25.0 Z M 0.0 3.0 "></path></clipPath><g clip-path="url(#clip0x7f85378f4a00)"><path d="M 10.4 16.0 C 10.4 16.3 10.3 16.5 10.0 16.8 C 9.7 17.1 9.4 17.3 9.1 17.3 C 9.0 17.3 8.7 17.2 8.4 17.0 C 7.9 16.8 7.5 16.7 7.2 16.7 C 6.8 16.7 6.4 16.8 5.9 17.0 C 5.6 17.2 5.4 17.3 5.3 17.3 C 5.0 17.3 4.7 17.1 4.4 16.8 C 4.1 16.6 4.0 16.3 4.0 16.0 C 4.0 15.8 4.1 15.6 4.2 15.3 C 4.4 14.8 4.5 14.4 4.5 14.0 C 4.5 13.7 4.4 13.3 4.2 12.8 C 4.1 12.5 4.0 12.3 4.0 12.1 C 4.0 11.8 4.1 11.5 4.4 11.3 C 4.7 11.0 5.0 10.8 5.3 10.8 C 5.4 10.8 5.6 10.9 5.9 11.1 C 6.4 11.3 6.8 11.4 7.2 11.4 C 7.5 11.4 7.9 11.3 8.4 11.1 C 8.7 10.9 9.0 10.8 9.1 10.8 C 9.4 10.8 9.7 11.0 10.0 11.3 C 10.3 11.5 10.4 11.8 10.4 12.1 C 10.4 12.3 10.3 12.5 10.2 12.8 C 9.9 13.3 9.8 13.7 9.8 14.0 C 9.8 14.4 9.9 14.8 10.2 15.3 C 10.3 15.6 10.4 15.8 10.4 16.0 " fill="#FFFFFF"></path></g></g></g></g></g></g></g><image xlink:href="A919CCD56B9E23B51593E40C82C1A229.png" width="55.00" height="23.00" transform="matrix(1.00, 0.00, -0.00, -1.00, 18.0, 24.0)"></image><text xml:space="preserve" font-family="HelveticaNeue,Helvetica Neue" font-size="18.4" fill="#FEFFFE" transform="matrix(1.00, 0.00, -0.00, -1.00, 21.9, 9.3)">S</text><text xml:space="preserve" font-family="HelveticaNeue,Helvetica Neue" font-size="18.4" fill="#FEFFFE" transform="matrix(1.00, 0.00, -0.00, -1.00, 33.7, 9.3)">t</text><text xml:space="preserve" font-family="HelveticaNeue,Helvetica Neue" font-size="18.4" fill="#FEFFFE" transform="matrix(1.00, 0.00, -0.00, -1.00, 39.5, 9.3)">a</text><text xml:space="preserve" font-family="HelveticaNeue,Helvetica Neue" font-size="18.4" fill="#FEFFFE" transform="matrix(1.00, 0.00, -0.00, -1.00, 49.4, 9.3)">c</text><text xml:space="preserve" font-family="HelveticaNeue,Helvetica Neue" font-size="18.4" fill="#FEFFFE" transform="matrix(1.00, 0.00, -0.00, -1.00, 59.2, 9.3)">k</text></g></svg>