<?xml version="1.0" encoding="UTF-8" standalone="no"?><svg xmlns="http://www.w3.org/2000/svg" xmlns:xlink="http://www.w3.org/1999/xlink" clip-rule="evenodd" stroke-miterlimit="10" viewBox="0 0 288 29"><desc>SVG generated by Keynote</desc><defs></defs><g transform="matrix(1.00, 0.00, -0.00, -1.00, 0.0, 29.0)"><image xlink:href="../../AD4FCAFD-89AD-4320-9234-575E85916EA5/assets/B5FC44FCF4060F2EC376A18F7D8593B1.png" width="7.00" height="8.00" transform="matrix(1.00, 0.00, -0.00, -1.00, 4.0, 21.0)"></image><g><clipPath id="clip0x7f8537bc3340"><path d="M 4.0 13.5 L 10.9 13.5 L 10.9 20.4 L 4.0 20.4 Z M 4.0 13.5 "></path></clipPath><g clip-path="url(#clip0x7f8537bc3340)"><g><g><clipPath id="clip0x7f8537bc47b0"><path d="M 4.0 20.4 L 10.9 20.4 L 10.9 13.5 L 4.0 13.5 Z M 4.0 20.4 "></path></clipPath><g clip-path="url(#clip0x7f8537bc47b0)"><g><clipPath id="clip0x7f8537bc4f10"><path d="M 0.0 6.0 L 15.0 6.0 L 15.0 28.0 L 0.0 28.0 Z M 0.0 6.0 "></path></clipPath><g clip-path="url(#clip0x7f8537bc4f10)"><path d="M 10.9 19.0 C 10.9 19.3 10.7 19.6 10.4 19.9 C 10.1 20.2 9.8 20.4 9.5 20.4 C 9.3 20.4 9.1 20.3 8.8 20.1 C 8.2 19.9 7.8 19.8 7.4 19.8 C 7.0 19.8 6.6 19.9 6.1 20.1 C 5.7 20.3 5.5 20.4 5.3 20.4 C 5.0 20.4 4.7 20.2 4.4 19.9 C 4.1 19.6 4.0 19.3 4.0 19.0 C 4.0 18.8 4.1 18.6 4.2 18.2 C 4.5 17.7 4.6 17.3 4.6 16.9 C 4.6 16.6 4.5 16.1 4.2 15.6 C 4.1 15.3 4.0 15.0 4.0 14.9 C 4.0 14.5 4.1 14.2 4.4 13.9 C 4.7 13.6 5.0 13.5 5.3 13.5 C 5.5 13.5 5.7 13.6 6.1 13.7 C 6.6 14.0 7.0 14.1 7.4 14.1 C 7.8 14.1 8.2 14.0 8.8 13.7 C 9.1 13.6 9.3 13.5 9.5 13.5 C 9.8 13.5 10.1 13.6 10.4 13.9 C 10.7 14.2 10.9 14.5 10.9 14.9 C 10.9 15.0 10.8 15.3 10.6 15.6 C 10.4 16.1 10.2 16.6 10.2 16.9 C 10.2 17.3 10.4 17.7 10.6 18.2 C 10.8 18.6 10.9 18.8 10.9 19.0 " fill="#FFFFFF"></path></g></g></g></g></g></g></g><image xlink:href="185915398A17AD4F1F4ACD56C3C2B662.png" width="268.00" height="27.00" transform="matrix(1.00, 0.00, -0.00, -1.00, 19.0, 28.0)"></image><text xml:space="preserve" font-family="Monaco,Monaco" font-size="18.4" fill="#1497FC" transform="matrix(1.00, 0.00, -0.00, -1.00, 21.9, 12.0)">i</text><text xml:space="preserve" font-family="Monaco,Monaco" font-size="18.4" fill="#1497FC" transform="matrix(1.00, 0.00, -0.00, -1.00, 32.9, 12.0)">n</text><text xml:space="preserve" font-family="Monaco,Monaco" font-size="18.4" fill="#1497FC" transform="matrix(1.00, 0.00, -0.00, -1.00, 43.9, 12.0)">t</text><text xml:space="preserve" font-family="Monaco,Monaco" font-size="18.4" fill="#1497FC" transform="matrix(1.00, 0.00, -0.00, -1.00, 54.9, 12.0)"> </text><text xml:space="preserve" font-family="Monaco,Monaco" font-size="18.4" fill="#1497FC" transform="matrix(1.00, 0.00, -0.00, -1.00, 65.9, 12.0)">*</text><text xml:space="preserve" font-family="Monaco,Monaco" font-size="18.4" fill="#1497FC" transform="matrix(1.00, 0.00, -0.00, -1.00, 76.9, 12.0)">*</text><text xml:space="preserve" font-family="Monaco,Monaco" font-size="18.4" fill="#1497FC" transform="matrix(1.00, 0.00, -0.00, -1.00, 88.0, 12.0)">a</text><text xml:space="preserve" font-family="Monaco,Monaco" font-size="18.4" fill="#1497FC" transform="matrix(1.00, 0.00, -0.00, -1.00, 99.0, 12.0)">r</text><text xml:space="preserve" font-family="Monaco,Monaco" font-size="18.4" fill="#1497FC" transform="matrix(1.00, 0.00, -0.00, -1.00, 110.0, 12.0)">r</text><text xml:space="preserve" font-family="Monaco,Monaco" font-size="18.4" fill="#1497FC" transform="matrix(1.00, 0.00, -0.00, -1.00, 121.0, 12.0)"> </text><text xml:space="preserve" font-family="Monaco,Monaco" font-size="18.4" fill="#1497FC" transform="matrix(1.00, 0.00, -0.00, -1.00, 132.0, 12.0)">=</text><text xml:space="preserve" font-family="Monaco,Monaco" font-size="18.4" fill="#1497FC" transform="matrix(1.00, 0.00, -0.00, -1.00, 143.1, 12.0)"> </text><text xml:space="preserve" font-family="Monaco,Monaco" font-size="18.4" fill="#1497FC" transform="matrix(1.00, 0.00, -0.00, -1.00, 154.1, 12.0)">n</text><text xml:space="preserve" font-family="Monaco,Monaco" font-size="18.4" fill="#1497FC" transform="matrix(1.00, 0.00, -0.00, -1.00, 165.1, 12.0)">e</text><text xml:space="preserve" font-family="Monaco,Monaco" font-size="18.4" fill="#1497FC" transform="matrix(1.00, 0.00, -0.00, -1.00, 176.1, 12.0)">w</text><text xml:space="preserve" font-family="Monaco,Monaco" font-size="18.4" fill="#1497FC" transform="matrix(1.00, 0.00, -0.00, -1.00, 187.1, 12.0)"> </text><text xml:space="preserve" font-family="Monaco,Monaco" font-size="18.4" fill="#1497FC" transform="matrix(1.00, 0.00, -0.00, -1.00, 198.2, 12.0)">i</text><text xml:space="preserve" font-family="Monaco,Monaco" font-size="18.4" fill="#1497FC" transform="matrix(1.00, 0.00, -0.00, -1.00, 209.2, 12.0)">n</text><text xml:space="preserve" font-family="Monaco,Monaco" font-size="18.4" fill="#1497FC" transform="matrix(1.00, 0.00, -0.00, -1.00, 220.2, 12.0)">t</text><text xml:space="preserve" font-family="Monaco,Monaco" font-size="18.4" fill="#1497FC" transform="matrix(1.00, 0.00, -0.00, -1.00, 231.2, 12.0)">*</text><text xml:space="preserve" font-family="Monaco,Monaco" font-size="18.4" fill="#1497FC" transform="matrix(1.00, 0.00, -0.00, -1.00, 242.2, 12.0)">[</text><text xml:space="preserve" font-family="Monaco,Monaco" font-size="18.4" fill="#1497FC" transform="matrix(1.00, 0.00, -0.00, -1.00, 253.3, 12.0)">n</text><text xml:space="preserve" font-family="Monaco,Monaco" font-size="18.4" fill="#1497FC" transform="matrix(1.00, 0.00, -0.00, -1.00, 264.3, 12.0)">]</text><text xml:space="preserve" font-family="Monaco,Monaco" font-size="18.4" fill="#1497FC" transform="matrix(1.00, 0.00, -0.00, -1.00, 275.3, 12.0)">;</text></g></svg>