<?xml version="1.0" encoding="UTF-8" standalone="no"?><svg xmlns="http://www.w3.org/2000/svg" xmlns:xlink="http://www.w3.org/1999/xlink" clip-rule="evenodd" stroke-miterlimit="10" viewBox="0 0 1024 768"><desc>SVG generated by Keynote</desc><defs></defs><g transform="matrix(1.00, 0.00, -0.00, -1.00, 0.0, 768.0)"><g><clipPath id="clip0x7f8537e26610"><path d="M 0.0 768.0 L 1024.0 768.0 L 1024.0 0.0 L 0.0 0.0 Z M 0.0 768.0 "></path></clipPath><g clip-path="url(#clip0x7f8537e26610)"><image xlink:href="../../8532EDA3-03AF-4F95-ADCC-1003E38AE155/assets/7D0D479F0D8AC86C9E875656D9072873.jpeg" width="2048.00" height="1536.00" transform="matrix(0.50, 0.00, -0.00, -0.50, 0.0, 768.0)"></image></g></g><image xlink:href="../../36A268F9-306D-499B-9A43-92B4FF4F7508/assets/0A28A4AB9309263C050D18EC2092BACE.png" width="157.00" height="64.00" transform="matrix(1.00, 0.00, -0.00, -1.00, 64.0, 678.0)"></image><text xml:space="preserve" font-family="HelveticaNeue-Light,Helvetica Neue" font-size="72.0" fill="#FEFFFE" transform="matrix(1.00, 0.00, -0.00, -1.00, 66.0, 624.4)">Q</text><text xml:space="preserve" font-family="HelveticaNeue-Light,Helvetica Neue" font-size="72.0" fill="#FEFFFE" transform="matrix(1.00, 0.00, -0.00, -1.00, 119.4, 624.4)">u</text><text xml:space="preserve" font-family="HelveticaNeue-Light,Helvetica Neue" font-size="72.0" fill="#FEFFFE" transform="matrix(1.00, 0.00, -0.00, -1.00, 158.0, 624.4)">i</text><text xml:space="preserve" font-family="HelveticaNeue-Light,Helvetica Neue" font-size="72.0" fill="#FEFFFE" transform="matrix(1.00, 0.00, -0.00, -1.00, 171.3, 624.4)">z</text><text xml:space="preserve" font-family="HelveticaNeue-Light,Helvetica Neue" font-size="72.0" fill="#FEFFFE" transform="matrix(1.00, 0.00, -0.00, -1.00, 204.7, 624.4)">!</text><image xlink:href="../../AD4FCAFD-89AD-4320-9234-575E85916EA5/assets/0FAF2AD2FCE209D78F92031AC9A957D9.png" width="7.00" height="7.00" transform="matrix(1.00, 0.00, -0.00, -1.00, 66.0, 536.0)"></image><g><clipPath id="clip0x7f8537998d00"><path d="M 66.0 529.0 L 72.4 529.0 L 72.4 535.4 L 66.0 535.4 Z M 66.0 529.0 "></path></clipPath><g clip-path="url(#clip0x7f8537998d00)"><g><g><clipPath id="clip0x7f85379a0d30"><path d="M 66.0 535.4 L 72.4 535.4 L 72.4 529.0 L 66.0 529.0 Z M 66.0 535.4 "></path></clipPath><g clip-path="url(#clip0x7f85379a0d30)"><g><clipPath id="clip0x7f85379a14e0"><path d="M 62.0 522.0 L 77.0 522.0 L 77.0 543.0 L 62.0 543.0 Z M 62.0 522.0 "></path></clipPath><g clip-path="url(#clip0x7f85379a14e0)"><path d="M 72.4 534.1 C 72.4 534.4 72.3 534.7 72.0 535.0 C 71.7 535.3 71.4 535.4 71.1 535.4 C 71.0 535.4 70.7 535.3 70.4 535.2 C 69.9 535.0 69.5 534.8 69.2 534.8 C 68.8 534.8 68.4 535.0 67.9 535.2 C 67.6 535.3 67.4 535.4 67.3 535.4 C 67.0 535.4 66.7 535.3 66.4 535.0 C 66.1 534.7 66.0 534.4 66.0 534.1 C 66.0 534.0 66.1 533.7 66.2 533.4 C 66.4 533.0 66.5 532.6 66.5 532.2 C 66.5 531.9 66.4 531.4 66.2 531.0 C 66.1 530.7 66.0 530.4 66.0 530.3 C 66.0 530.0 66.1 529.7 66.4 529.4 C 66.7 529.1 67.0 529.0 67.3 529.0 C 67.4 529.0 67.6 529.1 67.9 529.2 C 68.4 529.5 68.8 529.6 69.2 529.6 C 69.5 529.6 69.9 529.5 70.4 529.2 C 70.7 529.1 71.0 529.0 71.1 529.0 C 71.4 529.0 71.7 529.1 72.0 529.4 C 72.3 529.7 72.4 530.0 72.4 530.3 C 72.4 530.4 72.3 530.7 72.2 531.0 C 71.9 531.4 71.8 531.9 71.8 532.2 C 71.8 532.6 71.9 533.0 72.2 533.4 C 72.3 533.7 72.4 534.0 72.4 534.1 " fill="#FFFFFF"></path></g></g></g></g></g></g></g><image xlink:href="../../F8A4EABC-233F-46BE-B3AB-FCAAF3AA989D/assets/1EB9E1B1F9C0ECFCBE61CC0E845A9455.png" width="353.00" height="26.00" transform="matrix(1.00, 0.00, -0.00, -1.00, 81.0, 542.0)"></image><text xml:space="preserve" font-family="HelveticaNeue,Helvetica Neue" font-size="18.4" fill="#FEFFFE" transform="matrix(1.00, 0.00, -0.00, -1.00, 83.9, 527.4)">H</text><text xml:space="preserve" font-family="HelveticaNeue,Helvetica Neue" font-size="18.4" fill="#FEFFFE" transform="matrix(1.00, 0.00, -0.00, -1.00, 97.1, 527.4)">o</text><text xml:space="preserve" font-family="HelveticaNeue,Helvetica Neue" font-size="18.4" fill="#FEFFFE" transform="matrix(1.00, 0.00, -0.00, -1.00, 107.6, 527.4)">w</text><text xml:space="preserve" font-family="HelveticaNeue,Helvetica Neue" font-size="18.4" fill="#FEFFFE" transform="matrix(1.00, 0.00, -0.00, -1.00, 121.6, 527.4)"> </text><text xml:space="preserve" font-family="HelveticaNeue,Helvetica Neue" font-size="18.4" fill="#FEFFFE" transform="matrix(1.00, 0.00, -0.00, -1.00, 126.7, 527.4)">d</text><text xml:space="preserve" font-family="HelveticaNeue,Helvetica Neue" font-size="18.4" fill="#FEFFFE" transform="matrix(1.00, 0.00, -0.00, -1.00, 137.6, 527.4)">o</text><text xml:space="preserve" font-family="HelveticaNeue,Helvetica Neue" font-size="18.4" fill="#FEFFFE" transform="matrix(1.00, 0.00, -0.00, -1.00, 148.1, 527.4)"> </text><text xml:space="preserve" font-family="HelveticaNeue,Helvetica Neue" font-size="18.4" fill="#FEFFFE" transform="matrix(1.00, 0.00, -0.00, -1.00, 153.2, 527.4)">y</text><text xml:space="preserve" font-family="HelveticaNeue,Helvetica Neue" font-size="18.4" fill="#FEFFFE" transform="matrix(1.00, 0.00, -0.00, -1.00, 162.4, 527.4)">o</text><text xml:space="preserve" font-family="HelveticaNeue,Helvetica Neue" font-size="18.4" fill="#FEFFFE" transform="matrix(1.00, 0.00, -0.00, -1.00, 172.9, 527.4)">u</text><text xml:space="preserve" font-family="HelveticaNeue,Helvetica Neue" font-size="18.4" fill="#FEFFFE" transform="matrix(1.00, 0.00, -0.00, -1.00, 183.1, 527.4)"> </text><text xml:space="preserve" font-family="HelveticaNeue,Helvetica Neue" font-size="18.4" fill="#FEFFFE" transform="matrix(1.00, 0.00, -0.00, -1.00, 188.2, 527.4)">a</text><text xml:space="preserve" font-family="HelveticaNeue,Helvetica Neue" font-size="18.4" fill="#FEFFFE" transform="matrix(1.00, 0.00, -0.00, -1.00, 198.1, 527.4)">l</text><text xml:space="preserve" font-family="HelveticaNeue,Helvetica Neue" font-size="18.4" fill="#FEFFFE" transform="matrix(1.00, 0.00, -0.00, -1.00, 202.2, 527.4)">l</text><text xml:space="preserve" font-family="HelveticaNeue,Helvetica Neue" font-size="18.4" fill="#FEFFFE" transform="matrix(1.00, 0.00, -0.00, -1.00, 206.2, 527.4)">o</text><text xml:space="preserve" font-family="HelveticaNeue,Helvetica Neue" font-size="18.4" fill="#FEFFFE" transform="matrix(1.00, 0.00, -0.00, -1.00, 216.8, 527.4)">c</text><text xml:space="preserve" font-family="HelveticaNeue,Helvetica Neue" font-size="18.4" fill="#FEFFFE" transform="matrix(1.00, 0.00, -0.00, -1.00, 226.6, 527.4)">a</text><text xml:space="preserve" font-family="HelveticaNeue,Helvetica Neue" font-size="18.4" fill="#FEFFFE" transform="matrix(1.00, 0.00, -0.00, -1.00, 236.5, 527.4)">t</text><text xml:space="preserve" font-family="HelveticaNeue,Helvetica Neue" font-size="18.4" fill="#FEFFFE" transform="matrix(1.00, 0.00, -0.00, -1.00, 242.3, 527.4)">e</text><text xml:space="preserve" font-family="HelveticaNeue,Helvetica Neue" font-size="18.4" fill="#FEFFFE" transform="matrix(1.00, 0.00, -0.00, -1.00, 252.1, 527.4)"> </text><text xml:space="preserve" font-family="HelveticaNeue,Helvetica Neue" font-size="18.4" fill="#FEFFFE" transform="matrix(1.00, 0.00, -0.00, -1.00, 257.2, 527.4)">a</text><text xml:space="preserve" font-family="HelveticaNeue,Helvetica Neue" font-size="18.4" fill="#FEFFFE" transform="matrix(1.00, 0.00, -0.00, -1.00, 267.1, 527.4)">n</text><text xml:space="preserve" font-family="HelveticaNeue,Helvetica Neue" font-size="18.4" fill="#FEFFFE" transform="matrix(1.00, 0.00, -0.00, -1.00, 277.3, 527.4)"> </text><text xml:space="preserve" font-family="HelveticaNeue,Helvetica Neue" font-size="18.4" fill="#FEFFFE" transform="matrix(1.00, 0.00, -0.00, -1.00, 282.4, 527.4)">a</text><text xml:space="preserve" font-family="HelveticaNeue,Helvetica Neue" font-size="18.4" fill="#FEFFFE" transform="matrix(1.00, 0.00, -0.00, -1.00, 292.3, 527.4)">r</text><text xml:space="preserve" font-family="HelveticaNeue,Helvetica Neue" font-size="18.4" fill="#FEFFFE" transform="matrix(1.00, 0.00, -0.00, -1.00, 298.4, 527.4)">r</text><text xml:space="preserve" font-family="HelveticaNeue,Helvetica Neue" font-size="18.4" fill="#FEFFFE" transform="matrix(1.00, 0.00, -0.00, -1.00, 304.5, 527.4)">a</text><text xml:space="preserve" font-family="HelveticaNeue,Helvetica Neue" font-size="18.4" fill="#FEFFFE" transform="matrix(1.00, 0.00, -0.00, -1.00, 314.4, 527.4)">y</text><text xml:space="preserve" font-family="HelveticaNeue,Helvetica Neue" font-size="18.4" fill="#FEFFFE" transform="matrix(1.00, 0.00, -0.00, -1.00, 323.5, 527.4)"> </text><text xml:space="preserve" font-family="HelveticaNeue,Helvetica Neue" font-size="18.4" fill="#FEFFFE" transform="matrix(1.00, 0.00, -0.00, -1.00, 328.6, 527.4)">o</text><text xml:space="preserve" font-family="HelveticaNeue,Helvetica Neue" font-size="18.4" fill="#FEFFFE" transform="matrix(1.00, 0.00, -0.00, -1.00, 339.2, 527.4)">f</text><text xml:space="preserve" font-family="HelveticaNeue,Helvetica Neue" font-size="18.4" fill="#FEFFFE" transform="matrix(1.00, 0.00, -0.00, -1.00, 344.6, 527.4)"> </text><text xml:space="preserve" font-family="HelveticaNeue,Helvetica Neue" font-size="18.4" fill="#FEFFFE" transform="matrix(1.00, 0.00, -0.00, -1.00, 349.7, 527.4)">n</text><text xml:space="preserve" font-family="HelveticaNeue,Helvetica Neue" font-size="18.4" fill="#FEFFFE" transform="matrix(1.00, 0.00, -0.00, -1.00, 359.9, 527.4)"> </text><text xml:space="preserve" font-family="HelveticaNeue,Helvetica Neue" font-size="18.4" fill="#FEFFFE" transform="matrix(1.00, 0.00, -0.00, -1.00, 365.0, 527.4)">s</text><text xml:space="preserve" font-family="HelveticaNeue,Helvetica Neue" font-size="18.4" fill="#FEFFFE" transform="matrix(1.00, 0.00, -0.00, -1.00, 374.2, 527.4)">t</text><text xml:space="preserve" font-family="HelveticaNeue,Helvetica Neue" font-size="18.4" fill="#FEFFFE" transform="matrix(1.00, 0.00, -0.00, -1.00, 380.0, 527.4)">r</text><text xml:space="preserve" font-family="HelveticaNeue,Helvetica Neue" font-size="18.4" fill="#FEFFFE" transform="matrix(1.00, 0.00, -0.00, -1.00, 386.1, 527.4)">i</text><text xml:space="preserve" font-family="HelveticaNeue,Helvetica Neue" font-size="18.4" fill="#FEFFFE" transform="matrix(1.00, 0.00, -0.00, -1.00, 390.2, 527.4)">n</text><text xml:space="preserve" font-family="HelveticaNeue,Helvetica Neue" font-size="18.4" fill="#FEFFFE" transform="matrix(1.00, 0.00, -0.00, -1.00, 400.4, 527.4)">g</text><text xml:space="preserve" font-family="HelveticaNeue,Helvetica Neue" font-size="18.4" fill="#FEFFFE" transform="matrix(1.00, 0.00, -0.00, -1.00, 410.9, 527.4)">s</text><text xml:space="preserve" font-family="HelveticaNeue,Helvetica Neue" font-size="18.4" fill="#FEFFFE" transform="matrix(1.00, 0.00, -0.00, -1.00, 420.1, 527.4)">?</text><image xlink:href="../../AD4FCAFD-89AD-4320-9234-575E85916EA5/assets/9D29EECE59062A595D5D4F6D53C6C547.png" width="7.00" height="8.00" transform="matrix(1.00, 0.00, -0.00, -1.00, 101.0, 495.0)"></image><g><clipPath id="clip0x7f8537e343e0"><path d="M 101.0 487.2 L 107.9 487.2 L 107.9 494.1 L 101.0 494.1 Z M 101.0 487.2 "></path></clipPath><g clip-path="url(#clip0x7f8537e343e0)"><g><g><clipPath id="clip0x7f8537e35800"><path d="M 101.0 494.1 L 107.9 494.1 L 107.9 487.2 L 101.0 487.2 Z M 101.0 494.1 "></path></clipPath><g clip-path="url(#clip0x7f8537e35800)"><g><clipPath id="clip0x7f8537e35fe0"><path d="M 97.0 480.0 L 112.0 480.0 L 112.0 502.0 L 97.0 502.0 Z M 97.0 480.0 "></path></clipPath><g clip-path="url(#clip0x7f8537e35fe0)"><path d="M 107.9 492.7 C 107.9 493.0 107.7 493.3 107.4 493.6 C 107.1 493.9 106.8 494.1 106.5 494.1 C 106.3 494.1 106.1 494.0 105.8 493.8 C 105.2 493.6 104.8 493.5 104.4 493.5 C 104.0 493.5 103.6 493.6 103.1 493.8 C 102.7 494.0 102.5 494.1 102.3 494.1 C 102.0 494.1 101.7 493.9 101.4 493.6 C 101.1 493.3 101.0 493.0 101.0 492.7 C 101.0 492.6 101.1 492.3 101.2 492.0 C 101.5 491.5 101.6 491.0 101.6 490.6 C 101.6 490.3 101.5 489.8 101.2 489.3 C 101.1 489.0 101.0 488.7 101.0 488.6 C 101.0 488.3 101.1 488.0 101.4 487.7 C 101.7 487.4 102.0 487.2 102.3 487.2 C 102.5 487.2 102.7 487.3 103.1 487.4 C 103.6 487.7 104.0 487.8 104.4 487.8 C 104.8 487.8 105.2 487.7 105.8 487.4 C 106.1 487.3 106.3 487.2 106.5 487.2 C 106.8 487.2 107.1 487.4 107.4 487.7 C 107.7 488.0 107.9 488.3 107.9 488.6 C 107.9 488.7 107.8 489.0 107.6 489.3 C 107.4 489.8 107.2 490.3 107.2 490.6 C 107.2 491.0 107.4 491.5 107.6 492.0 C 107.8 492.3 107.9 492.6 107.9 492.7 " fill="#FFFFFF"></path></g></g></g></g></g></g></g><image xlink:href="../../F8A4EABC-233F-46BE-B3AB-FCAAF3AA989D/assets/29DFE82A375F93AC49DC39EA5F9205A8.png" width="312.00" height="28.00" transform="matrix(1.00, 0.00, -0.00, -1.00, 116.0, 502.0)"></image><text xml:space="preserve" font-family="Monaco,Monaco" font-size="18.4" fill="#1497FC" transform="matrix(1.00, 0.00, -0.00, -1.00, 118.9, 485.8)">s</text><text xml:space="preserve" font-family="Monaco,Monaco" font-size="18.4" fill="#1497FC" transform="matrix(1.00, 0.00, -0.00, -1.00, 129.9, 485.8)">t</text><text xml:space="preserve" font-family="Monaco,Monaco" font-size="18.4" fill="#1497FC" transform="matrix(1.00, 0.00, -0.00, -1.00, 140.9, 485.8)">r</text><text xml:space="preserve" font-family="Monaco,Monaco" font-size="18.4" fill="#1497FC" transform="matrix(1.00, 0.00, -0.00, -1.00, 151.9, 485.8)">i</text><text xml:space="preserve" font-family="Monaco,Monaco" font-size="18.4" fill="#1497FC" transform="matrix(1.00, 0.00, -0.00, -1.00, 162.9, 485.8)">n</text><text xml:space="preserve" font-family="Monaco,Monaco" font-size="18.4" fill="#1497FC" transform="matrix(1.00, 0.00, -0.00, -1.00, 173.9, 485.8)">g</text><text xml:space="preserve" font-family="Monaco,Monaco" font-size="18.4" fill="#1497FC" transform="matrix(1.00, 0.00, -0.00, -1.00, 185.0, 485.8)"> </text><text xml:space="preserve" font-family="Monaco,Monaco" font-size="18.4" fill="#1497FC" transform="matrix(1.00, 0.00, -0.00, -1.00, 196.0, 485.8)">*</text><text xml:space="preserve" font-family="Monaco,Monaco" font-size="18.4" fill="#1497FC" transform="matrix(1.00, 0.00, -0.00, -1.00, 207.0, 485.8)">a</text><text xml:space="preserve" font-family="Monaco,Monaco" font-size="18.4" fill="#1497FC" transform="matrix(1.00, 0.00, -0.00, -1.00, 218.0, 485.8)">r</text><text xml:space="preserve" font-family="Monaco,Monaco" font-size="18.4" fill="#1497FC" transform="matrix(1.00, 0.00, -0.00, -1.00, 229.0, 485.8)">r</text><text xml:space="preserve" font-family="Monaco,Monaco" font-size="18.4" fill="#1497FC" transform="matrix(1.00, 0.00, -0.00, -1.00, 240.1, 485.8)"> </text><text xml:space="preserve" font-family="Monaco,Monaco" font-size="18.4" fill="#1497FC" transform="matrix(1.00, 0.00, -0.00, -1.00, 251.1, 485.8)">=</text><text xml:space="preserve" font-family="Monaco,Monaco" font-size="18.4" fill="#1497FC" transform="matrix(1.00, 0.00, -0.00, -1.00, 262.1, 485.8)"> </text><text xml:space="preserve" font-family="Monaco,Monaco" font-size="18.4" fill="#1497FC" transform="matrix(1.00, 0.00, -0.00, -1.00, 273.1, 485.8)">n</text><text xml:space="preserve" font-family="Monaco,Monaco" font-size="18.4" fill="#1497FC" transform="matrix(1.00, 0.00, -0.00, -1.00, 284.1, 485.8)">e</text><text xml:space="preserve" font-family="Monaco,Monaco" font-size="18.4" fill="#1497FC" transform="matrix(1.00, 0.00, -0.00, -1.00, 295.2, 485.8)">w</text><text xml:space="preserve" font-family="Monaco,Monaco" font-size="18.4" fill="#1497FC" transform="matrix(1.00, 0.00, -0.00, -1.00, 306.2, 485.8)"> </text><text xml:space="preserve" font-family="Monaco,Monaco" font-size="18.4" fill="#1497FC" transform="matrix(1.00, 0.00, -0.00, -1.00, 317.2, 485.8)">s</text><text xml:space="preserve" font-family="Monaco,Monaco" font-size="18.4" fill="#1497FC" transform="matrix(1.00, 0.00, -0.00, -1.00, 328.2, 485.8)">t</text><text xml:space="preserve" font-family="Monaco,Monaco" font-size="18.4" fill="#1497FC" transform="matrix(1.00, 0.00, -0.00, -1.00, 339.2, 485.8)">r</text><text xml:space="preserve" font-family="Monaco,Monaco" font-size="18.4" fill="#1497FC" transform="matrix(1.00, 0.00, -0.00, -1.00, 350.3, 485.8)">i</text><text xml:space="preserve" font-family="Monaco,Monaco" font-size="18.4" fill="#1497FC" transform="matrix(1.00, 0.00, -0.00, -1.00, 361.3, 485.8)">n</text><text xml:space="preserve" font-family="Monaco,Monaco" font-size="18.4" fill="#1497FC" transform="matrix(1.00, 0.00, -0.00, -1.00, 372.3, 485.8)">g</text><text xml:space="preserve" font-family="Monaco,Monaco" font-size="18.4" fill="#1497FC" transform="matrix(1.00, 0.00, -0.00, -1.00, 383.3, 485.8)">[</text><text xml:space="preserve" font-family="Monaco,Monaco" font-size="18.4" fill="#1497FC" transform="matrix(1.00, 0.00, -0.00, -1.00, 394.3, 485.8)">n</text><text xml:space="preserve" font-family="Monaco,Monaco" font-size="18.4" fill="#1497FC" transform="matrix(1.00, 0.00, -0.00, -1.00, 405.4, 485.8)">]</text><text xml:space="preserve" font-family="Monaco,Monaco" font-size="18.4" fill="#1497FC" transform="matrix(1.00, 0.00, -0.00, -1.00, 416.4, 485.8)">;</text><image xlink:href="../../AD4FCAFD-89AD-4320-9234-575E85916EA5/assets/CC0AB5B35EBB2AB3FE38A462BF8DBC41.png" width="7.00" height="7.00" transform="matrix(1.00, 0.00, -0.00, -1.00, 66.0, 452.0)"></image><g><clipPath id="clip0x7f852c98d250"><path d="M 66.0 445.3 L 72.4 445.3 L 72.4 451.7 L 66.0 451.7 Z M 66.0 445.3 "></path></clipPath><g clip-path="url(#clip0x7f852c98d250)"><g><g><clipPath id="clip0x7f852c98f780"><path d="M 66.0 451.7 L 72.4 451.7 L 72.4 445.3 L 66.0 445.3 Z M 66.0 451.7 "></path></clipPath><g clip-path="url(#clip0x7f852c98f780)"><g><clipPath id="clip0x7f852c98ff90"><path d="M 62.0 438.0 L 77.0 438.0 L 77.0 459.0 L 62.0 459.0 Z M 62.0 438.0 "></path></clipPath><g clip-path="url(#clip0x7f852c98ff90)"><path d="M 72.4 450.4 C 72.4 450.7 72.3 451.0 72.0 451.3 C 71.7 451.6 71.4 451.7 71.1 451.7 C 71.0 451.7 70.7 451.6 70.4 451.5 C 69.9 451.2 69.5 451.1 69.2 451.1 C 68.8 451.1 68.4 451.2 67.9 451.5 C 67.6 451.6 67.4 451.7 67.3 451.7 C 67.0 451.7 66.7 451.6 66.4 451.3 C 66.1 451.0 66.0 450.7 66.0 450.4 C 66.0 450.3 66.1 450.0 66.2 449.7 C 66.4 449.2 66.5 448.8 66.5 448.5 C 66.5 448.1 66.4 447.7 66.2 447.2 C 66.1 446.9 66.0 446.7 66.0 446.6 C 66.0 446.3 66.1 446.0 66.4 445.7 C 66.7 445.4 67.0 445.3 67.3 445.3 C 67.4 445.3 67.6 445.4 67.9 445.5 C 68.4 445.7 68.8 445.9 69.2 445.9 C 69.5 445.9 69.9 445.7 70.4 445.5 C 70.7 445.4 71.0 445.3 71.1 445.3 C 71.4 445.3 71.7 445.4 72.0 445.7 C 72.3 446.0 72.4 446.3 72.4 446.6 C 72.4 446.7 72.3 446.9 72.2 447.2 C 71.9 447.7 71.8 448.1 71.8 448.5 C 71.8 448.8 71.9 449.2 72.2 449.7 C 72.3 450.0 72.4 450.3 72.4 450.4 " fill="#FFFFFF"></path></g></g></g></g></g></g></g><image xlink:href="../../F8A4EABC-233F-46BE-B3AB-FCAAF3AA989D/assets/2E6698812A257627EF82770CBEB54C4C.png" width="324.00" height="27.00" transform="matrix(1.00, 0.00, -0.00, -1.00, 81.0, 459.0)"></image><text xml:space="preserve" font-family="HelveticaNeue,Helvetica Neue" font-size="18.4" fill="#FEFFFE" transform="matrix(1.00, 0.00, -0.00, -1.00, 83.9, 443.7)">H</text><text xml:space="preserve" font-family="HelveticaNeue,Helvetica Neue" font-size="18.4" fill="#FEFFFE" transform="matrix(1.00, 0.00, -0.00, -1.00, 97.1, 443.7)">o</text><text xml:space="preserve" font-family="HelveticaNeue,Helvetica Neue" font-size="18.4" fill="#FEFFFE" transform="matrix(1.00, 0.00, -0.00, -1.00, 107.6, 443.7)">w</text><text xml:space="preserve" font-family="HelveticaNeue,Helvetica Neue" font-size="18.4" fill="#FEFFFE" transform="matrix(1.00, 0.00, -0.00, -1.00, 121.6, 443.7)"> </text><text xml:space="preserve" font-family="HelveticaNeue,Helvetica Neue" font-size="18.4" fill="#FEFFFE" transform="matrix(1.00, 0.00, -0.00, -1.00, 126.7, 443.7)">d</text><text xml:space="preserve" font-family="HelveticaNeue,Helvetica Neue" font-size="18.4" fill="#FEFFFE" transform="matrix(1.00, 0.00, -0.00, -1.00, 137.6, 443.7)">o</text><text xml:space="preserve" font-family="HelveticaNeue,Helvetica Neue" font-size="18.4" fill="#FEFFFE" transform="matrix(1.00, 0.00, -0.00, -1.00, 148.1, 443.7)"> </text><text xml:space="preserve" font-family="HelveticaNeue,Helvetica Neue" font-size="18.4" fill="#FEFFFE" transform="matrix(1.00, 0.00, -0.00, -1.00, 153.2, 443.7)">y</text><text xml:space="preserve" font-family="HelveticaNeue,Helvetica Neue" font-size="18.4" fill="#FEFFFE" transform="matrix(1.00, 0.00, -0.00, -1.00, 162.4, 443.7)">o</text><text xml:space="preserve" font-family="HelveticaNeue,Helvetica Neue" font-size="18.4" fill="#FEFFFE" transform="matrix(1.00, 0.00, -0.00, -1.00, 172.9, 443.7)">u</text><text xml:space="preserve" font-family="HelveticaNeue,Helvetica Neue" font-size="18.4" fill="#FEFFFE" transform="matrix(1.00, 0.00, -0.00, -1.00, 183.1, 443.7)"> </text><text xml:space="preserve" font-family="HelveticaNeue,Helvetica Neue" font-size="18.4" fill="#FEFFFE" transform="matrix(1.00, 0.00, -0.00, -1.00, 188.2, 443.7)">a</text><text xml:space="preserve" font-family="HelveticaNeue,Helvetica Neue" font-size="18.4" fill="#FEFFFE" transform="matrix(1.00, 0.00, -0.00, -1.00, 198.1, 443.7)">l</text><text xml:space="preserve" font-family="HelveticaNeue,Helvetica Neue" font-size="18.4" fill="#FEFFFE" transform="matrix(1.00, 0.00, -0.00, -1.00, 202.2, 443.7)">l</text><text xml:space="preserve" font-family="HelveticaNeue,Helvetica Neue" font-size="18.4" fill="#FEFFFE" transform="matrix(1.00, 0.00, -0.00, -1.00, 206.2, 443.7)">o</text><text xml:space="preserve" font-family="HelveticaNeue,Helvetica Neue" font-size="18.4" fill="#FEFFFE" transform="matrix(1.00, 0.00, -0.00, -1.00, 216.8, 443.7)">c</text><text xml:space="preserve" font-family="HelveticaNeue,Helvetica Neue" font-size="18.4" fill="#FEFFFE" transform="matrix(1.00, 0.00, -0.00, -1.00, 226.6, 443.7)">a</text><text xml:space="preserve" font-family="HelveticaNeue,Helvetica Neue" font-size="18.4" fill="#FEFFFE" transform="matrix(1.00, 0.00, -0.00, -1.00, 236.5, 443.7)">t</text><text xml:space="preserve" font-family="HelveticaNeue,Helvetica Neue" font-size="18.4" fill="#FEFFFE" transform="matrix(1.00, 0.00, -0.00, -1.00, 242.3, 443.7)">e</text><text xml:space="preserve" font-family="HelveticaNeue,Helvetica Neue" font-size="18.4" fill="#FEFFFE" transform="matrix(1.00, 0.00, -0.00, -1.00, 252.1, 443.7)"> </text><text xml:space="preserve" font-family="HelveticaNeue,Helvetica Neue" font-size="18.4" fill="#FEFFFE" transform="matrix(1.00, 0.00, -0.00, -1.00, 257.2, 443.7)">a</text><text xml:space="preserve" font-family="HelveticaNeue,Helvetica Neue" font-size="18.4" fill="#FEFFFE" transform="matrix(1.00, 0.00, -0.00, -1.00, 267.1, 443.7)">n</text><text xml:space="preserve" font-family="HelveticaNeue,Helvetica Neue" font-size="18.4" fill="#FEFFFE" transform="matrix(1.00, 0.00, -0.00, -1.00, 277.3, 443.7)"> </text><text xml:space="preserve" font-family="HelveticaNeue,Helvetica Neue" font-size="18.4" fill="#FEFFFE" transform="matrix(1.00, 0.00, -0.00, -1.00, 282.4, 443.7)">a</text><text xml:space="preserve" font-family="HelveticaNeue,Helvetica Neue" font-size="18.4" fill="#FEFFFE" transform="matrix(1.00, 0.00, -0.00, -1.00, 292.3, 443.7)">r</text><text xml:space="preserve" font-family="HelveticaNeue,Helvetica Neue" font-size="18.4" fill="#FEFFFE" transform="matrix(1.00, 0.00, -0.00, -1.00, 298.4, 443.7)">r</text><text xml:space="preserve" font-family="HelveticaNeue,Helvetica Neue" font-size="18.4" fill="#FEFFFE" transform="matrix(1.00, 0.00, -0.00, -1.00, 304.5, 443.7)">a</text><text xml:space="preserve" font-family="HelveticaNeue,Helvetica Neue" font-size="18.4" fill="#FEFFFE" transform="matrix(1.00, 0.00, -0.00, -1.00, 314.4, 443.7)">y</text><text xml:space="preserve" font-family="HelveticaNeue,Helvetica Neue" font-size="18.4" fill="#FEFFFE" transform="matrix(1.00, 0.00, -0.00, -1.00, 323.5, 443.7)"> </text><text xml:space="preserve" font-family="HelveticaNeue,Helvetica Neue" font-size="18.4" fill="#FEFFFE" transform="matrix(1.00, 0.00, -0.00, -1.00, 328.6, 443.7)">o</text><text xml:space="preserve" font-family="HelveticaNeue,Helvetica Neue" font-size="18.4" fill="#FEFFFE" transform="matrix(1.00, 0.00, -0.00, -1.00, 339.2, 443.7)">f</text><text xml:space="preserve" font-family="HelveticaNeue,Helvetica Neue" font-size="18.4" fill="#FEFFFE" transform="matrix(1.00, 0.00, -0.00, -1.00, 344.6, 443.7)"> </text><text xml:space="preserve" font-family="HelveticaNeue,Helvetica Neue" font-size="18.4" fill="#FEFFFE" transform="matrix(1.00, 0.00, -0.00, -1.00, 349.7, 443.7)">n</text><text xml:space="preserve" font-family="HelveticaNeue,Helvetica Neue" font-size="18.4" fill="#FEFFFE" transform="matrix(1.00, 0.00, -0.00, -1.00, 359.9, 443.7)"> </text><text xml:space="preserve" font-family="HelveticaNeue,Helvetica Neue" font-size="18.4" fill="#FEFFFE" transform="matrix(1.00, 0.00, -0.00, -1.00, 365.0, 443.7)">i</text><text xml:space="preserve" font-family="HelveticaNeue,Helvetica Neue" font-size="18.4" fill="#FEFFFE" transform="matrix(1.00, 0.00, -0.00, -1.00, 369.1, 443.7)">n</text><text xml:space="preserve" font-family="HelveticaNeue,Helvetica Neue" font-size="18.4" fill="#FEFFFE" transform="matrix(1.00, 0.00, -0.00, -1.00, 379.3, 443.7)">t</text><text xml:space="preserve" font-family="HelveticaNeue,Helvetica Neue" font-size="18.4" fill="#FEFFFE" transform="matrix(1.00, 0.00, -0.00, -1.00, 385.1, 443.7)">*</text><text xml:space="preserve" font-family="HelveticaNeue,Helvetica Neue" font-size="18.4" fill="#FEFFFE" transform="matrix(1.00, 0.00, -0.00, -1.00, 391.6, 443.7)">?</text><image xlink:href="../../AD4FCAFD-89AD-4320-9234-575E85916EA5/assets/B5FC44FCF4060F2EC376A18F7D8593B1.png" width="7.00" height="8.00" transform="matrix(1.00, 0.00, -0.00, -1.00, 101.0, 411.0)"></image><g><clipPath id="clip0x7f8537d51c70"><path d="M 101.0 403.5 L 107.9 403.5 L 107.9 410.4 L 101.0 410.4 Z M 101.0 403.5 "></path></clipPath><g clip-path="url(#clip0x7f8537d51c70)"><g><g><clipPath id="clip0x7f8537d53060"><path d="M 101.0 410.4 L 107.9 410.4 L 107.9 403.5 L 101.0 403.5 Z M 101.0 410.4 "></path></clipPath><g clip-path="url(#clip0x7f8537d53060)"><g><clipPath id="clip0x7f8537d537f0"><path d="M 97.0 396.0 L 112.0 396.0 L 112.0 418.0 L 97.0 418.0 Z M 97.0 396.0 "></path></clipPath><g clip-path="url(#clip0x7f8537d537f0)"><path d="M 107.9 409.0 C 107.9 409.3 107.7 409.6 107.4 409.9 C 107.1 410.2 106.8 410.4 106.5 410.4 C 106.3 410.4 106.1 410.3 105.8 410.1 C 105.2 409.9 104.8 409.8 104.4 409.8 C 104.0 409.8 103.6 409.9 103.1 410.1 C 102.7 410.3 102.5 410.4 102.3 410.4 C 102.0 410.4 101.7 410.2 101.4 409.9 C 101.1 409.6 101.0 409.3 101.0 409.0 C 101.0 408.8 101.1 408.6 101.2 408.2 C 101.5 407.7 101.6 407.3 101.6 406.9 C 101.6 406.6 101.5 406.1 101.2 405.6 C 101.1 405.3 101.0 405.0 101.0 404.9 C 101.0 404.5 101.1 404.2 101.4 403.9 C 101.7 403.6 102.0 403.5 102.3 403.5 C 102.5 403.5 102.7 403.6 103.1 403.7 C 103.6 404.0 104.0 404.1 104.4 404.1 C 104.8 404.1 105.2 404.0 105.8 403.7 C 106.1 403.6 106.3 403.5 106.5 403.5 C 106.8 403.5 107.1 403.6 107.4 403.9 C 107.7 404.2 107.9 404.5 107.9 404.9 C 107.9 405.0 107.8 405.3 107.6 405.6 C 107.4 406.1 107.2 406.6 107.2 406.9 C 107.2 407.3 107.4 407.7 107.6 408.2 C 107.8 408.6 107.9 408.8 107.9 409.0 " fill="#FFFFFF"></path></g></g></g></g></g></g></g><image xlink:href="../../F8A4EABC-233F-46BE-B3AB-FCAAF3AA989D/assets/185915398A17AD4F1F4ACD56C3C2B662.png" width="268.00" height="27.00" transform="matrix(1.00, 0.00, -0.00, -1.00, 116.0, 418.0)"></image><text xml:space="preserve" font-family="Monaco,Monaco" font-size="18.4" fill="#1497FC" transform="matrix(1.00, 0.00, -0.00, -1.00, 118.9, 402.0)">i</text><text xml:space="preserve" font-family="Monaco,Monaco" font-size="18.4" fill="#1497FC" transform="matrix(1.00, 0.00, -0.00, -1.00, 129.9, 402.0)">n</text><text xml:space="preserve" font-family="Monaco,Monaco" font-size="18.4" fill="#1497FC" transform="matrix(1.00, 0.00, -0.00, -1.00, 140.9, 402.0)">t</text><text xml:space="preserve" font-family="Monaco,Monaco" font-size="18.4" fill="#1497FC" transform="matrix(1.00, 0.00, -0.00, -1.00, 151.9, 402.0)"> </text><text xml:space="preserve" font-family="Monaco,Monaco" font-size="18.4" fill="#1497FC" transform="matrix(1.00, 0.00, -0.00, -1.00, 162.9, 402.0)">*</text><text xml:space="preserve" font-family="Monaco,Monaco" font-size="18.4" fill="#1497FC" transform="matrix(1.00, 0.00, -0.00, -1.00, 173.9, 402.0)">*</text><text xml:space="preserve" font-family="Monaco,Monaco" font-size="18.4" fill="#1497FC" transform="matrix(1.00, 0.00, -0.00, -1.00, 185.0, 402.0)">a</text><text xml:space="preserve" font-family="Monaco,Monaco" font-size="18.4" fill="#1497FC" transform="matrix(1.00, 0.00, -0.00, -1.00, 196.0, 402.0)">r</text><text xml:space="preserve" font-family="Monaco,Monaco" font-size="18.4" fill="#1497FC" transform="matrix(1.00, 0.00, -0.00, -1.00, 207.0, 402.0)">r</text><text xml:space="preserve" font-family="Monaco,Monaco" font-size="18.4" fill="#1497FC" transform="matrix(1.00, 0.00, -0.00, -1.00, 218.0, 402.0)"> </text><text xml:space="preserve" font-family="Monaco,Monaco" font-size="18.4" fill="#1497FC" transform="matrix(1.00, 0.00, -0.00, -1.00, 229.0, 402.0)">=</text><text xml:space="preserve" font-family="Monaco,Monaco" font-size="18.4" fill="#1497FC" transform="matrix(1.00, 0.00, -0.00, -1.00, 240.1, 402.0)"> </text><text xml:space="preserve" font-family="Monaco,Monaco" font-size="18.4" fill="#1497FC" transform="matrix(1.00, 0.00, -0.00, -1.00, 251.1, 402.0)">n</text><text xml:space="preserve" font-family="Monaco,Monaco" font-size="18.4" fill="#1497FC" transform="matrix(1.00, 0.00, -0.00, -1.00, 262.1, 402.0)">e</text><text xml:space="preserve" font-family="Monaco,Monaco" font-size="18.4" fill="#1497FC" transform="matrix(1.00, 0.00, -0.00, -1.00, 273.1, 402.0)">w</text><text xml:space="preserve" font-family="Monaco,Monaco" font-size="18.4" fill="#1497FC" transform="matrix(1.00, 0.00, -0.00, -1.00, 284.1, 402.0)"> </text><text xml:space="preserve" font-family="Monaco,Monaco" font-size="18.4" fill="#1497FC" transform="matrix(1.00, 0.00, -0.00, -1.00, 295.2, 402.0)">i</text><text xml:space="preserve" font-family="Monaco,Monaco" font-size="18.4" fill="#1497FC" transform="matrix(1.00, 0.00, -0.00, -1.00, 306.2, 402.0)">n</text><text xml:space="preserve" font-family="Monaco,Monaco" font-size="18.4" fill="#1497FC" transform="matrix(1.00, 0.00, -0.00, -1.00, 317.2, 402.0)">t</text><text xml:space="preserve" font-family="Monaco,Monaco" font-size="18.4" fill="#1497FC" transform="matrix(1.00, 0.00, -0.00, -1.00, 328.2, 402.0)">*</text><text xml:space="preserve" font-family="Monaco,Monaco" font-size="18.4" fill="#1497FC" transform="matrix(1.00, 0.00, -0.00, -1.00, 339.2, 402.0)">[</text><text xml:space="preserve" font-family="Monaco,Monaco" font-size="18.4" fill="#1497FC" transform="matrix(1.00, 0.00, -0.00, -1.00, 350.3, 402.0)">n</text><text xml:space="preserve" font-family="Monaco,Monaco" font-size="18.4" fill="#1497FC" transform="matrix(1.00, 0.00, -0.00, -1.00, 361.3, 402.0)">]</text><text xml:space="preserve" font-family="Monaco,Monaco" font-size="18.4" fill="#1497FC" transform="matrix(1.00, 0.00, -0.00, -1.00, 372.3, 402.0)">;</text><image xlink:href="../../AD4FCAFD-89AD-4320-9234-575E85916EA5/assets/953CFE22C1D0652CB16EAC09FE8E8887.png" width="7.00" height="7.00" transform="matrix(1.00, 0.00, -0.00, -1.00, 66.0, 368.0)"></image><g><clipPath id="clip0x7f8537e38450"><path d="M 66.0 361.6 L 72.4 361.6 L 72.4 368.0 L 66.0 368.0 Z M 66.0 361.6 "></path></clipPath><g clip-path="url(#clip0x7f8537e38450)"><g><g><clipPath id="clip0x7f8537e39600"><path d="M 66.0 368.0 L 72.4 368.0 L 72.4 361.6 L 66.0 361.6 Z M 66.0 368.0 "></path></clipPath><g clip-path="url(#clip0x7f8537e39600)"><g><clipPath id="clip0x7f8537e39d90"><path d="M 62.0 354.0 L 77.0 354.0 L 77.0 375.0 L 62.0 375.0 Z M 62.0 354.0 "></path></clipPath><g clip-path="url(#clip0x7f8537e39d90)"><path d="M 72.4 366.7 C 72.4 367.0 72.3 367.3 72.0 367.5 C 71.7 367.8 71.4 368.0 71.1 368.0 C 71.0 368.0 70.7 367.9 70.4 367.8 C 69.9 367.5 69.5 367.4 69.2 367.4 C 68.8 367.4 68.4 367.5 67.9 367.8 C 67.6 367.9 67.4 368.0 67.3 368.0 C 67.0 368.0 66.7 367.8 66.4 367.6 C 66.1 367.3 66.0 367.0 66.0 366.7 C 66.0 366.5 66.1 366.3 66.2 366.0 C 66.4 365.5 66.5 365.1 66.5 364.8 C 66.5 364.4 66.4 364.0 66.2 363.5 C 66.1 363.2 66.0 363.0 66.0 362.8 C 66.0 362.5 66.1 362.3 66.4 362.0 C 66.7 361.7 67.0 361.6 67.3 361.6 C 67.4 361.6 67.6 361.6 67.9 361.8 C 68.4 362.0 68.8 362.1 69.2 362.1 C 69.5 362.1 69.9 362.0 70.4 361.8 C 70.7 361.6 71.0 361.6 71.1 361.6 C 71.4 361.6 71.7 361.7 72.0 362.0 C 72.3 362.3 72.4 362.5 72.4 362.8 C 72.4 363.0 72.3 363.2 72.2 363.5 C 71.9 364.0 71.8 364.4 71.8 364.8 C 71.8 365.1 71.9 365.5 72.2 366.0 C 72.3 366.3 72.4 366.5 72.4 366.7 " fill="#FFFFFF"></path></g></g></g></g></g></g></g><image xlink:href="../../F8A4EABC-233F-46BE-B3AB-FCAAF3AA989D/assets/88D52F66794CA4872CF188868534278E.png" width="510.00" height="26.00" transform="matrix(1.00, 0.00, -0.00, -1.00, 80.0, 375.0)"></image><text xml:space="preserve" font-family="HelveticaNeue,Helvetica Neue" font-size="18.4" fill="#FEFFFE" transform="matrix(1.00, 0.00, -0.00, -1.00, 83.9, 360.0)">W</text><text xml:space="preserve" font-family="HelveticaNeue,Helvetica Neue" font-size="18.4" fill="#FEFFFE" transform="matrix(1.00, 0.00, -0.00, -1.00, 100.9, 360.0)">h</text><text xml:space="preserve" font-family="HelveticaNeue,Helvetica Neue" font-size="18.4" fill="#FEFFFE" transform="matrix(1.00, 0.00, -0.00, -1.00, 111.1, 360.0)">e</text><text xml:space="preserve" font-family="HelveticaNeue,Helvetica Neue" font-size="18.4" fill="#FEFFFE" transform="matrix(1.00, 0.00, -0.00, -1.00, 120.9, 360.0)">r</text><text xml:space="preserve" font-family="HelveticaNeue,Helvetica Neue" font-size="18.4" fill="#FEFFFE" transform="matrix(1.00, 0.00, -0.00, -1.00, 126.7, 360.0)">e</text><text xml:space="preserve" font-family="HelveticaNeue,Helvetica Neue" font-size="18.4" fill="#FEFFFE" transform="matrix(1.00, 0.00, -0.00, -1.00, 136.6, 360.0)"> </text><text xml:space="preserve" font-family="HelveticaNeue,Helvetica Neue" font-size="18.4" fill="#FEFFFE" transform="matrix(1.00, 0.00, -0.00, -1.00, 141.7, 360.0)">w</text><text xml:space="preserve" font-family="HelveticaNeue,Helvetica Neue" font-size="18.4" fill="#FEFFFE" transform="matrix(1.00, 0.00, -0.00, -1.00, 155.6, 360.0)">o</text><text xml:space="preserve" font-family="HelveticaNeue,Helvetica Neue" font-size="18.4" fill="#FEFFFE" transform="matrix(1.00, 0.00, -0.00, -1.00, 166.1, 360.0)">u</text><text xml:space="preserve" font-family="HelveticaNeue,Helvetica Neue" font-size="18.4" fill="#FEFFFE" transform="matrix(1.00, 0.00, -0.00, -1.00, 176.3, 360.0)">l</text><text xml:space="preserve" font-family="HelveticaNeue,Helvetica Neue" font-size="18.4" fill="#FEFFFE" transform="matrix(1.00, 0.00, -0.00, -1.00, 180.4, 360.0)">d</text><text xml:space="preserve" font-family="HelveticaNeue,Helvetica Neue" font-size="18.4" fill="#FEFFFE" transform="matrix(1.00, 0.00, -0.00, -1.00, 191.3, 360.0)"> </text><text xml:space="preserve" font-family="HelveticaNeue,Helvetica Neue" font-size="18.4" fill="#FEFFFE" transform="matrix(1.00, 0.00, -0.00, -1.00, 196.4, 360.0)">t</text><text xml:space="preserve" font-family="HelveticaNeue,Helvetica Neue" font-size="18.4" fill="#FEFFFE" transform="matrix(1.00, 0.00, -0.00, -1.00, 202.2, 360.0)">h</text><text xml:space="preserve" font-family="HelveticaNeue,Helvetica Neue" font-size="18.4" fill="#FEFFFE" transform="matrix(1.00, 0.00, -0.00, -1.00, 212.4, 360.0)">e</text><text xml:space="preserve" font-family="HelveticaNeue,Helvetica Neue" font-size="18.4" fill="#FEFFFE" transform="matrix(1.00, 0.00, -0.00, -1.00, 222.2, 360.0)"> </text><text xml:space="preserve" font-family="HelveticaNeue,Helvetica Neue" font-size="18.4" fill="#FEFFFE" transform="matrix(1.00, 0.00, -0.00, -1.00, 227.4, 360.0)">f</text><text xml:space="preserve" font-family="HelveticaNeue,Helvetica Neue" font-size="18.4" fill="#FEFFFE" transform="matrix(1.00, 0.00, -0.00, -1.00, 232.8, 360.0)">o</text><text xml:space="preserve" font-family="HelveticaNeue,Helvetica Neue" font-size="18.4" fill="#FEFFFE" transform="matrix(1.00, 0.00, -0.00, -1.00, 243.3, 360.0)">l</text><text xml:space="preserve" font-family="HelveticaNeue,Helvetica Neue" font-size="18.4" fill="#FEFFFE" transform="matrix(1.00, 0.00, -0.00, -1.00, 247.4, 360.0)">l</text><text xml:space="preserve" font-family="HelveticaNeue,Helvetica Neue" font-size="18.4" fill="#FEFFFE" transform="matrix(1.00, 0.00, -0.00, -1.00, 251.5, 360.0)">o</text><text xml:space="preserve" font-family="HelveticaNeue,Helvetica Neue" font-size="18.4" fill="#FEFFFE" transform="matrix(1.00, 0.00, -0.00, -1.00, 262.0, 360.0)">w</text><text xml:space="preserve" font-family="HelveticaNeue,Helvetica Neue" font-size="18.4" fill="#FEFFFE" transform="matrix(1.00, 0.00, -0.00, -1.00, 275.9, 360.0)">i</text><text xml:space="preserve" font-family="HelveticaNeue,Helvetica Neue" font-size="18.4" fill="#FEFFFE" transform="matrix(1.00, 0.00, -0.00, -1.00, 280.0, 360.0)">n</text><text xml:space="preserve" font-family="HelveticaNeue,Helvetica Neue" font-size="18.4" fill="#FEFFFE" transform="matrix(1.00, 0.00, -0.00, -1.00, 290.2, 360.0)">g</text><text xml:space="preserve" font-family="HelveticaNeue,Helvetica Neue" font-size="18.4" fill="#FEFFFE" transform="matrix(1.00, 0.00, -0.00, -1.00, 300.8, 360.0)"> </text><text xml:space="preserve" font-family="HelveticaNeue,Helvetica Neue" font-size="18.4" fill="#FEFFFE" transform="matrix(1.00, 0.00, -0.00, -1.00, 305.9, 360.0)">a</text><text xml:space="preserve" font-family="HelveticaNeue,Helvetica Neue" font-size="18.4" fill="#FEFFFE" transform="matrix(1.00, 0.00, -0.00, -1.00, 315.7, 360.0)">r</text><text xml:space="preserve" font-family="HelveticaNeue,Helvetica Neue" font-size="18.4" fill="#FEFFFE" transform="matrix(1.00, 0.00, -0.00, -1.00, 321.8, 360.0)">r</text><text xml:space="preserve" font-family="HelveticaNeue,Helvetica Neue" font-size="18.4" fill="#FEFFFE" transform="matrix(1.00, 0.00, -0.00, -1.00, 327.9, 360.0)">a</text><text xml:space="preserve" font-family="HelveticaNeue,Helvetica Neue" font-size="18.4" fill="#FEFFFE" transform="matrix(1.00, 0.00, -0.00, -1.00, 337.8, 360.0)">y</text><text xml:space="preserve" font-family="HelveticaNeue,Helvetica Neue" font-size="18.4" fill="#FEFFFE" transform="matrix(1.00, 0.00, -0.00, -1.00, 347.0, 360.0)">s</text><text xml:space="preserve" font-family="HelveticaNeue,Helvetica Neue" font-size="18.4" fill="#FEFFFE" transform="matrix(1.00, 0.00, -0.00, -1.00, 356.2, 360.0)"> </text><text xml:space="preserve" font-family="HelveticaNeue,Helvetica Neue" font-size="18.4" fill="#FEFFFE" transform="matrix(1.00, 0.00, -0.00, -1.00, 361.3, 360.0)">b</text><text xml:space="preserve" font-family="HelveticaNeue,Helvetica Neue" font-size="18.4" fill="#FEFFFE" transform="matrix(1.00, 0.00, -0.00, -1.00, 372.2, 360.0)">e</text><text xml:space="preserve" font-family="HelveticaNeue,Helvetica Neue" font-size="18.4" fill="#FEFFFE" transform="matrix(1.00, 0.00, -0.00, -1.00, 382.0, 360.0)"> </text><text xml:space="preserve" font-family="HelveticaNeue,Helvetica Neue" font-size="18.4" fill="#FEFFFE" transform="matrix(1.00, 0.00, -0.00, -1.00, 387.1, 360.0)">s</text><text xml:space="preserve" font-family="HelveticaNeue,Helvetica Neue" font-size="18.4" fill="#FEFFFE" transform="matrix(1.00, 0.00, -0.00, -1.00, 396.3, 360.0)">t</text><text xml:space="preserve" font-family="HelveticaNeue,Helvetica Neue" font-size="18.4" fill="#FEFFFE" transform="matrix(1.00, 0.00, -0.00, -1.00, 402.1, 360.0)">o</text><text xml:space="preserve" font-family="HelveticaNeue,Helvetica Neue" font-size="18.4" fill="#FEFFFE" transform="matrix(1.00, 0.00, -0.00, -1.00, 412.6, 360.0)">r</text><text xml:space="preserve" font-family="HelveticaNeue,Helvetica Neue" font-size="18.4" fill="#FEFFFE" transform="matrix(1.00, 0.00, -0.00, -1.00, 418.4, 360.0)">e</text><text xml:space="preserve" font-family="HelveticaNeue,Helvetica Neue" font-size="18.4" fill="#FEFFFE" transform="matrix(1.00, 0.00, -0.00, -1.00, 428.3, 360.0)">d</text><text xml:space="preserve" font-family="HelveticaNeue,Helvetica Neue" font-size="18.4" fill="#FEFFFE" transform="matrix(1.00, 0.00, -0.00, -1.00, 439.2, 360.0)">?</text><text xml:space="preserve" font-family="HelveticaNeue,Helvetica Neue" font-size="18.4" fill="#FEFFFE" transform="matrix(1.00, 0.00, -0.00, -1.00, 449.4, 360.0)"> </text><text xml:space="preserve" font-family="HelveticaNeue,Helvetica Neue" font-size="18.4" fill="#FEFFFE" transform="matrix(1.00, 0.00, -0.00, -1.00, 454.5, 360.0)">(</text><text xml:space="preserve" font-family="HelveticaNeue,Helvetica Neue" font-size="18.4" fill="#FEFFFE" transform="matrix(1.00, 0.00, -0.00, -1.00, 459.2, 360.0)">h</text><text xml:space="preserve" font-family="HelveticaNeue,Helvetica Neue" font-size="18.4" fill="#FEFFFE" transform="matrix(1.00, 0.00, -0.00, -1.00, 469.4, 360.0)">e</text><text xml:space="preserve" font-family="HelveticaNeue,Helvetica Neue" font-size="18.4" fill="#FEFFFE" transform="matrix(1.00, 0.00, -0.00, -1.00, 479.3, 360.0)">a</text><text xml:space="preserve" font-family="HelveticaNeue,Helvetica Neue" font-size="18.4" fill="#FEFFFE" transform="matrix(1.00, 0.00, -0.00, -1.00, 489.1, 360.0)">p</text><text xml:space="preserve" font-family="HelveticaNeue,Helvetica Neue" font-size="18.4" fill="#FEFFFE" transform="matrix(1.00, 0.00, -0.00, -1.00, 500.0, 360.0)"> </text><text xml:space="preserve" font-family="HelveticaNeue,Helvetica Neue" font-size="18.4" fill="#FEFFFE" transform="matrix(1.00, 0.00, -0.00, -1.00, 505.1, 360.0)">o</text><text xml:space="preserve" font-family="HelveticaNeue,Helvetica Neue" font-size="18.4" fill="#FEFFFE" transform="matrix(1.00, 0.00, -0.00, -1.00, 515.7, 360.0)">r</text><text xml:space="preserve" font-family="HelveticaNeue,Helvetica Neue" font-size="18.4" fill="#FEFFFE" transform="matrix(1.00, 0.00, -0.00, -1.00, 521.8, 360.0)"> </text><text xml:space="preserve" font-family="HelveticaNeue,Helvetica Neue" font-size="18.4" fill="#FEFFFE" transform="matrix(1.00, 0.00, -0.00, -1.00, 526.9, 360.0)">s</text><text xml:space="preserve" font-family="HelveticaNeue,Helvetica Neue" font-size="18.4" fill="#FEFFFE" transform="matrix(1.00, 0.00, -0.00, -1.00, 536.1, 360.0)">t</text><text xml:space="preserve" font-family="HelveticaNeue,Helvetica Neue" font-size="18.4" fill="#FEFFFE" transform="matrix(1.00, 0.00, -0.00, -1.00, 541.9, 360.0)">a</text><text xml:space="preserve" font-family="HelveticaNeue,Helvetica Neue" font-size="18.4" fill="#FEFFFE" transform="matrix(1.00, 0.00, -0.00, -1.00, 551.7, 360.0)">c</text><text xml:space="preserve" font-family="HelveticaNeue,Helvetica Neue" font-size="18.4" fill="#FEFFFE" transform="matrix(1.00, 0.00, -0.00, -1.00, 561.6, 360.0)">k</text><text xml:space="preserve" font-family="HelveticaNeue,Helvetica Neue" font-size="18.4" fill="#FEFFFE" transform="matrix(1.00, 0.00, -0.00, -1.00, 571.1, 360.0)">?</text><text xml:space="preserve" font-family="HelveticaNeue,Helvetica Neue" font-size="18.4" fill="#FEFFFE" transform="matrix(1.00, 0.00, -0.00, -1.00, 581.3, 360.0)">)</text><image xlink:href="../../AD4FCAFD-89AD-4320-9234-575E85916EA5/assets/BD5C6AFBAD6371598AD0A527C5F75EB0.png" width="7.00" height="8.00" transform="matrix(1.00, 0.00, -0.00, -1.00, 101.0, 327.0)"></image><g><clipPath id="clip0x7f8537c679e0"><path d="M 101.0 319.8 L 107.9 319.8 L 107.9 326.7 L 101.0 326.7 Z M 101.0 319.8 "></path></clipPath><g clip-path="url(#clip0x7f8537c679e0)"><g><g><clipPath id="clip0x7f8537c68e00"><path d="M 101.0 326.7 L 107.9 326.7 L 107.9 319.8 L 101.0 319.8 Z M 101.0 326.7 "></path></clipPath><g clip-path="url(#clip0x7f8537c68e00)"><g><clipPath id="clip0x7f8537c69590"><path d="M 97.0 312.0 L 112.0 312.0 L 112.0 334.0 L 97.0 334.0 Z M 97.0 312.0 "></path></clipPath><g clip-path="url(#clip0x7f8537c69590)"><path d="M 107.9 325.3 C 107.9 325.6 107.7 325.9 107.4 326.2 C 107.1 326.5 106.8 326.7 106.5 326.7 C 106.3 326.7 106.1 326.6 105.8 326.4 C 105.2 326.2 104.8 326.0 104.4 326.0 C 104.0 326.0 103.6 326.2 103.1 326.4 C 102.7 326.6 102.5 326.7 102.3 326.7 C 102.0 326.7 101.7 326.5 101.4 326.2 C 101.1 325.9 101.0 325.6 101.0 325.3 C 101.0 325.1 101.1 324.9 101.2 324.5 C 101.5 324.0 101.6 323.6 101.6 323.2 C 101.6 322.8 101.5 322.4 101.2 321.9 C 101.1 321.5 101.0 321.3 101.0 321.1 C 101.0 320.8 101.1 320.5 101.4 320.2 C 101.7 319.9 102.0 319.8 102.3 319.8 C 102.5 319.8 102.7 319.8 103.1 320.0 C 103.6 320.3 104.0 320.4 104.4 320.4 C 104.8 320.4 105.2 320.3 105.8 320.0 C 106.1 319.8 106.3 319.8 106.5 319.8 C 106.8 319.8 107.1 319.9 107.4 320.2 C 107.7 320.5 107.9 320.8 107.9 321.1 C 107.9 321.3 107.8 321.5 107.6 321.9 C 107.4 322.4 107.2 322.8 107.2 323.2 C 107.2 323.6 107.4 324.0 107.6 324.5 C 107.8 324.9 107.9 325.1 107.9 325.3 " fill="#FFFFFF"></path></g></g></g></g></g></g></g><image xlink:href="../../F8A4EABC-233F-46BE-B3AB-FCAAF3AA989D/assets/D62ED2A70C76F7DB2455D1BE6685285F.png" width="125.00" height="28.00" transform="matrix(1.00, 0.00, -0.00, -1.00, 116.0, 335.0)"></image><text xml:space="preserve" font-family="Monaco,Monaco" font-size="18.4" fill="#1497FC" transform="matrix(1.00, 0.00, -0.00, -1.00, 118.9, 318.3)">i</text><text xml:space="preserve" font-family="Monaco,Monaco" font-size="18.4" fill="#1497FC" transform="matrix(1.00, 0.00, -0.00, -1.00, 129.9, 318.3)">n</text><text xml:space="preserve" font-family="Monaco,Monaco" font-size="18.4" fill="#1497FC" transform="matrix(1.00, 0.00, -0.00, -1.00, 140.9, 318.3)">t</text><text xml:space="preserve" font-family="Monaco,Monaco" font-size="18.4" fill="#1497FC" transform="matrix(1.00, 0.00, -0.00, -1.00, 151.9, 318.3)"> </text><text xml:space="preserve" font-family="Monaco,Monaco" font-size="18.4" fill="#1497FC" transform="matrix(1.00, 0.00, -0.00, -1.00, 162.9, 318.3)">a</text><text xml:space="preserve" font-family="Monaco,Monaco" font-size="18.4" fill="#1497FC" transform="matrix(1.00, 0.00, -0.00, -1.00, 173.9, 318.3)">r</text><text xml:space="preserve" font-family="Monaco,Monaco" font-size="18.4" fill="#1497FC" transform="matrix(1.00, 0.00, -0.00, -1.00, 185.0, 318.3)">r</text><text xml:space="preserve" font-family="Monaco,Monaco" font-size="18.4" fill="#1497FC" transform="matrix(1.00, 0.00, -0.00, -1.00, 196.0, 318.3)">[</text><text xml:space="preserve" font-family="Monaco,Monaco" font-size="18.4" fill="#1497FC" transform="matrix(1.00, 0.00, -0.00, -1.00, 207.0, 318.3)">5</text><text xml:space="preserve" font-family="Monaco,Monaco" font-size="18.4" fill="#1497FC" transform="matrix(1.00, 0.00, -0.00, -1.00, 218.0, 318.3)">]</text><text xml:space="preserve" font-family="Monaco,Monaco" font-size="18.4" fill="#1497FC" transform="matrix(1.00, 0.00, -0.00, -1.00, 229.0, 318.3)">;</text><image xlink:href="../../AD4FCAFD-89AD-4320-9234-575E85916EA5/assets/123D6FB84B3CF89C5BABFCFEE93CE8C6.png" width="7.00" height="8.00" transform="matrix(1.00, 0.00, -0.00, -1.00, 136.0, 285.0)"></image><g><clipPath id="clip0x7f8537c71e40"><path d="M 136.0 277.8 L 142.4 277.8 L 142.4 284.3 L 136.0 284.3 Z M 136.0 277.8 "></path></clipPath><g clip-path="url(#clip0x7f8537c71e40)"><g><g><clipPath id="clip0x7f8537c73260"><path d="M 136.0 284.3 L 142.4 284.3 L 142.4 277.8 L 136.0 277.8 Z M 136.0 284.3 "></path></clipPath><g clip-path="url(#clip0x7f8537c73260)"><g><clipPath id="clip0x7f8537c73b40"><path d="M 132.0 270.0 L 147.0 270.0 L 147.0 292.0 L 132.0 292.0 Z M 132.0 270.0 "></path></clipPath><g clip-path="url(#clip0x7f8537c73b40)"><path d="M 142.4 283.0 C 142.4 283.3 142.3 283.5 142.0 283.8 C 141.7 284.1 141.4 284.3 141.1 284.3 C 141.0 284.3 140.7 284.2 140.4 284.0 C 139.9 283.8 139.5 283.7 139.2 283.7 C 138.8 283.7 138.4 283.8 137.9 284.0 C 137.6 284.2 137.4 284.3 137.3 284.3 C 137.0 284.3 136.7 284.1 136.4 283.8 C 136.1 283.6 136.0 283.3 136.0 283.0 C 136.0 282.8 136.1 282.6 136.2 282.3 C 136.4 281.8 136.5 281.4 136.5 281.0 C 136.5 280.7 136.4 280.3 136.2 279.8 C 136.1 279.5 136.0 279.3 136.0 279.1 C 136.0 278.8 136.1 278.5 136.4 278.3 C 136.7 278.0 137.0 277.8 137.3 277.8 C 137.4 277.8 137.6 277.9 137.9 278.1 C 138.4 278.3 138.8 278.4 139.2 278.4 C 139.5 278.4 139.9 278.3 140.4 278.1 C 140.7 277.9 141.0 277.8 141.1 277.8 C 141.4 277.8 141.7 278.0 142.0 278.3 C 142.3 278.5 142.4 278.8 142.4 279.1 C 142.4 279.3 142.3 279.5 142.2 279.8 C 141.9 280.3 141.8 280.7 141.8 281.0 C 141.8 281.4 141.9 281.8 142.2 282.3 C 142.3 282.6 142.4 282.8 142.4 283.0 " fill="#FFFFFF"></path></g></g></g></g></g></g></g><image xlink:href="../../F8A4EABC-233F-46BE-B3AB-FCAAF3AA989D/assets/A919CCD56B9E23B51593E40C82C1A229.png" width="55.00" height="23.00" transform="matrix(1.00, 0.00, -0.00, -1.00, 150.0, 291.0)"></image><text xml:space="preserve" font-family="HelveticaNeue,Helvetica Neue" font-size="18.4" fill="#FEFFFE" transform="matrix(1.00, 0.00, -0.00, -1.00, 153.8, 276.3)">S</text><text xml:space="preserve" font-family="HelveticaNeue,Helvetica Neue" font-size="18.4" fill="#FEFFFE" transform="matrix(1.00, 0.00, -0.00, -1.00, 165.7, 276.3)">t</text><text xml:space="preserve" font-family="HelveticaNeue,Helvetica Neue" font-size="18.4" fill="#FEFFFE" transform="matrix(1.00, 0.00, -0.00, -1.00, 171.5, 276.3)">a</text><text xml:space="preserve" font-family="HelveticaNeue,Helvetica Neue" font-size="18.4" fill="#FEFFFE" transform="matrix(1.00, 0.00, -0.00, -1.00, 181.4, 276.3)">c</text><text xml:space="preserve" font-family="HelveticaNeue,Helvetica Neue" font-size="18.4" fill="#FEFFFE" transform="matrix(1.00, 0.00, -0.00, -1.00, 191.2, 276.3)">k</text><image xlink:href="../../AD4FCAFD-89AD-4320-9234-575E85916EA5/assets/4A416A9759AEEF738C35774AAB678904.png" width="7.00" height="7.00" transform="matrix(1.00, 0.00, -0.00, -1.00, 101.0, 243.0)"></image><g><clipPath id="clip0x7f85379a3c30"><path d="M 101.0 236.0 L 107.9 236.0 L 107.9 242.9 L 101.0 242.9 Z M 101.0 236.0 "></path></clipPath><g clip-path="url(#clip0x7f85379a3c30)"><g><g><clipPath id="clip0x7f8537c78690"><path d="M 101.0 242.9 L 107.9 242.9 L 107.9 236.0 L 101.0 236.0 Z M 101.0 242.9 "></path></clipPath><g clip-path="url(#clip0x7f8537c78690)"><g><clipPath id="clip0x7f8537c78e00"><path d="M 97.0 229.0 L 112.0 229.0 L 112.0 250.0 L 97.0 250.0 Z M 97.0 229.0 "></path></clipPath><g clip-path="url(#clip0x7f8537c78e00)"><path d="M 107.9 241.6 C 107.9 241.9 107.7 242.2 107.4 242.5 C 107.1 242.8 106.8 242.9 106.5 242.9 C 106.3 242.9 106.1 242.9 105.8 242.7 C 105.2 242.4 104.8 242.3 104.4 242.3 C 104.0 242.3 103.6 242.4 103.1 242.7 C 102.7 242.9 102.5 242.9 102.3 242.9 C 102.0 242.9 101.7 242.8 101.4 242.5 C 101.1 242.2 101.0 241.9 101.0 241.6 C 101.0 241.4 101.1 241.1 101.2 240.8 C 101.5 240.3 101.6 239.9 101.6 239.5 C 101.6 239.1 101.5 238.7 101.2 238.1 C 101.1 237.8 101.0 237.6 101.0 237.4 C 101.0 237.1 101.1 236.8 101.4 236.5 C 101.7 236.2 102.0 236.0 102.3 236.0 C 102.5 236.0 102.7 236.1 103.1 236.3 C 103.6 236.5 104.0 236.7 104.4 236.7 C 104.8 236.7 105.2 236.5 105.8 236.3 C 106.1 236.1 106.3 236.0 106.5 236.0 C 106.8 236.0 107.1 236.2 107.4 236.5 C 107.7 236.8 107.9 237.1 107.9 237.4 C 107.9 237.6 107.8 237.8 107.6 238.1 C 107.4 238.7 107.2 239.1 107.2 239.5 C 107.2 239.9 107.4 240.3 107.6 240.8 C 107.8 241.1 107.9 241.4 107.9 241.6 " fill="#FFFFFF"></path></g></g></g></g></g></g></g><image xlink:href="../../F8A4EABC-233F-46BE-B3AB-FCAAF3AA989D/assets/67AD81552D8566B5602BD3AE9C87404B.png" width="147.00" height="28.00" transform="matrix(1.00, 0.00, -0.00, -1.00, 116.0, 251.0)"></image><text xml:space="preserve" font-family="Monaco,Monaco" font-size="18.4" fill="#1497FC" transform="matrix(1.00, 0.00, -0.00, -1.00, 118.9, 234.6)">i</text><text xml:space="preserve" font-family="Monaco,Monaco" font-size="18.4" fill="#1497FC" transform="matrix(1.00, 0.00, -0.00, -1.00, 129.9, 234.6)">n</text><text xml:space="preserve" font-family="Monaco,Monaco" font-size="18.4" fill="#1497FC" transform="matrix(1.00, 0.00, -0.00, -1.00, 140.9, 234.6)">t</text><text xml:space="preserve" font-family="Monaco,Monaco" font-size="18.4" fill="#1497FC" transform="matrix(1.00, 0.00, -0.00, -1.00, 151.9, 234.6)"> </text><text xml:space="preserve" font-family="Monaco,Monaco" font-size="18.4" fill="#1497FC" transform="matrix(1.00, 0.00, -0.00, -1.00, 162.9, 234.6)">*</text><text xml:space="preserve" font-family="Monaco,Monaco" font-size="18.4" fill="#1497FC" transform="matrix(1.00, 0.00, -0.00, -1.00, 173.9, 234.6)">a</text><text xml:space="preserve" font-family="Monaco,Monaco" font-size="18.4" fill="#1497FC" transform="matrix(1.00, 0.00, -0.00, -1.00, 185.0, 234.6)">r</text><text xml:space="preserve" font-family="Monaco,Monaco" font-size="18.4" fill="#1497FC" transform="matrix(1.00, 0.00, -0.00, -1.00, 196.0, 234.6)">r</text><text xml:space="preserve" font-family="Monaco,Monaco" font-size="18.4" fill="#1497FC" transform="matrix(1.00, 0.00, -0.00, -1.00, 207.0, 234.6)">[</text><text xml:space="preserve" font-family="Monaco,Monaco" font-size="18.4" fill="#1497FC" transform="matrix(1.00, 0.00, -0.00, -1.00, 218.0, 234.6)">1</text><text xml:space="preserve" font-family="Monaco,Monaco" font-size="18.4" fill="#1497FC" transform="matrix(1.00, 0.00, -0.00, -1.00, 229.0, 234.6)">0</text><text xml:space="preserve" font-family="Monaco,Monaco" font-size="18.4" fill="#1497FC" transform="matrix(1.00, 0.00, -0.00, -1.00, 240.1, 234.6)">]</text><text xml:space="preserve" font-family="Monaco,Monaco" font-size="18.4" fill="#1497FC" transform="matrix(1.00, 0.00, -0.00, -1.00, 251.1, 234.6)">;</text><image xlink:href="../../AD4FCAFD-89AD-4320-9234-575E85916EA5/assets/CD1E9DC0512BE53E6FB1C220F70941D6.png" width="7.00" height="7.00" transform="matrix(1.00, 0.00, -0.00, -1.00, 136.0, 201.0)"></image><g><clipPath id="clip0x7f852c8832f0"><path d="M 136.0 194.1 L 142.4 194.1 L 142.4 200.5 L 136.0 200.5 Z M 136.0 194.1 "></path></clipPath><g clip-path="url(#clip0x7f852c8832f0)"><g><g><clipPath id="clip0x7f852c885080"><path d="M 136.0 200.5 L 142.4 200.5 L 142.4 194.1 L 136.0 194.1 Z M 136.0 200.5 "></path></clipPath><g clip-path="url(#clip0x7f852c885080)"><g><clipPath id="clip0x7f852c885810"><path d="M 132.0 187.0 L 147.0 187.0 L 147.0 208.0 L 132.0 208.0 Z M 132.0 187.0 "></path></clipPath><g clip-path="url(#clip0x7f852c885810)"><path d="M 142.4 199.3 C 142.4 199.5 142.3 199.8 142.0 200.1 C 141.7 200.4 141.4 200.5 141.1 200.5 C 141.0 200.5 140.7 200.5 140.4 200.3 C 139.9 200.1 139.5 200.0 139.2 200.0 C 138.8 200.0 138.4 200.1 137.9 200.3 C 137.6 200.5 137.4 200.5 137.3 200.5 C 137.0 200.5 136.7 200.4 136.4 200.1 C 136.1 199.8 136.0 199.6 136.0 199.3 C 136.0 199.1 136.1 198.9 136.2 198.5 C 136.4 198.1 136.5 197.7 136.5 197.3 C 136.5 197.0 136.4 196.6 136.2 196.1 C 136.1 195.8 136.0 195.6 136.0 195.4 C 136.0 195.1 136.1 194.8 136.4 194.5 C 136.7 194.3 137.0 194.1 137.3 194.1 C 137.4 194.1 137.6 194.2 137.9 194.3 C 138.4 194.6 138.8 194.7 139.2 194.7 C 139.5 194.7 139.9 194.6 140.4 194.3 C 140.7 194.2 141.0 194.1 141.1 194.1 C 141.4 194.1 141.7 194.3 142.0 194.5 C 142.3 194.8 142.4 195.1 142.4 195.4 C 142.4 195.6 142.3 195.8 142.2 196.1 C 141.9 196.6 141.8 197.0 141.8 197.3 C 141.8 197.7 141.9 198.1 142.2 198.5 C 142.3 198.9 142.4 199.1 142.4 199.3 " fill="#FFFFFF"></path></g></g></g></g></g></g></g><image xlink:href="../../F8A4EABC-233F-46BE-B3AB-FCAAF3AA989D/assets/2BD16C4068F0FA165BCD0F24A9A677A7.png" width="55.00" height="22.00" transform="matrix(1.00, 0.00, -0.00, -1.00, 150.0, 207.0)"></image><text xml:space="preserve" font-family="HelveticaNeue,Helvetica Neue" font-size="18.4" fill="#FEFFFE" transform="matrix(1.00, 0.00, -0.00, -1.00, 153.8, 192.5)">S</text><text xml:space="preserve" font-family="HelveticaNeue,Helvetica Neue" font-size="18.4" fill="#FEFFFE" transform="matrix(1.00, 0.00, -0.00, -1.00, 165.7, 192.5)">t</text><text xml:space="preserve" font-family="HelveticaNeue,Helvetica Neue" font-size="18.4" fill="#FEFFFE" transform="matrix(1.00, 0.00, -0.00, -1.00, 171.5, 192.5)">a</text><text xml:space="preserve" font-family="HelveticaNeue,Helvetica Neue" font-size="18.4" fill="#FEFFFE" transform="matrix(1.00, 0.00, -0.00, -1.00, 181.4, 192.5)">c</text><text xml:space="preserve" font-family="HelveticaNeue,Helvetica Neue" font-size="18.4" fill="#FEFFFE" transform="matrix(1.00, 0.00, -0.00, -1.00, 191.2, 192.5)">k</text><image xlink:href="../../AD4FCAFD-89AD-4320-9234-575E85916EA5/assets/62C5DB98E6A6C16D664F5772840D1E37.png" width="7.00" height="8.00" transform="matrix(1.00, 0.00, -0.00, -1.00, 101.0, 160.0)"></image><g><clipPath id="clip0x7f852c88b440"><path d="M 101.0 152.3 L 107.9 152.3 L 107.9 159.2 L 101.0 159.2 Z M 101.0 152.3 "></path></clipPath><g clip-path="url(#clip0x7f852c88b440)"><g><g><clipPath id="clip0x7f852c88cff0"><path d="M 101.0 159.2 L 107.9 159.2 L 107.9 152.3 L 101.0 152.3 Z M 101.0 159.2 "></path></clipPath><g clip-path="url(#clip0x7f852c88cff0)"><g><clipPath id="clip0x7f852c88d780"><path d="M 97.0 145.0 L 112.0 145.0 L 112.0 167.0 L 97.0 167.0 Z M 97.0 145.0 "></path></clipPath><g clip-path="url(#clip0x7f852c88d780)"><path d="M 107.9 157.8 C 107.9 158.1 107.7 158.4 107.4 158.7 C 107.1 159.1 106.8 159.2 106.5 159.2 C 106.3 159.2 106.1 159.1 105.8 159.0 C 105.2 158.7 104.8 158.6 104.4 158.6 C 104.0 158.6 103.6 158.7 103.1 159.0 C 102.7 159.1 102.5 159.2 102.3 159.2 C 102.0 159.2 101.7 159.1 101.4 158.8 C 101.1 158.5 101.0 158.2 101.0 157.8 C 101.0 157.7 101.1 157.4 101.2 157.1 C 101.5 156.6 101.6 156.1 101.6 155.8 C 101.6 155.4 101.5 155.0 101.2 154.4 C 101.1 154.1 101.0 153.9 101.0 153.7 C 101.0 153.4 101.1 153.1 101.4 152.8 C 101.7 152.5 102.0 152.3 102.3 152.3 C 102.5 152.3 102.7 152.4 103.1 152.6 C 103.6 152.8 104.0 152.9 104.4 152.9 C 104.8 152.9 105.2 152.8 105.8 152.6 C 106.1 152.4 106.3 152.3 106.5 152.3 C 106.8 152.3 107.1 152.5 107.4 152.8 C 107.7 153.1 107.9 153.4 107.9 153.7 C 107.9 153.9 107.8 154.1 107.6 154.4 C 107.4 155.0 107.2 155.4 107.2 155.8 C 107.2 156.1 107.4 156.6 107.6 157.1 C 107.8 157.4 107.9 157.7 107.9 157.8 " fill="#FFFFFF"></path></g></g></g></g></g></g></g><image xlink:href="../../F8A4EABC-233F-46BE-B3AB-FCAAF3AA989D/assets/BAF5F1F4478CD4B0765181C7A2DCC06B.png" width="257.00" height="28.00" transform="matrix(1.00, 0.00, -0.00, -1.00, 116.0, 167.0)"></image><text xml:space="preserve" font-family="Monaco,Monaco" font-size="18.4" fill="#1497FC" transform="matrix(1.00, 0.00, -0.00, -1.00, 118.9, 150.9)">i</text><text xml:space="preserve" font-family="Monaco,Monaco" font-size="18.4" fill="#1497FC" transform="matrix(1.00, 0.00, -0.00, -1.00, 129.9, 150.9)">n</text><text xml:space="preserve" font-family="Monaco,Monaco" font-size="18.4" fill="#1497FC" transform="matrix(1.00, 0.00, -0.00, -1.00, 140.9, 150.9)">t</text><text xml:space="preserve" font-family="Monaco,Monaco" font-size="18.4" fill="#1497FC" transform="matrix(1.00, 0.00, -0.00, -1.00, 151.9, 150.9)"> </text><text xml:space="preserve" font-family="Monaco,Monaco" font-size="18.4" fill="#1497FC" transform="matrix(1.00, 0.00, -0.00, -1.00, 162.9, 150.9)">*</text><text xml:space="preserve" font-family="Monaco,Monaco" font-size="18.4" fill="#1497FC" transform="matrix(1.00, 0.00, -0.00, -1.00, 173.9, 150.9)">a</text><text xml:space="preserve" font-family="Monaco,Monaco" font-size="18.4" fill="#1497FC" transform="matrix(1.00, 0.00, -0.00, -1.00, 185.0, 150.9)">r</text><text xml:space="preserve" font-family="Monaco,Monaco" font-size="18.4" fill="#1497FC" transform="matrix(1.00, 0.00, -0.00, -1.00, 196.0, 150.9)">r</text><text xml:space="preserve" font-family="Monaco,Monaco" font-size="18.4" fill="#1497FC" transform="matrix(1.00, 0.00, -0.00, -1.00, 207.0, 150.9)"> </text><text xml:space="preserve" font-family="Monaco,Monaco" font-size="18.4" fill="#1497FC" transform="matrix(1.00, 0.00, -0.00, -1.00, 218.0, 150.9)">=</text><text xml:space="preserve" font-family="Monaco,Monaco" font-size="18.4" fill="#1497FC" transform="matrix(1.00, 0.00, -0.00, -1.00, 229.0, 150.9)"> </text><text xml:space="preserve" font-family="Monaco,Monaco" font-size="18.4" fill="#1497FC" transform="matrix(1.00, 0.00, -0.00, -1.00, 240.1, 150.9)">n</text><text xml:space="preserve" font-family="Monaco,Monaco" font-size="18.4" fill="#1497FC" transform="matrix(1.00, 0.00, -0.00, -1.00, 251.1, 150.9)">e</text><text xml:space="preserve" font-family="Monaco,Monaco" font-size="18.4" fill="#1497FC" transform="matrix(1.00, 0.00, -0.00, -1.00, 262.1, 150.9)">w</text><text xml:space="preserve" font-family="Monaco,Monaco" font-size="18.4" fill="#1497FC" transform="matrix(1.00, 0.00, -0.00, -1.00, 273.1, 150.9)"> </text><text xml:space="preserve" font-family="Monaco,Monaco" font-size="18.4" fill="#1497FC" transform="matrix(1.00, 0.00, -0.00, -1.00, 284.1, 150.9)">i</text><text xml:space="preserve" font-family="Monaco,Monaco" font-size="18.4" fill="#1497FC" transform="matrix(1.00, 0.00, -0.00, -1.00, 295.2, 150.9)">n</text><text xml:space="preserve" font-family="Monaco,Monaco" font-size="18.4" fill="#1497FC" transform="matrix(1.00, 0.00, -0.00, -1.00, 306.2, 150.9)">t</text><text xml:space="preserve" font-family="Monaco,Monaco" font-size="18.4" fill="#1497FC" transform="matrix(1.00, 0.00, -0.00, -1.00, 317.2, 150.9)">[</text><text xml:space="preserve" font-family="Monaco,Monaco" font-size="18.4" fill="#1497FC" transform="matrix(1.00, 0.00, -0.00, -1.00, 328.2, 150.9)">1</text><text xml:space="preserve" font-family="Monaco,Monaco" font-size="18.4" fill="#1497FC" transform="matrix(1.00, 0.00, -0.00, -1.00, 339.2, 150.9)">0</text><text xml:space="preserve" font-family="Monaco,Monaco" font-size="18.4" fill="#1497FC" transform="matrix(1.00, 0.00, -0.00, -1.00, 350.3, 150.9)">]</text><text xml:space="preserve" font-family="Monaco,Monaco" font-size="18.4" fill="#1497FC" transform="matrix(1.00, 0.00, -0.00, -1.00, 361.3, 150.9)">;</text><image xlink:href="../../AD4FCAFD-89AD-4320-9234-575E85916EA5/assets/B0745FA7D843D20795FC57FDB1A5E841.png" width="7.00" height="7.00" transform="matrix(1.00, 0.00, -0.00, -1.00, 136.0, 117.0)"></image><g><clipPath id="clip0x7f852c896090"><path d="M 136.0 110.4 L 142.4 110.4 L 142.4 116.8 L 136.0 116.8 Z M 136.0 110.4 "></path></clipPath><g clip-path="url(#clip0x7f852c896090)"><g><g><clipPath id="clip0x7f852c897ba0"><path d="M 136.0 116.8 L 142.4 116.8 L 142.4 110.4 L 136.0 110.4 Z M 136.0 116.8 "></path></clipPath><g clip-path="url(#clip0x7f852c897ba0)"><g><clipPath id="clip0x7f852c898550"><path d="M 132.0 103.0 L 147.0 103.0 L 147.0 124.0 L 132.0 124.0 Z M 132.0 103.0 "></path></clipPath><g clip-path="url(#clip0x7f852c898550)"><path d="M 142.4 115.5 C 142.4 115.8 142.3 116.1 142.0 116.4 C 141.7 116.7 141.4 116.8 141.1 116.8 C 141.0 116.8 140.7 116.7 140.4 116.6 C 139.9 116.4 139.5 116.2 139.2 116.2 C 138.8 116.2 138.4 116.4 137.9 116.6 C 137.6 116.7 137.4 116.8 137.3 116.8 C 137.0 116.8 136.7 116.7 136.4 116.4 C 136.1 116.1 136.0 115.8 136.0 115.5 C 136.0 115.4 136.1 115.1 136.2 114.8 C 136.4 114.4 136.5 114.0 136.5 113.6 C 136.5 113.3 136.4 112.8 136.2 112.4 C 136.1 112.1 136.0 111.8 136.0 111.7 C 136.0 111.4 136.1 111.1 136.4 110.8 C 136.7 110.5 137.0 110.4 137.3 110.4 C 137.4 110.4 137.6 110.5 137.9 110.6 C 138.4 110.9 138.8 111.0 139.2 111.0 C 139.5 111.0 139.9 110.9 140.4 110.6 C 140.7 110.5 141.0 110.4 141.1 110.4 C 141.4 110.4 141.7 110.5 142.0 110.8 C 142.3 111.1 142.4 111.4 142.4 111.7 C 142.4 111.8 142.3 112.1 142.2 112.4 C 141.9 112.8 141.8 113.3 141.8 113.6 C 141.8 114.0 141.9 114.4 142.2 114.8 C 142.3 115.1 142.4 115.4 142.4 115.5 " fill="#FFFFFF"></path></g></g></g></g></g></g></g><image xlink:href="../../F8A4EABC-233F-46BE-B3AB-FCAAF3AA989D/assets/4C10C563A39128E1F135A9EEA1B4549A.png" width="51.00" height="25.00" transform="matrix(1.00, 0.00, -0.00, -1.00, 151.0, 123.0)"></image><text xml:space="preserve" font-family="HelveticaNeue,Helvetica Neue" font-size="18.4" fill="#FEFFFE" transform="matrix(1.00, 0.00, -0.00, -1.00, 153.8, 108.8)">H</text><text xml:space="preserve" font-family="HelveticaNeue,Helvetica Neue" font-size="18.4" fill="#FEFFFE" transform="matrix(1.00, 0.00, -0.00, -1.00, 167.1, 108.8)">e</text><text xml:space="preserve" font-family="HelveticaNeue,Helvetica Neue" font-size="18.4" fill="#FEFFFE" transform="matrix(1.00, 0.00, -0.00, -1.00, 177.0, 108.8)">a</text><text xml:space="preserve" font-family="HelveticaNeue,Helvetica Neue" font-size="18.4" fill="#FEFFFE" transform="matrix(1.00, 0.00, -0.00, -1.00, 186.8, 108.8)">p</text></g></svg>