<?xml version="1.0" encoding="UTF-8" standalone="no"?><svg xmlns="http://www.w3.org/2000/svg" xmlns:xlink="http://www.w3.org/1999/xlink" clip-rule="evenodd" stroke-miterlimit="10" viewBox="0 0 71 27"><desc>SVG generated by Keynote</desc><defs></defs><g transform="matrix(1.00, 0.00, -0.00, -1.00, 0.0, 27.0)"><image xlink:href="../../AD4FCAFD-89AD-4320-9234-575E85916EA5/assets/B0745FA7D843D20795FC57FDB1A5E841.png" width="7.00" height="7.00" transform="matrix(1.00, 0.00, -0.00, -1.00, 4.0, 20.0)"></image><g><clipPath id="clip0x7f8537bdf440"><path d="M 4.0 13.4 L 10.4 13.4 L 10.4 19.8 L 4.0 19.8 Z M 4.0 13.4 "></path></clipPath><g clip-path="url(#clip0x7f8537bdf440)"><g><g><clipPath id="clip0x7f8537be0fa0"><path d="M 4.0 19.8 L 10.4 19.8 L 10.4 13.4 L 4.0 13.4 Z M 4.0 19.8 "></path></clipPath><g clip-path="url(#clip0x7f8537be0fa0)"><g><clipPath id="clip0x7f8537be1700"><path d="M 0.0 6.0 L 15.0 6.0 L 15.0 27.0 L 0.0 27.0 Z M 0.0 6.0 "></path></clipPath><g clip-path="url(#clip0x7f8537be1700)"><path d="M 10.4 18.5 C 10.4 18.8 10.3 19.1 10.0 19.4 C 9.7 19.7 9.4 19.8 9.1 19.8 C 9.0 19.8 8.7 19.7 8.4 19.6 C 7.9 19.4 7.5 19.2 7.2 19.2 C 6.8 19.2 6.4 19.4 5.9 19.6 C 5.6 19.7 5.4 19.8 5.3 19.8 C 5.0 19.8 4.7 19.7 4.4 19.4 C 4.1 19.1 4.0 18.8 4.0 18.5 C 4.0 18.4 4.1 18.1 4.2 17.8 C 4.4 17.4 4.5 17.0 4.5 16.6 C 4.5 16.3 4.4 15.8 4.2 15.4 C 4.1 15.1 4.0 14.8 4.0 14.7 C 4.0 14.4 4.1 14.1 4.4 13.8 C 4.7 13.5 5.0 13.4 5.3 13.4 C 5.4 13.4 5.6 13.5 5.9 13.6 C 6.4 13.9 6.8 14.0 7.2 14.0 C 7.5 14.0 7.9 13.9 8.4 13.6 C 8.7 13.5 9.0 13.4 9.1 13.4 C 9.4 13.4 9.7 13.5 10.0 13.8 C 10.3 14.1 10.4 14.4 10.4 14.7 C 10.4 14.8 10.3 15.1 10.2 15.4 C 9.9 15.8 9.8 16.3 9.8 16.6 C 9.8 17.0 9.9 17.4 10.2 17.8 C 10.3 18.1 10.4 18.4 10.4 18.5 " fill="#FFFFFF"></path></g></g></g></g></g></g></g><image xlink:href="4C10C563A39128E1F135A9EEA1B4549A.png" width="51.00" height="25.00" transform="matrix(1.00, 0.00, -0.00, -1.00, 19.0, 26.0)"></image><text xml:space="preserve" font-family="HelveticaNeue,Helvetica Neue" font-size="18.4" fill="#FEFFFE" transform="matrix(1.00, 0.00, -0.00, -1.00, 21.9, 11.8)">H</text><text xml:space="preserve" font-family="HelveticaNeue,Helvetica Neue" font-size="18.4" fill="#FEFFFE" transform="matrix(1.00, 0.00, -0.00, -1.00, 35.1, 11.8)">e</text><text xml:space="preserve" font-family="HelveticaNeue,Helvetica Neue" font-size="18.4" fill="#FEFFFE" transform="matrix(1.00, 0.00, -0.00, -1.00, 45.0, 11.8)">a</text><text xml:space="preserve" font-family="HelveticaNeue,Helvetica Neue" font-size="18.4" fill="#FEFFFE" transform="matrix(1.00, 0.00, -0.00, -1.00, 54.8, 11.8)">p</text></g></svg>