<?xml version="1.0" encoding="UTF-8" standalone="no"?><svg xmlns="http://www.w3.org/2000/svg" xmlns:xlink="http://www.w3.org/1999/xlink" clip-rule="evenodd" stroke-miterlimit="10" viewBox="0 0 373 28"><desc>SVG generated by Keynote</desc><defs></defs><g transform="matrix(1.00, 0.00, -0.00, -1.00, 0.0, 28.0)"><image xlink:href="../../AD4FCAFD-89AD-4320-9234-575E85916EA5/assets/0FAF2AD2FCE209D78F92031AC9A957D9.png" width="7.00" height="7.00" transform="matrix(1.00, 0.00, -0.00, -1.00, 4.0, 21.0)"></image><g><clipPath id="clip0x7fdf005b1620"><path d="M 4.0 14.0 L 10.4 14.0 L 10.4 20.4 L 4.0 20.4 Z M 4.0 14.0 "></path></clipPath><g clip-path="url(#clip0x7fdf005b1620)"><g><g><clipPath id="clip0x7fdf005b2b60"><path d="M 4.0 20.4 L 10.4 20.4 L 10.4 14.0 L 4.0 14.0 Z M 4.0 20.4 "></path></clipPath><g clip-path="url(#clip0x7fdf005b2b60)"><g><clipPath id="clip0x7fdf005b32c0"><path d="M 0.0 7.0 L 15.0 7.0 L 15.0 28.0 L 0.0 28.0 Z M 0.0 7.0 "></path></clipPath><g clip-path="url(#clip0x7fdf005b32c0)"><path d="M 10.4 19.1 C 10.4 19.4 10.3 19.7 10.0 20.0 C 9.7 20.3 9.4 20.4 9.1 20.4 C 9.0 20.4 8.7 20.3 8.4 20.2 C 7.9 20.0 7.5 19.8 7.2 19.8 C 6.8 19.8 6.4 20.0 5.9 20.2 C 5.6 20.3 5.4 20.4 5.3 20.4 C 5.0 20.4 4.7 20.3 4.4 20.0 C 4.1 19.7 4.0 19.4 4.0 19.1 C 4.0 19.0 4.1 18.7 4.2 18.4 C 4.4 18.0 4.5 17.6 4.5 17.2 C 4.5 16.9 4.4 16.4 4.2 16.0 C 4.1 15.7 4.0 15.4 4.0 15.3 C 4.0 15.0 4.1 14.7 4.4 14.4 C 4.7 14.1 5.0 14.0 5.3 14.0 C 5.4 14.0 5.6 14.1 5.9 14.2 C 6.4 14.5 6.8 14.6 7.2 14.6 C 7.5 14.6 7.9 14.5 8.4 14.2 C 8.7 14.1 9.0 14.0 9.1 14.0 C 9.4 14.0 9.7 14.1 10.0 14.4 C 10.3 14.7 10.4 15.0 10.4 15.3 C 10.4 15.4 10.3 15.7 10.2 16.0 C 9.9 16.4 9.8 16.9 9.8 17.2 C 9.8 17.6 9.9 18.0 10.2 18.4 C 10.3 18.7 10.4 19.0 10.4 19.1 " fill="#FFFFFF"></path></g></g></g></g></g></g></g><image xlink:href="1EB9E1B1F9C0ECFCBE61CC0E845A9455.png" width="353.00" height="26.00" transform="matrix(1.00, 0.00, -0.00, -1.00, 19.0, 27.0)"></image><text xml:space="preserve" font-family="HelveticaNeue,Helvetica Neue" font-size="18.4" fill="#FEFFFE" transform="matrix(1.00, 0.00, -0.00, -1.00, 21.9, 12.4)">H</text><text xml:space="preserve" font-family="HelveticaNeue,Helvetica Neue" font-size="18.4" fill="#FEFFFE" transform="matrix(1.00, 0.00, -0.00, -1.00, 35.1, 12.4)">o</text><text xml:space="preserve" font-family="HelveticaNeue,Helvetica Neue" font-size="18.4" fill="#FEFFFE" transform="matrix(1.00, 0.00, -0.00, -1.00, 45.6, 12.4)">w</text><text xml:space="preserve" font-family="HelveticaNeue,Helvetica Neue" font-size="18.4" fill="#FEFFFE" transform="matrix(1.00, 0.00, -0.00, -1.00, 59.6, 12.4)"> </text><text xml:space="preserve" font-family="HelveticaNeue,Helvetica Neue" font-size="18.4" fill="#FEFFFE" transform="matrix(1.00, 0.00, -0.00, -1.00, 64.7, 12.4)">d</text><text xml:space="preserve" font-family="HelveticaNeue,Helvetica Neue" font-size="18.4" fill="#FEFFFE" transform="matrix(1.00, 0.00, -0.00, -1.00, 75.6, 12.4)">o</text><text xml:space="preserve" font-family="HelveticaNeue,Helvetica Neue" font-size="18.4" fill="#FEFFFE" transform="matrix(1.00, 0.00, -0.00, -1.00, 86.1, 12.4)"> </text><text xml:space="preserve" font-family="HelveticaNeue,Helvetica Neue" font-size="18.4" fill="#FEFFFE" transform="matrix(1.00, 0.00, -0.00, -1.00, 91.2, 12.4)">y</text><text xml:space="preserve" font-family="HelveticaNeue,Helvetica Neue" font-size="18.4" fill="#FEFFFE" transform="matrix(1.00, 0.00, -0.00, -1.00, 100.4, 12.4)">o</text><text xml:space="preserve" font-family="HelveticaNeue,Helvetica Neue" font-size="18.4" fill="#FEFFFE" transform="matrix(1.00, 0.00, -0.00, -1.00, 110.9, 12.4)">u</text><text xml:space="preserve" font-family="HelveticaNeue,Helvetica Neue" font-size="18.4" fill="#FEFFFE" transform="matrix(1.00, 0.00, -0.00, -1.00, 121.1, 12.4)"> </text><text xml:space="preserve" font-family="HelveticaNeue,Helvetica Neue" font-size="18.4" fill="#FEFFFE" transform="matrix(1.00, 0.00, -0.00, -1.00, 126.2, 12.4)">a</text><text xml:space="preserve" font-family="HelveticaNeue,Helvetica Neue" font-size="18.4" fill="#FEFFFE" transform="matrix(1.00, 0.00, -0.00, -1.00, 136.1, 12.4)">l</text><text xml:space="preserve" font-family="HelveticaNeue,Helvetica Neue" font-size="18.4" fill="#FEFFFE" transform="matrix(1.00, 0.00, -0.00, -1.00, 140.2, 12.4)">l</text><text xml:space="preserve" font-family="HelveticaNeue,Helvetica Neue" font-size="18.4" fill="#FEFFFE" transform="matrix(1.00, 0.00, -0.00, -1.00, 144.2, 12.4)">o</text><text xml:space="preserve" font-family="HelveticaNeue,Helvetica Neue" font-size="18.4" fill="#FEFFFE" transform="matrix(1.00, 0.00, -0.00, -1.00, 154.8, 12.4)">c</text><text xml:space="preserve" font-family="HelveticaNeue,Helvetica Neue" font-size="18.4" fill="#FEFFFE" transform="matrix(1.00, 0.00, -0.00, -1.00, 164.6, 12.4)">a</text><text xml:space="preserve" font-family="HelveticaNeue,Helvetica Neue" font-size="18.4" fill="#FEFFFE" transform="matrix(1.00, 0.00, -0.00, -1.00, 174.5, 12.4)">t</text><text xml:space="preserve" font-family="HelveticaNeue,Helvetica Neue" font-size="18.4" fill="#FEFFFE" transform="matrix(1.00, 0.00, -0.00, -1.00, 180.3, 12.4)">e</text><text xml:space="preserve" font-family="HelveticaNeue,Helvetica Neue" font-size="18.4" fill="#FEFFFE" transform="matrix(1.00, 0.00, -0.00, -1.00, 190.1, 12.4)"> </text><text xml:space="preserve" font-family="HelveticaNeue,Helvetica Neue" font-size="18.4" fill="#FEFFFE" transform="matrix(1.00, 0.00, -0.00, -1.00, 195.2, 12.4)">a</text><text xml:space="preserve" font-family="HelveticaNeue,Helvetica Neue" font-size="18.4" fill="#FEFFFE" transform="matrix(1.00, 0.00, -0.00, -1.00, 205.1, 12.4)">n</text><text xml:space="preserve" font-family="HelveticaNeue,Helvetica Neue" font-size="18.4" fill="#FEFFFE" transform="matrix(1.00, 0.00, -0.00, -1.00, 215.3, 12.4)"> </text><text xml:space="preserve" font-family="HelveticaNeue,Helvetica Neue" font-size="18.4" fill="#FEFFFE" transform="matrix(1.00, 0.00, -0.00, -1.00, 220.4, 12.4)">a</text><text xml:space="preserve" font-family="HelveticaNeue,Helvetica Neue" font-size="18.4" fill="#FEFFFE" transform="matrix(1.00, 0.00, -0.00, -1.00, 230.3, 12.4)">r</text><text xml:space="preserve" font-family="HelveticaNeue,Helvetica Neue" font-size="18.4" fill="#FEFFFE" transform="matrix(1.00, 0.00, -0.00, -1.00, 236.4, 12.4)">r</text><text xml:space="preserve" font-family="HelveticaNeue,Helvetica Neue" font-size="18.4" fill="#FEFFFE" transform="matrix(1.00, 0.00, -0.00, -1.00, 242.5, 12.4)">a</text><text xml:space="preserve" font-family="HelveticaNeue,Helvetica Neue" font-size="18.4" fill="#FEFFFE" transform="matrix(1.00, 0.00, -0.00, -1.00, 252.4, 12.4)">y</text><text xml:space="preserve" font-family="HelveticaNeue,Helvetica Neue" font-size="18.4" fill="#FEFFFE" transform="matrix(1.00, 0.00, -0.00, -1.00, 261.5, 12.4)"> </text><text xml:space="preserve" font-family="HelveticaNeue,Helvetica Neue" font-size="18.4" fill="#FEFFFE" transform="matrix(1.00, 0.00, -0.00, -1.00, 266.6, 12.4)">o</text><text xml:space="preserve" font-family="HelveticaNeue,Helvetica Neue" font-size="18.4" fill="#FEFFFE" transform="matrix(1.00, 0.00, -0.00, -1.00, 277.2, 12.4)">f</text><text xml:space="preserve" font-family="HelveticaNeue,Helvetica Neue" font-size="18.4" fill="#FEFFFE" transform="matrix(1.00, 0.00, -0.00, -1.00, 282.6, 12.4)"> </text><text xml:space="preserve" font-family="HelveticaNeue,Helvetica Neue" font-size="18.4" fill="#FEFFFE" transform="matrix(1.00, 0.00, -0.00, -1.00, 287.7, 12.4)">n</text><text xml:space="preserve" font-family="HelveticaNeue,Helvetica Neue" font-size="18.4" fill="#FEFFFE" transform="matrix(1.00, 0.00, -0.00, -1.00, 297.9, 12.4)"> </text><text xml:space="preserve" font-family="HelveticaNeue,Helvetica Neue" font-size="18.4" fill="#FEFFFE" transform="matrix(1.00, 0.00, -0.00, -1.00, 303.0, 12.4)">s</text><text xml:space="preserve" font-family="HelveticaNeue,Helvetica Neue" font-size="18.4" fill="#FEFFFE" transform="matrix(1.00, 0.00, -0.00, -1.00, 312.2, 12.4)">t</text><text xml:space="preserve" font-family="HelveticaNeue,Helvetica Neue" font-size="18.4" fill="#FEFFFE" transform="matrix(1.00, 0.00, -0.00, -1.00, 318.0, 12.4)">r</text><text xml:space="preserve" font-family="HelveticaNeue,Helvetica Neue" font-size="18.4" fill="#FEFFFE" transform="matrix(1.00, 0.00, -0.00, -1.00, 324.1, 12.4)">i</text><text xml:space="preserve" font-family="HelveticaNeue,Helvetica Neue" font-size="18.4" fill="#FEFFFE" transform="matrix(1.00, 0.00, -0.00, -1.00, 328.2, 12.4)">n</text><text xml:space="preserve" font-family="HelveticaNeue,Helvetica Neue" font-size="18.4" fill="#FEFFFE" transform="matrix(1.00, 0.00, -0.00, -1.00, 338.4, 12.4)">g</text><text xml:space="preserve" font-family="HelveticaNeue,Helvetica Neue" font-size="18.4" fill="#FEFFFE" transform="matrix(1.00, 0.00, -0.00, -1.00, 348.9, 12.4)">s</text><text xml:space="preserve" font-family="HelveticaNeue,Helvetica Neue" font-size="18.4" fill="#FEFFFE" transform="matrix(1.00, 0.00, -0.00, -1.00, 358.1, 12.4)">?</text></g></svg>