<?xml version="1.0" encoding="UTF-8" standalone="no"?><svg xmlns="http://www.w3.org/2000/svg" xmlns:xlink="http://www.w3.org/1999/xlink" clip-rule="evenodd" stroke-miterlimit="10" viewBox="0 0 233 30"><desc>SVG generated by Keynote</desc><defs></defs><g transform="matrix(1.00, 0.00, -0.00, -1.00, 0.0, 30.0)"><image xlink:href="62C5DB98E6A6C16D664F5772840D1E37.png" width="7.00" height="8.00" transform="matrix(1.00, 0.00, -0.00, -1.00, 4.0, 22.0)"></image><g><clipPath id="clip0x7fdefeb9bec0"><path d="M 4.0 14.3 L 10.9 14.3 L 10.9 21.2 L 4.0 21.2 Z M 4.0 14.3 "></path></clipPath><g clip-path="url(#clip0x7fdefeb9bec0)"><g><g><clipPath id="clip0x7fdefeb9da80"><path d="M 4.0 21.2 L 10.9 21.2 L 10.9 14.3 L 4.0 14.3 Z M 4.0 21.2 "></path></clipPath><g clip-path="url(#clip0x7fdefeb9da80)"><g><clipPath id="clip0x7fdefeb9e1e0"><path d="M 0.0 7.0 L 15.0 7.0 L 15.0 29.0 L 0.0 29.0 Z M 0.0 7.0 "></path></clipPath><g clip-path="url(#clip0x7fdefeb9e1e0)"><path d="M 10.9 19.8 C 10.9 20.1 10.7 20.4 10.4 20.7 C 10.1 21.1 9.8 21.2 9.5 21.2 C 9.3 21.2 9.1 21.1 8.8 21.0 C 8.2 20.7 7.8 20.6 7.4 20.6 C 7.0 20.6 6.6 20.7 6.1 21.0 C 5.7 21.1 5.5 21.2 5.3 21.2 C 5.0 21.2 4.7 21.1 4.4 20.8 C 4.1 20.5 4.0 20.2 4.0 19.8 C 4.0 19.7 4.1 19.4 4.2 19.1 C 4.5 18.6 4.6 18.1 4.6 17.8 C 4.6 17.4 4.5 17.0 4.2 16.4 C 4.1 16.1 4.0 15.9 4.0 15.7 C 4.0 15.4 4.1 15.1 4.4 14.8 C 4.7 14.5 5.0 14.3 5.3 14.3 C 5.5 14.3 5.7 14.4 6.1 14.6 C 6.6 14.8 7.0 14.9 7.4 14.9 C 7.8 14.9 8.2 14.8 8.8 14.6 C 9.1 14.4 9.3 14.3 9.5 14.3 C 9.8 14.3 10.1 14.5 10.4 14.8 C 10.7 15.1 10.9 15.4 10.9 15.7 C 10.9 15.9 10.8 16.1 10.6 16.4 C 10.4 17.0 10.2 17.4 10.2 17.8 C 10.2 18.1 10.4 18.6 10.6 19.1 C 10.8 19.4 10.9 19.7 10.9 19.8 " fill="#FFFFFF"></path></g></g></g></g></g></g></g><image xlink:href="DA26B7DE9F4D41FD77364BA3953669EE.png" width="213.00" height="28.00" transform="matrix(1.00, 0.00, -0.00, -1.00, 19.0, 29.0)"></image><text xml:space="preserve" font-family="Monaco,Monaco" font-size="18.4" fill="#1497FC" transform="matrix(1.00, 0.00, -0.00, -1.00, 21.9, 12.9)">s</text><text xml:space="preserve" font-family="Monaco,Monaco" font-size="18.4" fill="#1497FC" transform="matrix(1.00, 0.00, -0.00, -1.00, 32.9, 12.9)">t</text><text xml:space="preserve" font-family="Monaco,Monaco" font-size="18.4" fill="#1497FC" transform="matrix(1.00, 0.00, -0.00, -1.00, 43.9, 12.9)">r</text><text xml:space="preserve" font-family="Monaco,Monaco" font-size="18.4" fill="#1497FC" transform="matrix(1.00, 0.00, -0.00, -1.00, 54.9, 12.9)">i</text><text xml:space="preserve" font-family="Monaco,Monaco" font-size="18.4" fill="#1497FC" transform="matrix(1.00, 0.00, -0.00, -1.00, 65.9, 12.9)">n</text><text xml:space="preserve" font-family="Monaco,Monaco" font-size="18.4" fill="#1497FC" transform="matrix(1.00, 0.00, -0.00, -1.00, 76.9, 12.9)">g</text><text xml:space="preserve" font-family="Monaco,Monaco" font-size="18.4" fill="#1497FC" transform="matrix(1.00, 0.00, -0.00, -1.00, 88.0, 12.9)"> </text><text xml:space="preserve" font-family="Monaco,Monaco" font-size="18.4" fill="#1497FC" transform="matrix(1.00, 0.00, -0.00, -1.00, 99.0, 12.9)">*</text><text xml:space="preserve" font-family="Monaco,Monaco" font-size="18.4" fill="#1497FC" transform="matrix(1.00, 0.00, -0.00, -1.00, 110.0, 12.9)">p</text><text xml:space="preserve" font-family="Monaco,Monaco" font-size="18.4" fill="#1497FC" transform="matrix(1.00, 0.00, -0.00, -1.00, 121.0, 12.9)">t</text><text xml:space="preserve" font-family="Monaco,Monaco" font-size="18.4" fill="#1497FC" transform="matrix(1.00, 0.00, -0.00, -1.00, 132.0, 12.9)">r</text><text xml:space="preserve" font-family="Monaco,Monaco" font-size="18.4" fill="#1497FC" transform="matrix(1.00, 0.00, -0.00, -1.00, 143.1, 12.9)"> </text><text xml:space="preserve" font-family="Monaco,Monaco" font-size="18.4" fill="#1497FC" transform="matrix(1.00, 0.00, -0.00, -1.00, 154.1, 12.9)">=</text><text xml:space="preserve" font-family="Monaco,Monaco" font-size="18.4" fill="#1497FC" transform="matrix(1.00, 0.00, -0.00, -1.00, 165.1, 12.9)"> </text><text xml:space="preserve" font-family="Monaco,Monaco" font-size="18.4" fill="#1497FC" transform="matrix(1.00, 0.00, -0.00, -1.00, 176.1, 12.9)">N</text><text xml:space="preserve" font-family="Monaco,Monaco" font-size="18.4" fill="#1497FC" transform="matrix(1.00, 0.00, -0.00, -1.00, 187.1, 12.9)">U</text><text xml:space="preserve" font-family="Monaco,Monaco" font-size="18.4" fill="#1497FC" transform="matrix(1.00, 0.00, -0.00, -1.00, 198.2, 12.9)">L</text><text xml:space="preserve" font-family="Monaco,Monaco" font-size="18.4" fill="#1497FC" transform="matrix(1.00, 0.00, -0.00, -1.00, 209.2, 12.9)">L</text><text xml:space="preserve" font-family="Monaco,Monaco" font-size="18.4" fill="#1497FC" transform="matrix(1.00, 0.00, -0.00, -1.00, 220.2, 12.9)">;</text></g></svg>