<?xml version="1.0" encoding="UTF-8" standalone="no"?><svg xmlns="http://www.w3.org/2000/svg" xmlns:xlink="http://www.w3.org/1999/xlink" clip-rule="evenodd" stroke-miterlimit="10" viewBox="0 0 322 24"><desc>SVG generated by Keynote</desc><defs></defs><g transform="matrix(1.00, 0.00, -0.00, -1.00, 0.0, 24.0)"><image xlink:href="0FAF2AD2FCE209D78F92031AC9A957D9.png" width="7.00" height="7.00" transform="matrix(1.00, 0.00, -0.00, -1.00, 4.0, 17.0)"></image><g><clipPath id="clip0x7fc208b38770"><path d="M 4.0 10.0 L 10.4 10.0 L 10.4 16.4 L 4.0 16.4 Z M 4.0 10.0 "></path></clipPath><g clip-path="url(#clip0x7fc208b38770)"><g><g><clipPath id="clip0x7fc208b3a320"><path d="M 4.0 16.4 L 10.4 16.4 L 10.4 10.0 L 4.0 10.0 Z M 4.0 16.4 "></path></clipPath><g clip-path="url(#clip0x7fc208b3a320)"><g><clipPath id="clip0x7fc208b3aa80"><path d="M 0.0 3.0 L 15.0 3.0 L 15.0 24.0 L 0.0 24.0 Z M 0.0 3.0 "></path></clipPath><g clip-path="url(#clip0x7fc208b3aa80)"><path d="M 10.4 15.1 C 10.4 15.4 10.3 15.7 10.0 16.0 C 9.7 16.3 9.4 16.4 9.1 16.4 C 9.0 16.4 8.7 16.3 8.4 16.2 C 7.9 16.0 7.5 15.8 7.2 15.8 C 6.8 15.8 6.4 16.0 5.9 16.2 C 5.6 16.3 5.4 16.4 5.3 16.4 C 5.0 16.4 4.7 16.3 4.4 16.0 C 4.1 15.7 4.0 15.4 4.0 15.1 C 4.0 15.0 4.1 14.7 4.2 14.4 C 4.4 14.0 4.5 13.6 4.5 13.2 C 4.5 12.9 4.4 12.4 4.2 12.0 C 4.1 11.7 4.0 11.4 4.0 11.3 C 4.0 11.0 4.1 10.7 4.4 10.4 C 4.7 10.1 5.0 10.0 5.3 10.0 C 5.4 10.0 5.6 10.1 5.9 10.2 C 6.4 10.5 6.8 10.6 7.2 10.6 C 7.5 10.6 7.9 10.5 8.4 10.2 C 8.7 10.1 9.0 10.0 9.1 10.0 C 9.4 10.0 9.7 10.1 10.0 10.4 C 10.3 10.7 10.4 11.0 10.4 11.3 C 10.4 11.4 10.3 11.7 10.2 12.0 C 9.9 12.4 9.8 12.9 9.8 13.2 C 9.8 13.6 9.9 14.0 10.2 14.4 C 10.3 14.7 10.4 15.0 10.4 15.1 " fill="#FFFFFF"></path></g></g></g></g></g></g></g><image xlink:href="44974878DF110C1A01C16EB43041D19E.png" width="303.00" height="22.00" transform="matrix(1.00, 0.00, -0.00, -1.00, 18.0, 23.0)"></image><text xml:space="preserve" font-family="HelveticaNeue,Helvetica Neue" font-size="18.4" fill="#FEFFFE" transform="matrix(1.00, 0.00, -0.00, -1.00, 21.9, 8.4)">W</text><text xml:space="preserve" font-family="HelveticaNeue,Helvetica Neue" font-size="18.4" fill="#FEFFFE" transform="matrix(1.00, 0.00, -0.00, -1.00, 38.9, 8.4)">h</text><text xml:space="preserve" font-family="HelveticaNeue,Helvetica Neue" font-size="18.4" fill="#FEFFFE" transform="matrix(1.00, 0.00, -0.00, -1.00, 49.1, 8.4)">a</text><text xml:space="preserve" font-family="HelveticaNeue,Helvetica Neue" font-size="18.4" fill="#FEFFFE" transform="matrix(1.00, 0.00, -0.00, -1.00, 58.9, 8.4)">t</text><text xml:space="preserve" font-family="HelveticaNeue,Helvetica Neue" font-size="18.4" fill="#FEFFFE" transform="matrix(1.00, 0.00, -0.00, -1.00, 64.7, 8.4)"> </text><text xml:space="preserve" font-family="HelveticaNeue,Helvetica Neue" font-size="18.4" fill="#FEFFFE" transform="matrix(1.00, 0.00, -0.00, -1.00, 69.8, 8.4)">d</text><text xml:space="preserve" font-family="HelveticaNeue,Helvetica Neue" font-size="18.4" fill="#FEFFFE" transform="matrix(1.00, 0.00, -0.00, -1.00, 80.7, 8.4)">o</text><text xml:space="preserve" font-family="HelveticaNeue,Helvetica Neue" font-size="18.4" fill="#FEFFFE" transform="matrix(1.00, 0.00, -0.00, -1.00, 91.2, 8.4)"> </text><text xml:space="preserve" font-family="HelveticaNeue,Helvetica Neue" font-size="18.4" fill="#FEFFFE" transform="matrix(1.00, 0.00, -0.00, -1.00, 96.3, 8.4)">t</text><text xml:space="preserve" font-family="HelveticaNeue,Helvetica Neue" font-size="18.4" fill="#FEFFFE" transform="matrix(1.00, 0.00, -0.00, -1.00, 102.1, 8.4)">h</text><text xml:space="preserve" font-family="HelveticaNeue,Helvetica Neue" font-size="18.4" fill="#FEFFFE" transform="matrix(1.00, 0.00, -0.00, -1.00, 112.3, 8.4)">e</text><text xml:space="preserve" font-family="HelveticaNeue,Helvetica Neue" font-size="18.4" fill="#FEFFFE" transform="matrix(1.00, 0.00, -0.00, -1.00, 122.2, 8.4)">s</text><text xml:space="preserve" font-family="HelveticaNeue,Helvetica Neue" font-size="18.4" fill="#FEFFFE" transform="matrix(1.00, 0.00, -0.00, -1.00, 131.4, 8.4)">e</text><text xml:space="preserve" font-family="HelveticaNeue,Helvetica Neue" font-size="18.4" fill="#FEFFFE" transform="matrix(1.00, 0.00, -0.00, -1.00, 141.2, 8.4)"> </text><text xml:space="preserve" font-family="HelveticaNeue,Helvetica Neue" font-size="18.4" fill="#FEFFFE" transform="matrix(1.00, 0.00, -0.00, -1.00, 146.3, 8.4)">l</text><text xml:space="preserve" font-family="HelveticaNeue,Helvetica Neue" font-size="18.4" fill="#FEFFFE" transform="matrix(1.00, 0.00, -0.00, -1.00, 150.4, 8.4)">i</text><text xml:space="preserve" font-family="HelveticaNeue,Helvetica Neue" font-size="18.4" fill="#FEFFFE" transform="matrix(1.00, 0.00, -0.00, -1.00, 154.5, 8.4)">n</text><text xml:space="preserve" font-family="HelveticaNeue,Helvetica Neue" font-size="18.4" fill="#FEFFFE" transform="matrix(1.00, 0.00, -0.00, -1.00, 164.7, 8.4)">e</text><text xml:space="preserve" font-family="HelveticaNeue,Helvetica Neue" font-size="18.4" fill="#FEFFFE" transform="matrix(1.00, 0.00, -0.00, -1.00, 174.6, 8.4)"> </text><text xml:space="preserve" font-family="HelveticaNeue,Helvetica Neue" font-size="18.4" fill="#FEFFFE" transform="matrix(1.00, 0.00, -0.00, -1.00, 179.7, 8.4)">o</text><text xml:space="preserve" font-family="HelveticaNeue,Helvetica Neue" font-size="18.4" fill="#FEFFFE" transform="matrix(1.00, 0.00, -0.00, -1.00, 190.2, 8.4)">f</text><text xml:space="preserve" font-family="HelveticaNeue,Helvetica Neue" font-size="18.4" fill="#FEFFFE" transform="matrix(1.00, 0.00, -0.00, -1.00, 195.6, 8.4)"> </text><text xml:space="preserve" font-family="HelveticaNeue,Helvetica Neue" font-size="18.4" fill="#FEFFFE" transform="matrix(1.00, 0.00, -0.00, -1.00, 200.7, 8.4)">c</text><text xml:space="preserve" font-family="HelveticaNeue,Helvetica Neue" font-size="18.4" fill="#FEFFFE" transform="matrix(1.00, 0.00, -0.00, -1.00, 210.6, 8.4)">o</text><text xml:space="preserve" font-family="HelveticaNeue,Helvetica Neue" font-size="18.4" fill="#FEFFFE" transform="matrix(1.00, 0.00, -0.00, -1.00, 221.1, 8.4)">d</text><text xml:space="preserve" font-family="HelveticaNeue,Helvetica Neue" font-size="18.4" fill="#FEFFFE" transform="matrix(1.00, 0.00, -0.00, -1.00, 232.0, 8.4)">e</text><text xml:space="preserve" font-family="HelveticaNeue,Helvetica Neue" font-size="18.4" fill="#FEFFFE" transform="matrix(1.00, 0.00, -0.00, -1.00, 241.9, 8.4)"> </text><text xml:space="preserve" font-family="HelveticaNeue,Helvetica Neue" font-size="18.4" fill="#FEFFFE" transform="matrix(1.00, 0.00, -0.00, -1.00, 247.0, 8.4)">d</text><text xml:space="preserve" font-family="HelveticaNeue,Helvetica Neue" font-size="18.4" fill="#FEFFFE" transform="matrix(1.00, 0.00, -0.00, -1.00, 257.9, 8.4)">e</text><text xml:space="preserve" font-family="HelveticaNeue,Helvetica Neue" font-size="18.4" fill="#FEFFFE" transform="matrix(1.00, 0.00, -0.00, -1.00, 267.7, 8.4)">c</text><text xml:space="preserve" font-family="HelveticaNeue,Helvetica Neue" font-size="18.4" fill="#FEFFFE" transform="matrix(1.00, 0.00, -0.00, -1.00, 277.6, 8.4)">l</text><text xml:space="preserve" font-family="HelveticaNeue,Helvetica Neue" font-size="18.4" fill="#FEFFFE" transform="matrix(1.00, 0.00, -0.00, -1.00, 281.7, 8.4)">a</text><text xml:space="preserve" font-family="HelveticaNeue,Helvetica Neue" font-size="18.4" fill="#FEFFFE" transform="matrix(1.00, 0.00, -0.00, -1.00, 291.5, 8.4)">r</text><text xml:space="preserve" font-family="HelveticaNeue,Helvetica Neue" font-size="18.4" fill="#FEFFFE" transform="matrix(1.00, 0.00, -0.00, -1.00, 297.3, 8.4)">e</text><text xml:space="preserve" font-family="HelveticaNeue,Helvetica Neue" font-size="18.4" fill="#FEFFFE" transform="matrix(1.00, 0.00, -0.00, -1.00, 307.2, 8.4)">?</text></g></svg>