<?xml version="1.0" encoding="UTF-8" standalone="no"?><svg xmlns="http://www.w3.org/2000/svg" xmlns:xlink="http://www.w3.org/1999/xlink" clip-rule="evenodd" stroke-miterlimit="10" viewBox="0 0 211 30"><desc>SVG generated by Keynote</desc><defs></defs><g transform="matrix(1.00, 0.00, -0.00, -1.00, 0.0, 30.0)"><image xlink:href="BD5C6AFBAD6371598AD0A527C5F75EB0.png" width="7.00" height="8.00" transform="matrix(1.00, 0.00, -0.00, -1.00, 4.0, 21.0)"></image><g><clipPath id="clip0x7fdefeb49030"><path d="M 4.0 13.8 L 10.9 13.8 L 10.9 20.7 L 4.0 20.7 Z M 4.0 13.8 "></path></clipPath><g clip-path="url(#clip0x7fdefeb49030)"><g><g><clipPath id="clip0x7fdefeb5d4a0"><path d="M 4.0 20.7 L 10.9 20.7 L 10.9 13.8 L 4.0 13.8 Z M 4.0 20.7 "></path></clipPath><g clip-path="url(#clip0x7fdefeb5d4a0)"><g><clipPath id="clip0x7fdefeb5dc00"><path d="M 0.0 6.0 L 15.0 6.0 L 15.0 28.0 L 0.0 28.0 Z M 0.0 6.0 "></path></clipPath><g clip-path="url(#clip0x7fdefeb5dc00)"><path d="M 10.9 19.3 C 10.9 19.6 10.7 19.9 10.4 20.2 C 10.1 20.5 9.8 20.7 9.5 20.7 C 9.3 20.7 9.1 20.6 8.8 20.4 C 8.2 20.2 7.8 20.0 7.4 20.0 C 7.0 20.0 6.6 20.2 6.1 20.4 C 5.7 20.6 5.5 20.7 5.3 20.7 C 5.0 20.7 4.7 20.5 4.4 20.2 C 4.1 19.9 4.0 19.6 4.0 19.3 C 4.0 19.1 4.1 18.9 4.2 18.5 C 4.5 18.0 4.6 17.6 4.6 17.2 C 4.6 16.8 4.5 16.4 4.2 15.9 C 4.1 15.5 4.0 15.3 4.0 15.1 C 4.0 14.8 4.1 14.5 4.4 14.2 C 4.7 13.9 5.0 13.8 5.3 13.8 C 5.5 13.8 5.7 13.8 6.1 14.0 C 6.6 14.3 7.0 14.4 7.4 14.4 C 7.8 14.4 8.2 14.3 8.8 14.0 C 9.1 13.8 9.3 13.8 9.5 13.8 C 9.8 13.8 10.1 13.9 10.4 14.2 C 10.7 14.5 10.9 14.8 10.9 15.1 C 10.9 15.3 10.8 15.5 10.6 15.9 C 10.4 16.4 10.2 16.8 10.2 17.2 C 10.2 17.6 10.4 18.0 10.6 18.5 C 10.8 18.9 10.9 19.1 10.9 19.3 " fill="#FFFFFF"></path></g></g></g></g></g></g></g><image xlink:href="43ABB5D9A0201140FF015DAC8467BC14.png" width="191.00" height="28.00" transform="matrix(1.00, 0.00, -0.00, -1.00, 19.0, 29.0)"></image><text xml:space="preserve" font-family="Monaco,Monaco" font-size="18.4" fill="#1497FC" transform="matrix(1.00, 0.00, -0.00, -1.00, 21.9, 12.3)">i</text><text xml:space="preserve" font-family="Monaco,Monaco" font-size="18.4" fill="#1497FC" transform="matrix(1.00, 0.00, -0.00, -1.00, 32.9, 12.3)">n</text><text xml:space="preserve" font-family="Monaco,Monaco" font-size="18.4" fill="#1497FC" transform="matrix(1.00, 0.00, -0.00, -1.00, 43.9, 12.3)">t</text><text xml:space="preserve" font-family="Monaco,Monaco" font-size="18.4" fill="#1497FC" transform="matrix(1.00, 0.00, -0.00, -1.00, 54.9, 12.3)"> </text><text xml:space="preserve" font-family="Monaco,Monaco" font-size="18.4" fill="#1497FC" transform="matrix(1.00, 0.00, -0.00, -1.00, 65.9, 12.3)">*</text><text xml:space="preserve" font-family="Monaco,Monaco" font-size="18.4" fill="#1497FC" transform="matrix(1.00, 0.00, -0.00, -1.00, 76.9, 12.3)">*</text><text xml:space="preserve" font-family="Monaco,Monaco" font-size="18.4" fill="#1497FC" transform="matrix(1.00, 0.00, -0.00, -1.00, 88.0, 12.3)">p</text><text xml:space="preserve" font-family="Monaco,Monaco" font-size="18.4" fill="#1497FC" transform="matrix(1.00, 0.00, -0.00, -1.00, 99.0, 12.3)">t</text><text xml:space="preserve" font-family="Monaco,Monaco" font-size="18.4" fill="#1497FC" transform="matrix(1.00, 0.00, -0.00, -1.00, 110.0, 12.3)">r</text><text xml:space="preserve" font-family="Monaco,Monaco" font-size="18.4" fill="#1497FC" transform="matrix(1.00, 0.00, -0.00, -1.00, 121.0, 12.3)"> </text><text xml:space="preserve" font-family="Monaco,Monaco" font-size="18.4" fill="#1497FC" transform="matrix(1.00, 0.00, -0.00, -1.00, 132.0, 12.3)">=</text><text xml:space="preserve" font-family="Monaco,Monaco" font-size="18.4" fill="#1497FC" transform="matrix(1.00, 0.00, -0.00, -1.00, 143.1, 12.3)"> </text><text xml:space="preserve" font-family="Monaco,Monaco" font-size="18.4" fill="#1497FC" transform="matrix(1.00, 0.00, -0.00, -1.00, 154.1, 12.3)">N</text><text xml:space="preserve" font-family="Monaco,Monaco" font-size="18.4" fill="#1497FC" transform="matrix(1.00, 0.00, -0.00, -1.00, 165.1, 12.3)">U</text><text xml:space="preserve" font-family="Monaco,Monaco" font-size="18.4" fill="#1497FC" transform="matrix(1.00, 0.00, -0.00, -1.00, 176.1, 12.3)">L</text><text xml:space="preserve" font-family="Monaco,Monaco" font-size="18.4" fill="#1497FC" transform="matrix(1.00, 0.00, -0.00, -1.00, 187.1, 12.3)">L</text><text xml:space="preserve" font-family="Monaco,Monaco" font-size="18.4" fill="#1497FC" transform="matrix(1.00, 0.00, -0.00, -1.00, 198.2, 12.3)">;</text></g></svg>