<?xml version="1.0" encoding="UTF-8" standalone="no"?><svg xmlns="http://www.w3.org/2000/svg" xmlns:xlink="http://www.w3.org/1999/xlink" clip-rule="evenodd" stroke-miterlimit="10" viewBox="0 0 172 28"><desc>SVG generated by Keynote</desc><defs></defs><g transform="matrix(1.00, 0.00, -0.00, -1.00, 0.0, 28.0)"><image xlink:href="B0745FA7D843D20795FC57FDB1A5E841.png" width="7.00" height="7.00" transform="matrix(1.00, 0.00, -0.00, -1.00, 4.0, 21.0)"></image><g><clipPath id="clip0x7fc208db9f20"><path d="M 4.0 14.4 L 10.4 14.4 L 10.4 20.8 L 4.0 20.8 Z M 4.0 14.4 "></path></clipPath><g clip-path="url(#clip0x7fc208db9f20)"><g><g><clipPath id="clip0x7fc208dc8fc0"><path d="M 4.0 20.8 L 10.4 20.8 L 10.4 14.4 L 4.0 14.4 Z M 4.0 20.8 "></path></clipPath><g clip-path="url(#clip0x7fc208dc8fc0)"><g><clipPath id="clip0x7fc208dc9720"><path d="M 0.0 7.0 L 15.0 7.0 L 15.0 28.0 L 0.0 28.0 Z M 0.0 7.0 "></path></clipPath><g clip-path="url(#clip0x7fc208dc9720)"><path d="M 10.4 19.5 C 10.4 19.8 10.3 20.1 10.0 20.4 C 9.7 20.7 9.4 20.8 9.1 20.8 C 9.0 20.8 8.7 20.7 8.4 20.6 C 7.9 20.4 7.5 20.2 7.2 20.2 C 6.8 20.2 6.4 20.4 5.9 20.6 C 5.6 20.7 5.4 20.8 5.3 20.8 C 5.0 20.8 4.7 20.7 4.4 20.4 C 4.1 20.1 4.0 19.8 4.0 19.5 C 4.0 19.4 4.1 19.1 4.2 18.8 C 4.4 18.4 4.5 18.0 4.5 17.6 C 4.5 17.3 4.4 16.8 4.2 16.4 C 4.1 16.1 4.0 15.8 4.0 15.7 C 4.0 15.4 4.1 15.1 4.4 14.8 C 4.7 14.5 5.0 14.4 5.3 14.4 C 5.4 14.4 5.6 14.5 5.9 14.6 C 6.4 14.9 6.8 15.0 7.2 15.0 C 7.5 15.0 7.9 14.9 8.4 14.6 C 8.7 14.5 9.0 14.4 9.1 14.4 C 9.4 14.4 9.7 14.5 10.0 14.8 C 10.3 15.1 10.4 15.4 10.4 15.7 C 10.4 15.8 10.3 16.1 10.2 16.4 C 9.9 16.8 9.8 17.3 9.8 17.6 C 9.8 18.0 9.9 18.4 10.2 18.8 C 10.3 19.1 10.4 19.4 10.4 19.5 " fill="#FFFFFF"></path></g></g></g></g></g></g></g><image xlink:href="BD4492C9C11AE6F558F385A444B94C89.png" width="152.00" height="26.00" transform="matrix(1.00, 0.00, -0.00, -1.00, 19.0, 27.0)"></image><text xml:space="preserve" font-family="HelveticaNeue,Helvetica Neue" font-size="18.4" fill="#FEFFFE" transform="matrix(1.00, 0.00, -0.00, -1.00, 21.9, 12.8)">P</text><text xml:space="preserve" font-family="HelveticaNeue,Helvetica Neue" font-size="18.4" fill="#FEFFFE" transform="matrix(1.00, 0.00, -0.00, -1.00, 33.7, 12.8)">o</text><text xml:space="preserve" font-family="HelveticaNeue,Helvetica Neue" font-size="18.4" fill="#FEFFFE" transform="matrix(1.00, 0.00, -0.00, -1.00, 44.3, 12.8)">i</text><text xml:space="preserve" font-family="HelveticaNeue,Helvetica Neue" font-size="18.4" fill="#FEFFFE" transform="matrix(1.00, 0.00, -0.00, -1.00, 48.4, 12.8)">n</text><text xml:space="preserve" font-family="HelveticaNeue,Helvetica Neue" font-size="18.4" fill="#FEFFFE" transform="matrix(1.00, 0.00, -0.00, -1.00, 58.6, 12.8)">t</text><text xml:space="preserve" font-family="HelveticaNeue,Helvetica Neue" font-size="18.4" fill="#FEFFFE" transform="matrix(1.00, 0.00, -0.00, -1.00, 64.4, 12.8)">e</text><text xml:space="preserve" font-family="HelveticaNeue,Helvetica Neue" font-size="18.4" fill="#FEFFFE" transform="matrix(1.00, 0.00, -0.00, -1.00, 74.2, 12.8)">r</text><text xml:space="preserve" font-family="HelveticaNeue,Helvetica Neue" font-size="18.4" fill="#FEFFFE" transform="matrix(1.00, 0.00, -0.00, -1.00, 80.3, 12.8)"> </text><text xml:space="preserve" font-family="HelveticaNeue,Helvetica Neue" font-size="18.4" fill="#FEFFFE" transform="matrix(1.00, 0.00, -0.00, -1.00, 85.4, 12.8)">t</text><text xml:space="preserve" font-family="HelveticaNeue,Helvetica Neue" font-size="18.4" fill="#FEFFFE" transform="matrix(1.00, 0.00, -0.00, -1.00, 91.2, 12.8)">o</text><text xml:space="preserve" font-family="HelveticaNeue,Helvetica Neue" font-size="18.4" fill="#FEFFFE" transform="matrix(1.00, 0.00, -0.00, -1.00, 101.8, 12.8)"> </text><text xml:space="preserve" font-family="HelveticaNeue,Helvetica Neue" font-size="18.4" fill="#FEFFFE" transform="matrix(1.00, 0.00, -0.00, -1.00, 106.9, 12.8)">a</text><text xml:space="preserve" font-family="HelveticaNeue,Helvetica Neue" font-size="18.4" fill="#FEFFFE" transform="matrix(1.00, 0.00, -0.00, -1.00, 116.7, 12.8)"> </text><text xml:space="preserve" font-family="HelveticaNeue,Helvetica Neue" font-size="18.4" fill="#FEFFFE" transform="matrix(1.00, 0.00, -0.00, -1.00, 121.8, 12.8)">s</text><text xml:space="preserve" font-family="HelveticaNeue,Helvetica Neue" font-size="18.4" fill="#FEFFFE" transform="matrix(1.00, 0.00, -0.00, -1.00, 131.0, 12.8)">t</text><text xml:space="preserve" font-family="HelveticaNeue,Helvetica Neue" font-size="18.4" fill="#FEFFFE" transform="matrix(1.00, 0.00, -0.00, -1.00, 136.8, 12.8)">r</text><text xml:space="preserve" font-family="HelveticaNeue,Helvetica Neue" font-size="18.4" fill="#FEFFFE" transform="matrix(1.00, 0.00, -0.00, -1.00, 142.9, 12.8)">i</text><text xml:space="preserve" font-family="HelveticaNeue,Helvetica Neue" font-size="18.4" fill="#FEFFFE" transform="matrix(1.00, 0.00, -0.00, -1.00, 147.0, 12.8)">n</text><text xml:space="preserve" font-family="HelveticaNeue,Helvetica Neue" font-size="18.4" fill="#FEFFFE" transform="matrix(1.00, 0.00, -0.00, -1.00, 157.2, 12.8)">g</text></g></svg>