<?xml version="1.0" encoding="UTF-8" standalone="no"?><svg xmlns="http://www.w3.org/2000/svg" xmlns:xlink="http://www.w3.org/1999/xlink" clip-rule="evenodd" stroke-miterlimit="10" viewBox="0 0 189 30"><desc>SVG generated by Keynote</desc><defs></defs><g transform="matrix(1.00, 0.00, -0.00, -1.00, 0.0, 30.0)"><image xlink:href="9D29EECE59062A595D5D4F6D53C6C547.png" width="7.00" height="8.00" transform="matrix(1.00, 0.00, -0.00, -1.00, 4.0, 22.0)"></image><g><clipPath id="clip0x7f8535b28b10"><path d="M 4.0 14.2 L 10.9 14.2 L 10.9 21.1 L 4.0 21.1 Z M 4.0 14.2 "></path></clipPath><g clip-path="url(#clip0x7f8535b28b10)"><g><g><clipPath id="clip0x7f8535b2b2c0"><path d="M 4.0 21.1 L 10.9 21.1 L 10.9 14.2 L 4.0 14.2 Z M 4.0 21.1 "></path></clipPath><g clip-path="url(#clip0x7f8535b2b2c0)"><g><clipPath id="clip0x7f8535b2b9f0"><path d="M 0.0 7.0 L 15.0 7.0 L 15.0 29.0 L 0.0 29.0 Z M 0.0 7.0 "></path></clipPath><g clip-path="url(#clip0x7f8535b2b9f0)"><path d="M 10.9 19.7 C 10.9 20.0 10.7 20.3 10.4 20.6 C 10.1 20.9 9.8 21.1 9.5 21.1 C 9.3 21.1 9.1 21.0 8.8 20.8 C 8.2 20.6 7.8 20.5 7.4 20.5 C 7.0 20.5 6.6 20.6 6.1 20.8 C 5.7 21.0 5.5 21.1 5.3 21.1 C 5.0 21.1 4.7 20.9 4.4 20.6 C 4.1 20.3 4.0 20.0 4.0 19.7 C 4.0 19.6 4.1 19.3 4.2 19.0 C 4.5 18.5 4.6 18.0 4.6 17.6 C 4.6 17.3 4.5 16.8 4.2 16.3 C 4.1 16.0 4.0 15.7 4.0 15.6 C 4.0 15.3 4.1 15.0 4.4 14.7 C 4.7 14.4 5.0 14.2 5.3 14.2 C 5.5 14.2 5.7 14.3 6.1 14.4 C 6.6 14.7 7.0 14.8 7.4 14.8 C 7.8 14.8 8.2 14.7 8.8 14.4 C 9.1 14.3 9.3 14.2 9.5 14.2 C 9.8 14.2 10.1 14.4 10.4 14.7 C 10.7 15.0 10.9 15.3 10.9 15.6 C 10.9 15.7 10.8 16.0 10.6 16.3 C 10.4 16.8 10.2 17.3 10.2 17.6 C 10.2 18.0 10.4 18.5 10.6 19.0 C 10.8 19.3 10.9 19.6 10.9 19.7 " fill="#FFFFFF"></path></g></g></g></g></g></g></g><image xlink:href="885D1E6E84AA5D1DEB958AC0F881F171.png" width="169.00" height="28.00" transform="matrix(1.00, 0.00, -0.00, -1.00, 19.0, 29.0)"></image><text xml:space="preserve" font-family="Monaco,Monaco" font-size="18.4" fill="#1497FC" transform="matrix(1.00, 0.00, -0.00, -1.00, 21.9, 12.8)">i</text><text xml:space="preserve" font-family="Monaco,Monaco" font-size="18.4" fill="#1497FC" transform="matrix(1.00, 0.00, -0.00, -1.00, 32.9, 12.8)">n</text><text xml:space="preserve" font-family="Monaco,Monaco" font-size="18.4" fill="#1497FC" transform="matrix(1.00, 0.00, -0.00, -1.00, 43.9, 12.8)">t</text><text xml:space="preserve" font-family="Monaco,Monaco" font-size="18.4" fill="#1497FC" transform="matrix(1.00, 0.00, -0.00, -1.00, 54.9, 12.8)"> </text><text xml:space="preserve" font-family="Monaco,Monaco" font-size="18.4" fill="#1497FC" transform="matrix(1.00, 0.00, -0.00, -1.00, 65.9, 12.8)">*</text><text xml:space="preserve" font-family="Monaco,Monaco" font-size="18.4" fill="#1497FC" transform="matrix(1.00, 0.00, -0.00, -1.00, 76.9, 12.8)">p</text><text xml:space="preserve" font-family="Monaco,Monaco" font-size="18.4" fill="#1497FC" transform="matrix(1.00, 0.00, -0.00, -1.00, 88.0, 12.8)">i</text><text xml:space="preserve" font-family="Monaco,Monaco" font-size="18.4" fill="#1497FC" transform="matrix(1.00, 0.00, -0.00, -1.00, 99.0, 12.8)"> </text><text xml:space="preserve" font-family="Monaco,Monaco" font-size="18.4" fill="#1497FC" transform="matrix(1.00, 0.00, -0.00, -1.00, 110.0, 12.8)">=</text><text xml:space="preserve" font-family="Monaco,Monaco" font-size="18.4" fill="#1497FC" transform="matrix(1.00, 0.00, -0.00, -1.00, 121.0, 12.8)"> </text><text xml:space="preserve" font-family="Monaco,Monaco" font-size="18.4" fill="#1497FC" transform="matrix(1.00, 0.00, -0.00, -1.00, 132.0, 12.8)">N</text><text xml:space="preserve" font-family="Monaco,Monaco" font-size="18.4" fill="#1497FC" transform="matrix(1.00, 0.00, -0.00, -1.00, 143.1, 12.8)">U</text><text xml:space="preserve" font-family="Monaco,Monaco" font-size="18.4" fill="#1497FC" transform="matrix(1.00, 0.00, -0.00, -1.00, 154.1, 12.8)">L</text><text xml:space="preserve" font-family="Monaco,Monaco" font-size="18.4" fill="#1497FC" transform="matrix(1.00, 0.00, -0.00, -1.00, 165.1, 12.8)">L</text><text xml:space="preserve" font-family="Monaco,Monaco" font-size="18.4" fill="#1497FC" transform="matrix(1.00, 0.00, -0.00, -1.00, 176.1, 12.8)">;</text></g></svg>