<?xml version="1.0" encoding="UTF-8" standalone="no"?><svg xmlns="http://www.w3.org/2000/svg" xmlns:xlink="http://www.w3.org/1999/xlink" clip-rule="evenodd" stroke-miterlimit="10" viewBox="0 0 302 28"><desc>SVG generated by Keynote</desc><defs></defs><g transform="matrix(1.00, 0.00, -0.00, -1.00, 0.0, 28.0)"><image xlink:href="123D6FB84B3CF89C5BABFCFEE93CE8C6.png" width="7.00" height="8.00" transform="matrix(1.00, 0.00, -0.00, -1.00, 4.0, 21.0)"></image><g><clipPath id="clip0x6000008be1e0"><path d="M 4.0 13.8 L 10.4 13.8 L 10.4 20.3 L 4.0 20.3 Z M 4.0 13.8 "></path></clipPath><g clip-path="url(#clip0x6000008be1e0)"><g><g><clipPath id="clip0x6000008be540"><path d="M 4.0 20.3 L 10.4 20.3 L 10.4 13.8 L 4.0 13.8 Z M 4.0 20.3 "></path></clipPath><g clip-path="url(#clip0x6000008be540)"><g><clipPath id="clip0x6000008be720"><path d="M 0.0 6.0 L 15.0 6.0 L 15.0 28.0 L 0.0 28.0 Z M 0.0 6.0 "></path></clipPath><g clip-path="url(#clip0x6000008be720)"><path d="M 10.4 19.0 C 10.4 19.3 10.3 19.5 10.0 19.8 C 9.7 20.1 9.4 20.3 9.1 20.3 C 9.0 20.3 8.7 20.2 8.4 20.0 C 7.9 19.8 7.5 19.7 7.2 19.7 C 6.8 19.7 6.4 19.8 5.9 20.0 C 5.6 20.2 5.4 20.3 5.3 20.3 C 5.0 20.3 4.7 20.1 4.4 19.8 C 4.1 19.6 4.0 19.3 4.0 19.0 C 4.0 18.8 4.1 18.6 4.2 18.3 C 4.4 17.8 4.5 17.4 4.5 17.0 C 4.5 16.7 4.4 16.3 4.2 15.8 C 4.1 15.5 4.0 15.3 4.0 15.1 C 4.0 14.8 4.1 14.5 4.4 14.3 C 4.7 14.0 5.0 13.8 5.3 13.8 C 5.4 13.8 5.6 13.9 5.9 14.1 C 6.4 14.3 6.8 14.4 7.2 14.4 C 7.5 14.4 7.9 14.3 8.4 14.1 C 8.7 13.9 9.0 13.8 9.1 13.8 C 9.4 13.8 9.7 14.0 10.0 14.3 C 10.3 14.5 10.4 14.8 10.4 15.1 C 10.4 15.3 10.3 15.5 10.2 15.8 C 9.9 16.3 9.8 16.7 9.8 17.0 C 9.8 17.4 9.9 17.8 10.2 18.3 C 10.3 18.6 10.4 18.8 10.4 19.0 " fill="#FFFFFF"></path></g></g></g></g></g></g></g><image xlink:href="6D1C6268112112A0891A181B11F47325.png" width="282.00" height="26.00" transform="matrix(1.00, 0.00, -0.00, -1.00, 19.0, 27.0)"></image><text xml:space="preserve" font-family="HelveticaNeue,Helvetica Neue" font-size="18.4" fill="#FEFFFE" transform="matrix(1.00, 0.00, -0.00, -1.00, 21.9, 12.3)">P</text><text xml:space="preserve" font-family="HelveticaNeue,Helvetica Neue" font-size="18.4" fill="#FEFFFE" transform="matrix(1.00, 0.00, -0.00, -1.00, 33.7, 12.3)">o</text><text xml:space="preserve" font-family="HelveticaNeue,Helvetica Neue" font-size="18.4" fill="#FEFFFE" transform="matrix(1.00, 0.00, -0.00, -1.00, 44.3, 12.3)">i</text><text xml:space="preserve" font-family="HelveticaNeue,Helvetica Neue" font-size="18.4" fill="#FEFFFE" transform="matrix(1.00, 0.00, -0.00, -1.00, 48.4, 12.3)">n</text><text xml:space="preserve" font-family="HelveticaNeue,Helvetica Neue" font-size="18.4" fill="#FEFFFE" transform="matrix(1.00, 0.00, -0.00, -1.00, 58.6, 12.3)">t</text><text xml:space="preserve" font-family="HelveticaNeue,Helvetica Neue" font-size="18.4" fill="#FEFFFE" transform="matrix(1.00, 0.00, -0.00, -1.00, 64.4, 12.3)">e</text><text xml:space="preserve" font-family="HelveticaNeue,Helvetica Neue" font-size="18.4" fill="#FEFFFE" transform="matrix(1.00, 0.00, -0.00, -1.00, 74.2, 12.3)">r</text><text xml:space="preserve" font-family="HelveticaNeue,Helvetica Neue" font-size="18.4" fill="#FEFFFE" transform="matrix(1.00, 0.00, -0.00, -1.00, 80.3, 12.3)"> </text><text xml:space="preserve" font-family="HelveticaNeue,Helvetica Neue" font-size="18.4" fill="#FEFFFE" transform="matrix(1.00, 0.00, -0.00, -1.00, 85.4, 12.3)">t</text><text xml:space="preserve" font-family="HelveticaNeue,Helvetica Neue" font-size="18.4" fill="#FEFFFE" transform="matrix(1.00, 0.00, -0.00, -1.00, 91.2, 12.3)">o</text><text xml:space="preserve" font-family="HelveticaNeue,Helvetica Neue" font-size="18.4" fill="#FEFFFE" transform="matrix(1.00, 0.00, -0.00, -1.00, 101.8, 12.3)"> </text><text xml:space="preserve" font-family="HelveticaNeue,Helvetica Neue" font-size="18.4" fill="#FEFFFE" transform="matrix(1.00, 0.00, -0.00, -1.00, 106.9, 12.3)">a</text><text xml:space="preserve" font-family="HelveticaNeue,Helvetica Neue" font-size="18.4" fill="#FEFFFE" transform="matrix(1.00, 0.00, -0.00, -1.00, 116.7, 12.3)">n</text><text xml:space="preserve" font-family="HelveticaNeue,Helvetica Neue" font-size="18.4" fill="#FEFFFE" transform="matrix(1.00, 0.00, -0.00, -1.00, 126.9, 12.3)"> </text><text xml:space="preserve" font-family="HelveticaNeue,Helvetica Neue" font-size="18.4" fill="#FEFFFE" transform="matrix(1.00, 0.00, -0.00, -1.00, 132.0, 12.3)">i</text><text xml:space="preserve" font-family="HelveticaNeue,Helvetica Neue" font-size="18.4" fill="#FEFFFE" transform="matrix(1.00, 0.00, -0.00, -1.00, 136.1, 12.3)">n</text><text xml:space="preserve" font-family="HelveticaNeue,Helvetica Neue" font-size="18.4" fill="#FEFFFE" transform="matrix(1.00, 0.00, -0.00, -1.00, 146.3, 12.3)">t</text><text xml:space="preserve" font-family="HelveticaNeue,Helvetica Neue" font-size="18.4" fill="#FEFFFE" transform="matrix(1.00, 0.00, -0.00, -1.00, 152.1, 12.3)">*</text><text xml:space="preserve" font-family="HelveticaNeue,Helvetica Neue" font-size="18.4" fill="#FEFFFE" transform="matrix(1.00, 0.00, -0.00, -1.00, 158.6, 12.3)"> </text><text xml:space="preserve" font-family="HelveticaNeue,Helvetica Neue" font-size="18.4" fill="#FEFFFE" transform="matrix(1.00, 0.00, -0.00, -1.00, 163.7, 12.3)">(</text><text xml:space="preserve" font-family="HelveticaNeue,Helvetica Neue" font-size="18.4" fill="#FEFFFE" transform="matrix(1.00, 0.00, -0.00, -1.00, 168.4, 12.3)">d</text><text xml:space="preserve" font-family="HelveticaNeue,Helvetica Neue" font-size="18.4" fill="#FEFFFE" transform="matrix(1.00, 0.00, -0.00, -1.00, 179.3, 12.3)">o</text><text xml:space="preserve" font-family="HelveticaNeue,Helvetica Neue" font-size="18.4" fill="#FEFFFE" transform="matrix(1.00, 0.00, -0.00, -1.00, 189.8, 12.3)">u</text><text xml:space="preserve" font-family="HelveticaNeue,Helvetica Neue" font-size="18.4" fill="#FEFFFE" transform="matrix(1.00, 0.00, -0.00, -1.00, 200.1, 12.3)">b</text><text xml:space="preserve" font-family="HelveticaNeue,Helvetica Neue" font-size="18.4" fill="#FEFFFE" transform="matrix(1.00, 0.00, -0.00, -1.00, 210.9, 12.3)">l</text><text xml:space="preserve" font-family="HelveticaNeue,Helvetica Neue" font-size="18.4" fill="#FEFFFE" transform="matrix(1.00, 0.00, -0.00, -1.00, 215.0, 12.3)">e</text><text xml:space="preserve" font-family="HelveticaNeue,Helvetica Neue" font-size="18.4" fill="#FEFFFE" transform="matrix(1.00, 0.00, -0.00, -1.00, 224.9, 12.3)"> </text><text xml:space="preserve" font-family="HelveticaNeue,Helvetica Neue" font-size="18.4" fill="#FEFFFE" transform="matrix(1.00, 0.00, -0.00, -1.00, 230.0, 12.3)">p</text><text xml:space="preserve" font-family="HelveticaNeue,Helvetica Neue" font-size="18.4" fill="#FEFFFE" transform="matrix(1.00, 0.00, -0.00, -1.00, 240.9, 12.3)">o</text><text xml:space="preserve" font-family="HelveticaNeue,Helvetica Neue" font-size="18.4" fill="#FEFFFE" transform="matrix(1.00, 0.00, -0.00, -1.00, 251.4, 12.3)">i</text><text xml:space="preserve" font-family="HelveticaNeue,Helvetica Neue" font-size="18.4" fill="#FEFFFE" transform="matrix(1.00, 0.00, -0.00, -1.00, 255.5, 12.3)">n</text><text xml:space="preserve" font-family="HelveticaNeue,Helvetica Neue" font-size="18.4" fill="#FEFFFE" transform="matrix(1.00, 0.00, -0.00, -1.00, 265.7, 12.3)">t</text><text xml:space="preserve" font-family="HelveticaNeue,Helvetica Neue" font-size="18.4" fill="#FEFFFE" transform="matrix(1.00, 0.00, -0.00, -1.00, 271.5, 12.3)">e</text><text xml:space="preserve" font-family="HelveticaNeue,Helvetica Neue" font-size="18.4" fill="#FEFFFE" transform="matrix(1.00, 0.00, -0.00, -1.00, 281.3, 12.3)">r</text><text xml:space="preserve" font-family="HelveticaNeue,Helvetica Neue" font-size="18.4" fill="#FEFFFE" transform="matrix(1.00, 0.00, -0.00, -1.00, 287.4, 12.3)">!</text><text xml:space="preserve" font-family="HelveticaNeue,Helvetica Neue" font-size="18.4" fill="#FEFFFE" transform="matrix(1.00, 0.00, -0.00, -1.00, 292.2, 12.3)">)</text></g></svg>