<?xml version="1.0" encoding="UTF-8" standalone="no"?><svg xmlns="http://www.w3.org/2000/svg" xmlns:xlink="http://www.w3.org/1999/xlink" clip-rule="evenodd" stroke-miterlimit="10" viewBox="0 0 16 16"><desc>SVG generated by Keynote</desc><defs></defs><g transform="matrix(1.00, 0.00, -0.00, -1.00, 0.0, 16.0)"><image xlink:href="0DAE7D80C6B958038497639FADB37408.png" width="8.00" height="8.00" transform="matrix(1.00, 0.00, -0.00, -1.00, 4.0, 15.0)"></image><g><clipPath id="clip0x7fdf02e4cb40"><path d="M 4.0 7.3 L 11.1 7.3 L 11.1 14.5 L 4.0 14.5 Z M 4.0 7.3 "></path></clipPath><g clip-path="url(#clip0x7fdf02e4cb40)"><g><g><clipPath id="clip0x7fdf02e4e760"><path d="M 4.0 14.5 L 11.1 14.5 L 11.1 7.3 L 4.0 7.3 Z M 4.0 14.5 "></path></clipPath><g clip-path="url(#clip0x7fdf02e4e760)"><g><clipPath id="clip0x7fdf02e4eec0"><path d="M 0.0 0.0 L 16.0 0.0 L 16.0 22.0 L 0.0 22.0 Z M 0.0 0.0 "></path></clipPath><g clip-path="url(#clip0x7fdf02e4eec0)"><path d="M 11.1 13.1 C 11.1 13.4 11.0 13.7 10.7 14.0 C 10.4 14.4 10.1 14.5 9.7 14.5 C 9.6 14.5 9.3 14.4 8.9 14.3 C 8.4 14.0 7.9 13.9 7.5 13.9 C 7.1 13.9 6.7 14.0 6.2 14.3 C 5.8 14.4 5.6 14.5 5.4 14.5 C 5.1 14.5 4.7 14.4 4.4 14.0 C 4.1 13.7 4.0 13.4 4.0 13.1 C 4.0 12.9 4.1 12.6 4.3 12.3 C 4.5 11.8 4.6 11.3 4.6 10.9 C 4.6 10.5 4.5 10.1 4.3 9.5 C 4.1 9.2 4.0 8.9 4.0 8.8 C 4.0 8.4 4.1 8.1 4.4 7.8 C 4.7 7.5 5.1 7.3 5.4 7.3 C 5.6 7.3 5.8 7.4 6.2 7.6 C 6.7 7.9 7.1 8.0 7.5 8.0 C 7.9 8.0 8.4 7.9 8.9 7.6 C 9.3 7.4 9.6 7.3 9.7 7.3 C 10.1 7.3 10.4 7.5 10.7 7.8 C 11.0 8.1 11.1 8.4 11.1 8.8 C 11.1 8.9 11.1 9.2 10.9 9.5 C 10.6 10.1 10.5 10.5 10.5 10.9 C 10.5 11.3 10.6 11.8 10.9 12.3 C 11.1 12.6 11.1 12.9 11.1 13.1 " fill="#FFFFFF"></path></g></g></g></g></g></g></g></g></svg>