<?xml version="1.0" encoding="UTF-8" standalone="no"?><svg xmlns="http://www.w3.org/2000/svg" xmlns:xlink="http://www.w3.org/1999/xlink" clip-rule="evenodd" stroke-miterlimit="10" viewBox="0 0 16 17"><desc>SVG generated by Keynote</desc><defs></defs><g transform="matrix(1.00, 0.00, -0.00, -1.00, 0.0, 17.0)"><image xlink:href="8C4ADCFDFC5D6E263883D47719AFE720.png" width="8.00" height="9.00" transform="matrix(1.00, 0.00, -0.00, -1.00, 4.0, 16.0)"></image><g><clipPath id="clip0x7fdee343d190"><path d="M 4.0 7.9 L 11.1 7.9 L 11.1 15.1 L 4.0 15.1 Z M 4.0 7.9 "></path></clipPath><g clip-path="url(#clip0x7fdee343d190)"><g><g><clipPath id="clip0x7fdee343f360"><path d="M 4.0 15.1 L 11.1 15.1 L 11.1 7.9 L 4.0 7.9 Z M 4.0 15.1 "></path></clipPath><g clip-path="url(#clip0x7fdee343f360)"><g><clipPath id="clip0x7fdee343fad0"><path d="M 0.0 0.0 L 16.0 0.0 L 16.0 23.0 L 0.0 23.0 Z M 0.0 0.0 "></path></clipPath><g clip-path="url(#clip0x7fdee343fad0)"><path d="M 11.1 13.6 C 11.1 13.9 11.0 14.3 10.7 14.6 C 10.4 14.9 10.1 15.1 9.7 15.1 C 9.6 15.1 9.3 15.0 8.9 14.8 C 8.4 14.6 7.9 14.4 7.5 14.4 C 7.1 14.4 6.7 14.6 6.2 14.8 C 5.8 15.0 5.6 15.1 5.4 15.1 C 5.1 15.1 4.7 14.9 4.4 14.6 C 4.1 14.3 4.0 14.0 4.0 13.6 C 4.0 13.5 4.1 13.2 4.3 12.8 C 4.5 12.3 4.6 11.9 4.6 11.5 C 4.6 11.1 4.5 10.6 4.3 10.1 C 4.1 9.8 4.0 9.5 4.0 9.3 C 4.0 9.0 4.1 8.7 4.4 8.4 C 4.7 8.1 5.1 7.9 5.4 7.9 C 5.6 7.9 5.8 8.0 6.2 8.2 C 6.7 8.4 7.1 8.5 7.5 8.5 C 7.9 8.5 8.4 8.4 8.9 8.2 C 9.3 8.0 9.6 7.9 9.7 7.9 C 10.1 7.9 10.4 8.1 10.7 8.4 C 11.0 8.7 11.1 9.0 11.1 9.3 C 11.1 9.5 11.1 9.8 10.9 10.1 C 10.6 10.6 10.5 11.1 10.5 11.5 C 10.5 11.9 10.6 12.3 10.9 12.8 C 11.1 13.2 11.1 13.5 11.1 13.6 " fill="#FFFFFF"></path></g></g></g></g></g></g></g></g></svg>