<?xml version="1.0" encoding="UTF-8" standalone="no"?><svg xmlns="http://www.w3.org/2000/svg" xmlns:xlink="http://www.w3.org/1999/xlink" clip-rule="evenodd" stroke-miterlimit="10" viewBox="0 0 16 16"><desc>SVG generated by Keynote</desc><defs></defs><g transform="matrix(1.00, 0.00, -0.00, -1.00, 0.0, 16.0)"><image xlink:href="DA95D2E0C01DC00AEB884D6902FEF1D5.png" width="8.00" height="8.00" transform="matrix(1.00, 0.00, -0.00, -1.00, 4.0, 15.0)"></image><g><clipPath id="clip0x7fdf02e35f10"><path d="M 4.0 7.4 L 11.1 7.4 L 11.1 14.6 L 4.0 14.6 Z M 4.0 7.4 "></path></clipPath><g clip-path="url(#clip0x7fdf02e35f10)"><g><g><clipPath id="clip0x7fdf02e380a0"><path d="M 4.0 14.6 L 11.1 14.6 L 11.1 7.4 L 4.0 7.4 Z M 4.0 14.6 "></path></clipPath><g clip-path="url(#clip0x7fdf02e380a0)"><g><clipPath id="clip0x7fdf02e389d0"><path d="M 0.0 0.0 L 16.0 0.0 L 16.0 22.0 L 0.0 22.0 Z M 0.0 0.0 "></path></clipPath><g clip-path="url(#clip0x7fdf02e389d0)"><path d="M 11.1 13.1 C 11.1 13.4 11.0 13.7 10.7 14.1 C 10.4 14.4 10.1 14.6 9.7 14.6 C 9.6 14.6 9.3 14.5 8.9 14.3 C 8.4 14.0 7.9 13.9 7.5 13.9 C 7.1 13.9 6.7 14.0 6.2 14.3 C 5.8 14.5 5.6 14.6 5.4 14.6 C 5.1 14.6 4.7 14.4 4.4 14.1 C 4.1 13.8 4.0 13.5 4.0 13.1 C 4.0 13.0 4.1 12.7 4.3 12.3 C 4.5 11.8 4.6 11.3 4.6 11.0 C 4.6 10.6 4.5 10.1 4.3 9.6 C 4.1 9.2 4.0 9.0 4.0 8.8 C 4.0 8.5 4.1 8.2 4.4 7.8 C 4.7 7.5 5.1 7.4 5.4 7.4 C 5.6 7.4 5.8 7.5 6.2 7.6 C 6.7 7.9 7.1 8.0 7.5 8.0 C 7.9 8.0 8.4 7.9 8.9 7.6 C 9.3 7.5 9.6 7.4 9.7 7.4 C 10.1 7.4 10.4 7.5 10.7 7.8 C 11.0 8.2 11.1 8.5 11.1 8.8 C 11.1 9.0 11.1 9.2 10.9 9.6 C 10.6 10.1 10.5 10.6 10.5 11.0 C 10.5 11.3 10.6 11.8 10.9 12.3 C 11.1 12.7 11.1 13.0 11.1 13.1 " fill="#FFFFFF"></path></g></g></g></g></g></g></g></g></svg>