<?xml version="1.0" encoding="UTF-8" standalone="no"?><svg xmlns="http://www.w3.org/2000/svg" xmlns:xlink="http://www.w3.org/1999/xlink" clip-rule="evenodd" stroke-miterlimit="10" viewBox="0 0 15 16"><desc>SVG generated by Keynote</desc><defs></defs><g transform="matrix(1.00, 0.00, -0.00, -1.00, 0.0, 16.0)"><image xlink:href="CF3991CC6D725E95CB7B99F1508DF1F9.png" width="7.00" height="8.00" transform="matrix(1.00, 0.00, -0.00, -1.00, 4.0, 15.0)"></image><g><clipPath id="clip0x7f9387685ba0"><path d="M 4.0 7.8 L 10.6 7.8 L 10.6 14.5 L 4.0 14.5 Z M 4.0 7.8 "></path></clipPath><g clip-path="url(#clip0x7f9387685ba0)"><g><g><clipPath id="clip0x7f93876868b0"><path d="M 4.0 14.5 L 10.6 14.5 L 10.6 7.8 L 4.0 7.8 Z M 4.0 14.5 "></path></clipPath><g clip-path="url(#clip0x7f93876868b0)"><g><clipPath id="clip0x7f9387688070"><path d="M 0.0 0.0 L 15.0 0.0 L 15.0 22.0 L 0.0 22.0 Z M 0.0 0.0 "></path></clipPath><g clip-path="url(#clip0x7f9387688070)"><path d="M 10.6 13.2 C 10.6 13.5 10.5 13.8 10.2 14.1 C 9.9 14.4 9.6 14.5 9.3 14.5 C 9.2 14.5 8.9 14.4 8.6 14.3 C 8.1 14.0 7.7 13.9 7.3 13.9 C 6.9 13.9 6.5 14.0 6.0 14.3 C 5.7 14.4 5.5 14.5 5.3 14.5 C 5.0 14.5 4.7 14.4 4.4 14.1 C 4.1 13.8 4.0 13.5 4.0 13.2 C 4.0 13.0 4.1 12.8 4.2 12.4 C 4.5 11.9 4.6 11.5 4.6 11.2 C 4.6 10.8 4.5 10.4 4.2 9.9 C 4.1 9.6 4.0 9.3 4.0 9.2 C 4.0 8.9 4.1 8.6 4.4 8.3 C 4.7 8.0 5.0 7.8 5.3 7.8 C 5.5 7.8 5.7 7.9 6.0 8.1 C 6.5 8.3 6.9 8.4 7.3 8.4 C 7.7 8.4 8.1 8.3 8.6 8.1 C 8.9 7.9 9.2 7.8 9.3 7.8 C 9.6 7.8 9.9 8.0 10.2 8.3 C 10.5 8.6 10.6 8.9 10.6 9.2 C 10.6 9.3 10.6 9.6 10.4 9.9 C 10.2 10.4 10.0 10.8 10.0 11.2 C 10.0 11.5 10.2 11.9 10.4 12.4 C 10.6 12.8 10.6 13.0 10.6 13.2 " fill="#FFFFFF"></path></g></g></g></g></g></g></g></g></svg>