<?xml version="1.0" encoding="UTF-8" standalone="no"?><svg xmlns="http://www.w3.org/2000/svg" xmlns:xlink="http://www.w3.org/1999/xlink" clip-rule="evenodd" stroke-miterlimit="10" viewBox="0 0 1024 768"><desc>SVG generated by Keynote</desc><defs></defs><g transform="matrix(1.00, 0.00, -0.00, -1.00, 0.0, 768.0)"><g><clipPath id="clip0x7f9385456520"><path d="M 0.0 768.0 L 1024.0 768.0 L 1024.0 0.0 L 0.0 0.0 Z M 0.0 768.0 "></path></clipPath><g clip-path="url(#clip0x7f9385456520)"><image xlink:href="../../8532EDA3-03AF-4F95-ADCC-1003E38AE155/assets/7D0D479F0D8AC86C9E875656D9072873.jpeg" width="2048.00" height="1536.00" transform="matrix(0.50, 0.00, -0.00, -0.50, 0.0, 768.0)"></image></g></g><g><clipPath id="clip0x7f93854c8610"><path d="M 23.0 726.0 L 728.0 726.0 L 728.0 64.0 L 23.0 64.0 Z M 23.1 725.5 "></path></clipPath><g clip-path="url(#clip0x7f93854c8610)"><image xlink:href="../../8897337E-D35F-4607-961D-DAE2DC5D2BE6/assets/535D9B09175C936BAC3783F1DAA4DB3C.png" width="1070.00" height="992.00" transform="matrix(0.66, 0.00, -0.00, -0.66, 23.0, 721.0)"></image></g></g><image xlink:href="../../8897337E-D35F-4607-961D-DAE2DC5D2BE6/assets/EC415A4A477AFF30A10EA9AC38BF76A0.png" width="735.00" height="694.00" transform="matrix(1.00, 0.00, -0.00, 1.00, 8.1, 46.6)"></image><g><clipPath id="clip0x7f93852986c0"><path d="M 598.0 731.0 L 1003.0 731.0 L 1003.0 456.0 L 598.0 456.0 Z M 597.8 730.6 "></path></clipPath><g clip-path="url(#clip0x7f93852986c0)"><image xlink:href="../../8897337E-D35F-4607-961D-DAE2DC5D2BE6/assets/51CAEF1C8C21F0C73905768B9E977AF0.png" width="666.00" height="454.00" transform="matrix(0.60, 0.00, -0.00, -0.61, 599.0, 731.0)"></image></g></g><image xlink:href="../../8897337E-D35F-4607-961D-DAE2DC5D2BE6/assets/953292174EAB1FFB33CBC700EC8CEC6D.png" width="435.00" height="306.00" transform="matrix(1.00, 0.00, -0.00, 1.00, 582.8, 439.4)"></image><g><clipPath id="clip0x7f93854cc4e0"><path d="M 610.0 392.0 L 1015.0 392.0 L 1015.0 143.0 L 610.0 143.0 Z M 610.1 392.1 "></path></clipPath><g clip-path="url(#clip0x7f93854cc4e0)"><image xlink:href="../../8897337E-D35F-4607-961D-DAE2DC5D2BE6/assets/10CD0E75CCDF830436BF208C924CBBF1.png" width="790.00" height="474.00" transform="matrix(0.51, 0.00, -0.00, -0.51, 610.0, 389.0)"></image></g></g><image xlink:href="../../8897337E-D35F-4607-961D-DAE2DC5D2BE6/assets/5AD6AF739150CFC428E2313D95A313AF.png" width="435.00" height="281.00" transform="matrix(1.00, 0.00, -0.00, 1.00, 595.1, 126.2)"></image></g></svg>