<?xml version="1.0" encoding="UTF-8" standalone="no"?><svg xmlns="http://www.w3.org/2000/svg" xmlns:xlink="http://www.w3.org/1999/xlink" clip-rule="evenodd" stroke-miterlimit="10" viewBox="0 0 1024 768"><desc>SVG generated by Keynote</desc><defs></defs><g transform="matrix(1.00, 0.00, -0.00, -1.00, 0.0, 768.0)"><g><clipPath id="clip0x7fdeff6754e0"><path d="M 0.0 768.0 L 1024.0 768.0 L 1024.0 0.0 L 0.0 0.0 Z M 0.0 768.0 "></path></clipPath><g clip-path="url(#clip0x7fdeff6754e0)"><image xlink:href="../../8532EDA3-03AF-4F95-ADCC-1003E38AE155/assets/7D0D479F0D8AC86C9E875656D9072873.jpeg" width="2048.00" height="1536.00" transform="matrix(0.50, 0.00, -0.00, -0.50, 0.0, 768.0)"></image></g></g><g><clipPath id="clip0x7fdeff2a7e90"><path d="M 41.0 275.0 L 570.0 275.0 L 570.0 30.0 L 41.0 30.0 Z M 40.8 275.2 "></path></clipPath><g clip-path="url(#clip0x7fdeff2a7e90)"><image xlink:href="3A1B2D2AEFD705C9F738DFDA6DA283F9.jpeg" width="1118.00" height="522.00" transform="matrix(0.47, 0.00, -0.00, -0.47, 41.0, 276.0)"></image></g></g><image xlink:href="21FA6E44030C7618B5E6EBEDEBA19AB2.png" width="559.00" height="278.00" transform="matrix(1.00, 0.00, -0.00, 1.00, 25.8, 12.7)"></image><g><clipPath id="clip0x7fdeff6765f0"><path d="M 54.0 733.0 L 465.0 733.0 L 465.0 302.0 L 54.0 302.0 Z M 54.2 732.6 "></path></clipPath><g clip-path="url(#clip0x7fdeff6765f0)"><image xlink:href="FA0A1D495F6ECF44081C2430AE5AF53D.jpeg" width="676.00" height="716.00" transform="matrix(0.61, 0.00, -0.00, -0.61, 54.0, 735.0)"></image></g></g><image xlink:href="A7A1A42C049837A389ABB461D3BE4BC1.png" width="441.00" height="462.00" transform="matrix(1.00, 0.00, -0.00, 1.00, 39.2, 285.5)"></image><image xlink:href="25F28D8A2CF738495E899D9A6965997F.jpeg" width="908.00" height="142.00" transform="matrix(0.44, 0.00, -0.00, -0.44, 586.0, 137.0)"></image><g><clipPath id="clip0x7fdeff0d7050"><path d="M 476.0 744.0 L 996.0 744.0 L 996.0 197.0 L 476.0 197.0 Z M 476.4 744.2 "></path></clipPath><g clip-path="url(#clip0x7fdeff0d7050)"><image xlink:href="18092CDF18B8570C96C4471BE828C7BB.jpeg" width="1004.00" height="1060.00" transform="matrix(0.52, 0.00, -0.00, -0.52, 477.0, 744.0)"></image></g></g><image xlink:href="2AB9AA864DAF1148BC58C134E1191F94.png" width="550.00" height="580.00" transform="matrix(1.00, 0.00, -0.00, 1.00, 461.4, 179.5)"></image></g></svg>