<?xml version="1.0" encoding="UTF-8" standalone="no"?><svg xmlns="http://www.w3.org/2000/svg" xmlns:xlink="http://www.w3.org/1999/xlink" clip-rule="evenodd" stroke-miterlimit="10" viewBox="0 0 1024 768"><desc>SVG generated by Keynote</desc><defs></defs><g transform="matrix(1.00, 0.00, -0.00, -1.00, 0.0, 768.0)"><g><clipPath id="clip0x6100008bae80"><path d="M 0.0 768.0 L 1024.0 768.0 L 1024.0 0.0 L 0.0 0.0 Z M 0.0 768.0 "></path></clipPath><g clip-path="url(#clip0x6100008bae80)"><image xlink:href="../../8532EDA3-03AF-4F95-ADCC-1003E38AE155/assets/7D0D479F0D8AC86C9E875656D9072873.jpeg" width="2048.00" height="1536.00" transform="matrix(0.50, 0.00, -0.00, -0.50, 0.0, 768.0)"></image></g></g><image xlink:href="../../6B0D228D-8312-4634-9092-5F59363EA82D/assets/43A9F51ED117133FBB63231F1BAC156B.png" width="576.00" height="76.00" transform="matrix(1.00, 0.00, -0.00, -1.00, 61.0, 722.0)"></image><text xml:space="preserve" font-family="HelveticaNeue-Light,Helvetica Neue" font-size="71.3" fill="#FEFFFE" transform="matrix(1.00, 0.00, -0.00, -1.00, 66.0, 668.3)">A</text><text xml:space="preserve" font-family="HelveticaNeue-Light,Helvetica Neue" font-size="71.3" fill="#FEFFFE" transform="matrix(1.00, 0.00, -0.00, -1.00, 110.9, 668.3)">l</text><text xml:space="preserve" font-family="HelveticaNeue-Light,Helvetica Neue" font-size="71.3" fill="#FEFFFE" transform="matrix(1.00, 0.00, -0.00, -1.00, 124.1, 668.3)">l</text><text xml:space="preserve" font-family="HelveticaNeue-Light,Helvetica Neue" font-size="71.3" fill="#FEFFFE" transform="matrix(1.00, 0.00, -0.00, -1.00, 137.3, 668.3)">o</text><text xml:space="preserve" font-family="HelveticaNeue-Light,Helvetica Neue" font-size="71.3" fill="#FEFFFE" transform="matrix(1.00, 0.00, -0.00, -1.00, 176.9, 668.3)">c</text><text xml:space="preserve" font-family="HelveticaNeue-Light,Helvetica Neue" font-size="71.3" fill="#FEFFFE" transform="matrix(1.00, 0.00, -0.00, -1.00, 213.9, 668.3)">a</text><text xml:space="preserve" font-family="HelveticaNeue-Light,Helvetica Neue" font-size="71.3" fill="#FEFFFE" transform="matrix(1.00, 0.00, -0.00, -1.00, 250.9, 668.3)">t</text><text xml:space="preserve" font-family="HelveticaNeue-Light,Helvetica Neue" font-size="71.3" fill="#FEFFFE" transform="matrix(1.00, 0.00, -0.00, -1.00, 272.0, 668.3)">i</text><text xml:space="preserve" font-family="HelveticaNeue-Light,Helvetica Neue" font-size="71.3" fill="#FEFFFE" transform="matrix(1.00, 0.00, -0.00, -1.00, 285.2, 668.3)">n</text><text xml:space="preserve" font-family="HelveticaNeue-Light,Helvetica Neue" font-size="71.3" fill="#FEFFFE" transform="matrix(1.00, 0.00, -0.00, -1.00, 323.5, 668.3)">g</text><text xml:space="preserve" font-family="HelveticaNeue-Light,Helvetica Neue" font-size="71.3" fill="#FEFFFE" transform="matrix(1.00, 0.00, -0.00, -1.00, 363.1, 668.3)"> </text><text xml:space="preserve" font-family="HelveticaNeue-Light,Helvetica Neue" font-size="71.3" fill="#FEFFFE" transform="matrix(1.00, 0.00, -0.00, -1.00, 382.9, 668.3)">O</text><text xml:space="preserve" font-family="HelveticaNeue-Light,Helvetica Neue" font-size="71.3" fill="#FEFFFE" transform="matrix(1.00, 0.00, -0.00, -1.00, 435.7, 668.3)">b</text><text xml:space="preserve" font-family="HelveticaNeue-Light,Helvetica Neue" font-size="71.3" fill="#FEFFFE" transform="matrix(1.00, 0.00, -0.00, -1.00, 476.6, 668.3)">j</text><text xml:space="preserve" font-family="HelveticaNeue-Light,Helvetica Neue" font-size="71.3" fill="#FEFFFE" transform="matrix(1.00, 0.00, -0.00, -1.00, 489.8, 668.3)">e</text><text xml:space="preserve" font-family="HelveticaNeue-Light,Helvetica Neue" font-size="71.3" fill="#FEFFFE" transform="matrix(1.00, 0.00, -0.00, -1.00, 526.8, 668.3)">c</text><text xml:space="preserve" font-family="HelveticaNeue-Light,Helvetica Neue" font-size="71.3" fill="#FEFFFE" transform="matrix(1.00, 0.00, -0.00, -1.00, 563.8, 668.3)">t</text><text xml:space="preserve" font-family="HelveticaNeue-Light,Helvetica Neue" font-size="71.3" fill="#FEFFFE" transform="matrix(1.00, 0.00, -0.00, -1.00, 584.9, 668.3)">s</text><text xml:space="preserve" font-family="HelveticaNeue-Light,Helvetica Neue" font-size="71.3" fill="#FEFFFE" transform="matrix(1.00, 0.00, -0.00, -1.00, 619.2, 668.3)">:</text><text xml:space="preserve" font-family="HelveticaNeue-Light,Helvetica Neue" font-size="71.3" fill="#FEFFFE" transform="matrix(1.00, 0.00, -0.00, -1.00, 639.0, 668.3)"> </text><image xlink:href="../../6B0D228D-8312-4634-9092-5F59363EA82D/assets/3DF6F3CD2C93B3F99EBC5DA760C873CA.png" width="894.00" height="61.00" transform="matrix(1.00, 0.00, -0.00, -1.00, 64.0, 635.0)"></image><text xml:space="preserve" font-family="HelveticaNeue-Light,Helvetica Neue" font-size="71.3" fill="#FEFFFE" transform="matrix(1.00, 0.00, -0.00, -1.00, 66.0, 582.3)">c</text><text xml:space="preserve" font-family="HelveticaNeue-Light,Helvetica Neue" font-size="71.3" fill="#FEFFFE" transform="matrix(1.00, 0.00, -0.00, -1.00, 103.0, 582.3)">o</text><text xml:space="preserve" font-family="HelveticaNeue-Light,Helvetica Neue" font-size="71.3" fill="#FEFFFE" transform="matrix(1.00, 0.00, -0.00, -1.00, 142.6, 582.3)">n</text><text xml:space="preserve" font-family="HelveticaNeue-Light,Helvetica Neue" font-size="71.3" fill="#FEFFFE" transform="matrix(1.00, 0.00, -0.00, -1.00, 180.9, 582.3)">s</text><text xml:space="preserve" font-family="HelveticaNeue-Light,Helvetica Neue" font-size="71.3" fill="#FEFFFE" transform="matrix(1.00, 0.00, -0.00, -1.00, 215.2, 582.3)">t</text><text xml:space="preserve" font-family="HelveticaNeue-Light,Helvetica Neue" font-size="71.3" fill="#FEFFFE" transform="matrix(1.00, 0.00, -0.00, -1.00, 236.3, 582.3)">r</text><text xml:space="preserve" font-family="HelveticaNeue-Light,Helvetica Neue" font-size="71.3" fill="#FEFFFE" transform="matrix(1.00, 0.00, -0.00, -1.00, 258.7, 582.3)">u</text><text xml:space="preserve" font-family="HelveticaNeue-Light,Helvetica Neue" font-size="71.3" fill="#FEFFFE" transform="matrix(1.00, 0.00, -0.00, -1.00, 297.0, 582.3)">c</text><text xml:space="preserve" font-family="HelveticaNeue-Light,Helvetica Neue" font-size="71.3" fill="#FEFFFE" transform="matrix(1.00, 0.00, -0.00, -1.00, 334.0, 582.3)">t</text><text xml:space="preserve" font-family="HelveticaNeue-Light,Helvetica Neue" font-size="71.3" fill="#FEFFFE" transform="matrix(1.00, 0.00, -0.00, -1.00, 355.1, 582.3)">o</text><text xml:space="preserve" font-family="HelveticaNeue-Light,Helvetica Neue" font-size="71.3" fill="#FEFFFE" transform="matrix(1.00, 0.00, -0.00, -1.00, 394.7, 582.3)">r</text><text xml:space="preserve" font-family="HelveticaNeue-Light,Helvetica Neue" font-size="71.3" fill="#FEFFFE" transform="matrix(1.00, 0.00, -0.00, -1.00, 417.2, 582.3)">s</text><text xml:space="preserve" font-family="HelveticaNeue-Light,Helvetica Neue" font-size="71.3" fill="#FEFFFE" transform="matrix(1.00, 0.00, -0.00, -1.00, 451.5, 582.3)"> </text><text xml:space="preserve" font-family="HelveticaNeue-Light,Helvetica Neue" font-size="71.3" fill="#FEFFFE" transform="matrix(1.00, 0.00, -0.00, -1.00, 471.3, 582.3)">a</text><text xml:space="preserve" font-family="HelveticaNeue-Light,Helvetica Neue" font-size="71.3" fill="#FEFFFE" transform="matrix(1.00, 0.00, -0.00, -1.00, 508.3, 582.3)">n</text><text xml:space="preserve" font-family="HelveticaNeue-Light,Helvetica Neue" font-size="71.3" fill="#FEFFFE" transform="matrix(1.00, 0.00, -0.00, -1.00, 546.6, 582.3)">d</text><text xml:space="preserve" font-family="HelveticaNeue-Light,Helvetica Neue" font-size="71.3" fill="#FEFFFE" transform="matrix(1.00, 0.00, -0.00, -1.00, 587.5, 582.3)"> </text><text xml:space="preserve" font-family="HelveticaNeue-Light,Helvetica Neue" font-size="71.3" fill="#FEFFFE" transform="matrix(1.00, 0.00, -0.00, -1.00, 607.3, 582.3)">d</text><text xml:space="preserve" font-family="HelveticaNeue-Light,Helvetica Neue" font-size="71.3" fill="#FEFFFE" transform="matrix(1.00, 0.00, -0.00, -1.00, 648.2, 582.3)">e</text><text xml:space="preserve" font-family="HelveticaNeue-Light,Helvetica Neue" font-size="71.3" fill="#FEFFFE" transform="matrix(1.00, 0.00, -0.00, -1.00, 685.2, 582.3)">s</text><text xml:space="preserve" font-family="HelveticaNeue-Light,Helvetica Neue" font-size="71.3" fill="#FEFFFE" transform="matrix(1.00, 0.00, -0.00, -1.00, 719.5, 582.3)">t</text><text xml:space="preserve" font-family="HelveticaNeue-Light,Helvetica Neue" font-size="71.3" fill="#FEFFFE" transform="matrix(1.00, 0.00, -0.00, -1.00, 740.6, 582.3)">r</text><text xml:space="preserve" font-family="HelveticaNeue-Light,Helvetica Neue" font-size="71.3" fill="#FEFFFE" transform="matrix(1.00, 0.00, -0.00, -1.00, 763.0, 582.3)">u</text><text xml:space="preserve" font-family="HelveticaNeue-Light,Helvetica Neue" font-size="71.3" fill="#FEFFFE" transform="matrix(1.00, 0.00, -0.00, -1.00, 801.3, 582.3)">c</text><text xml:space="preserve" font-family="HelveticaNeue-Light,Helvetica Neue" font-size="71.3" fill="#FEFFFE" transform="matrix(1.00, 0.00, -0.00, -1.00, 838.3, 582.3)">t</text><text xml:space="preserve" font-family="HelveticaNeue-Light,Helvetica Neue" font-size="71.3" fill="#FEFFFE" transform="matrix(1.00, 0.00, -0.00, -1.00, 859.4, 582.3)">o</text><text xml:space="preserve" font-family="HelveticaNeue-Light,Helvetica Neue" font-size="71.3" fill="#FEFFFE" transform="matrix(1.00, 0.00, -0.00, -1.00, 899.0, 582.3)">r</text><text xml:space="preserve" font-family="HelveticaNeue-Light,Helvetica Neue" font-size="71.3" fill="#FEFFFE" transform="matrix(1.00, 0.00, -0.00, -1.00, 921.5, 582.3)">s</text></g></svg>