<?xml version="1.0" encoding="UTF-8" standalone="no"?><svg xmlns="http://www.w3.org/2000/svg" xmlns:xlink="http://www.w3.org/1999/xlink" clip-rule="evenodd" stroke-miterlimit="10" viewBox="0 0 1024 768"><desc>SVG generated by Keynote</desc><defs></defs><g transform="matrix(1.00, 0.00, -0.00, -1.00, 0.0, 768.0)"><g><clipPath id="clip0x7fc2098b92e0"><path d="M 0.0 768.0 L 1024.0 768.0 L 1024.0 0.0 L 0.0 0.0 Z M 0.0 768.0 "></path></clipPath><g clip-path="url(#clip0x7fc2098b92e0)"><image xlink:href="../../8532EDA3-03AF-4F95-ADCC-1003E38AE155/assets/7D0D479F0D8AC86C9E875656D9072873.jpeg" width="2048.00" height="1536.00" transform="matrix(0.50, 0.00, -0.00, -0.50, 0.0, 768.0)"></image></g></g><g><clipPath id="clip0x7fc209a9ae20"><path d="M 33.0 524.0 L 657.0 524.0 L 657.0 38.0 L 33.0 38.0 Z M 33.2 523.8 "></path></clipPath><g clip-path="url(#clip0x7fc209a9ae20)"><image xlink:href="../../0D076D53-05FA-41E0-944A-5A3422CEDF30/assets/B9F424B6741A5A03348A47BC5E5F821B.png" width="968.00" height="754.00" transform="matrix(0.64, 0.00, -0.00, -0.64, 33.0, 524.0)"></image></g></g><image xlink:href="../../0D076D53-05FA-41E0-944A-5A3422CEDF30/assets/F38B37B8E9212464ACA23D3FD1912104.png" width="654.00" height="517.00" transform="matrix(1.00, 0.00, -0.00, 1.00, 18.2, 21.4)"></image><g><clipPath id="clip0x7fc209db49b0"><path d="M 246.0 700.0 L 1002.0 700.0 L 1002.0 433.0 L 246.0 433.0 Z M 245.6 699.9 "></path></clipPath><g clip-path="url(#clip0x7fc209db49b0)"><image xlink:href="../../0D076D53-05FA-41E0-944A-5A3422CEDF30/assets/73C3158341965494E3EBE419890DA013.png" width="1344.00" height="482.00" transform="matrix(0.56, 0.00, -0.00, -0.56, 246.0, 702.0)"></image></g></g><image xlink:href="../../0D076D53-05FA-41E0-944A-5A3422CEDF30/assets/82CDAA6874012A7F0092018DB50D29A7.png" width="787.00" height="299.00" transform="matrix(1.00, 0.00, -0.00, 1.00, 230.6, 416.1)"></image></g></svg>