<?xml version="1.0" encoding="UTF-8" standalone="no"?><svg xmlns="http://www.w3.org/2000/svg" xmlns:xlink="http://www.w3.org/1999/xlink" clip-rule="evenodd" stroke-miterlimit="10" viewBox="0 0 1024 768"><desc>SVG generated by Keynote</desc><defs></defs><g transform="matrix(1.00, 0.00, -0.00, -1.00, 0.0, 768.0)"><g><clipPath id="clip0x7fe3dfcbd3a0"><path d="M 0.0 768.0 L 1024.0 768.0 L 1024.0 0.0 L 0.0 0.0 Z M 0.0 768.0 "></path></clipPath><g clip-path="url(#clip0x7fe3dfcbd3a0)"><image xlink:href="../../8532EDA3-03AF-4F95-ADCC-1003E38AE155/assets/7D0D479F0D8AC86C9E875656D9072873.jpeg" width="2048.00" height="1536.00" transform="matrix(0.50, 0.00, -0.00, -0.50, 0.0, 768.0)"></image></g></g><g><clipPath id="clip0x7fe3dfe4ca40"><path d="M 13.0 635.0 L 520.0 635.0 L 520.0 135.0 L 13.0 135.0 Z M 13.4 635.2 "></path></clipPath><g clip-path="url(#clip0x7fe3dfe4ca40)"><image xlink:href="4F97E669217747868F8A46D7C950A914.png" width="1120.00" height="1104.00" transform="matrix(0.45, 0.00, -0.00, -0.45, 13.0, 635.0)"></image></g></g><image xlink:href="D9D545E5B8CCD9AE5A4F227BAC2A638F.png" width="537.00" height="532.00" transform="matrix(1.00, 0.00, -0.00, 1.00, -1.6, 117.8)"></image><g><clipPath id="clip0x7fe3dfe75050"><path d="M 508.0 639.0 L 992.0 639.0 L 992.0 131.0 L 508.0 131.0 Z M 507.7 639.0 "></path></clipPath><g clip-path="url(#clip0x7fe3dfe75050)"><image xlink:href="D544F13FD83D8EE3BD52952EF44CE1ED.png" width="958.00" height="994.00" transform="matrix(0.51, 0.00, -0.00, -0.51, 505.0, 639.0)"></image></g></g><image xlink:href="BDF25283F2761E3C75B25D7EF02F4359.png" width="515.00" height="540.00" transform="matrix(1.00, 0.00, -0.00, 1.00, 492.7, 114.0)"></image></g></svg>