<?xml version="1.0" encoding="UTF-8" standalone="no"?><svg xmlns="http://www.w3.org/2000/svg" xmlns:xlink="http://www.w3.org/1999/xlink" clip-rule="evenodd" stroke-miterlimit="10" viewBox="0 0 1024 768"><desc>SVG generated by Keynote</desc><defs></defs><g transform="matrix(1.00, 0.00, -0.00, -1.00, 0.0, 768.0)"><g><clipPath id="clip0x7fdf005a8c60"><path d="M 0.0 768.0 L 1024.0 768.0 L 1024.0 0.0 L 0.0 0.0 Z M 0.0 768.0 "></path></clipPath><g clip-path="url(#clip0x7fdf005a8c60)"><image xlink:href="../../8532EDA3-03AF-4F95-ADCC-1003E38AE155/assets/7D0D479F0D8AC86C9E875656D9072873.jpeg" width="2048.00" height="1536.00" transform="matrix(0.50, 0.00, -0.00, -0.50, 0.0, 768.0)"></image></g></g><g><clipPath id="clip0x7fdf0074de80"><path d="M 381.0 532.0 L 1006.0 532.0 L 1006.0 215.0 L 381.0 215.0 Z M 380.9 532.0 "></path></clipPath><g clip-path="url(#clip0x7fdf0074de80)"><image xlink:href="../../6B0D228D-8312-4634-9092-5F59363EA82D/assets/AE97470BB65ED6F1275B217AD9192C5B.png" width="928.00" height="480.00" transform="matrix(0.67, 0.00, -0.00, -0.67, 381.0, 535.0)"></image></g></g><image xlink:href="../../6B0D228D-8312-4634-9092-5F59363EA82D/assets/5D1A4D99423CCCE8FA6D1756078D130D.png" width="655.00" height="349.00" transform="matrix(1.00, 0.00, -0.00, 1.00, 365.9, 198.4)"></image><g><clipPath id="clip0x7fdf0074eda0"><path d="M 14.0 669.0 L 349.0 669.0 L 349.0 101.0 L 14.0 101.0 Z M 14.4 669.0 "></path></clipPath><g clip-path="url(#clip0x7fdf0074eda0)"><image xlink:href="../../6B0D228D-8312-4634-9092-5F59363EA82D/assets/6C2940EF6238B3D6F8E14846B8156628.png" width="514.00" height="864.00" transform="matrix(0.66, 0.00, -0.00, -0.66, 13.0, 669.0)"></image></g></g><image xlink:href="../../6B0D228D-8312-4634-9092-5F59363EA82D/assets/9E321B94B364A1FBE6D888F265E48D0C.png" width="365.00" height="600.00" transform="matrix(1.00, 0.00, -0.00, 1.00, -0.6, 84.0)"></image></g></svg>